Sudo.glyphspackage
{
glyphname = numbersign;
layers = (
{
background = {
shapes = (
{
closed = 1;
nodes = (
(108,0,l),
(176,0,l),
(196,512,l),
(128,512,l)
);
},
{
closed = 1;
nodes = (
(252,0,l),
(320,0,l),
(340,512,l),
(272,512,l)
);
},
{
closed = 1;
nodes = (
(59,320,l),
(399,320,l),
(399,384,l),
(59,384,l)
);
},
{
closed = 1;
nodes = (
(49,128,l),
(389,128,l),
(389,192,l),
(49,192,l)
);
}
);
};
hints = (
{
horizontal = 1;
origin = (0,2);
type = TTSnap;
},
{
horizontal = 1;
options = 8;
origin = (0,1);
other1 = (0,2,3,1);
target = (0,2);
type = TTInterpolate;
},
{
horizontal = 1;
options = 8;
origin = (0,1);
other1 = (0,2,2,3);
target = (0,2);
type = TTInterpolate;
},
{
horizontal = 1;
options = 4;
origin = (0,2,2,3);
target = (0,2,2,1);
type = TTStem;
},
{
horizontal = 1;
options = 4;
origin = (0,2,3,1);
target = (0,2,3,3);
type = TTStem;
},
{
horizontal = 1;
options = 4;
origin = (0,2,3,1);
target = (0,0,3,1);
type = TTShift;
},
{
horizontal = 1;
options = 4;
origin = (0,2,3,3);
target = (0,0,3,3);
type = TTShift;
},
{
horizontal = 1;
options = 4;
origin = (0,2,2,1);
target = (0,0,2,1);
type = TTShift;
},
{
horizontal = 1;
options = 4;
origin = (0,2,2,3);
target = (1,2,2,3);
type = TTShift;
},
{
horizontal = 1;
options = 4;
origin = (0,2,2,1);
target = (1,2,2,1);
type = TTShift;
},
{
horizontal = 1;
options = 4;
origin = (0,2,3,3);
target = (1,2,3,3);
type = TTShift;
},
{
horizontal = 1;
options = 4;
origin = (0,2,3,1);
target = (1,2,3,1);
type = TTShift;
},
{
horizontal = 1;
options = 4;
origin = (0,2);
target = (1,3);
type = TTShift;
},
{
horizontal = 1;
options = 4;
origin = (0,1);
target = (1,0);
type = TTShift;
}
);
layerId = "95FB0C11-C828-4064-8966-34220AA4D426";
shapes = (
{
closed = 1;
nodes = (
(108,0,l),
(176,0,l),
(196,512,l),
(128,512,l)
);
},
{
closed = 1;
nodes = (
(252,0,l),
(320,0,l),
(340,512,l),
(272,512,l)
);
},
{
closed = 1;
nodes = (
(59,320,l),
(399,320,l),
(399,384,l),
(59,384,l)
);
},
{
closed = 1;
nodes = (
(49,128,l),
(389,128,l),
(389,192,l),
(49,192,l)
);
}
);
width = 448;
},
{
background = {
shapes = (
{
closed = 1;
nodes = (
(78,0,l),
(186,0,l),
(206,512,l),
(98,512,l)
);
},
{
closed = 1;
nodes = (
(242,0,l),
(350,0,l),
(370,512,l),
(262,512,l)
);
},
{
closed = 1;
nodes = (
(39,312,l),
(419,312,l),
(419,392,l),
(39,392,l)
);
},
{
closed = 1;
nodes = (
(29,120,l),
(409,120,l),
(409,200,l),
(29,200,l)
);
}
);
};
layerId = "92967D72-867E-4A8B-929F-F44D834DD4C9";
shapes = (
{
closed = 1;
nodes = (
(78,0,l),
(186,0,l),
(206,512,l),
(98,512,l)
);
},
{
closed = 1;
nodes = (
(242,0,l),
(350,0,l),
(370,512,l),
(262,512,l)
);
},
{
closed = 1;
nodes = (
(39,312,l),
(419,312,l),
(419,392,l),
(39,392,l)
);
},
{
closed = 1;
nodes = (
(29,120,l),
(409,120,l),
(409,200,l),
(29,200,l)
);
}
);
width = 448;
},
{
layerId = "7DDCEF54-C770-4FAD-B154-EE8058BAA7E5";
shapes = (
{
closed = 1;
nodes = (
(124,0,l),
(170,0,l),
(190,512,l),
(144,512,l)
);
},
{
closed = 1;
nodes = (
(258,0,l),
(304,0,l),
(324,512,l),
(278,512,l)
);
},
{
closed = 1;
nodes = (
(71,330,l),
(387,330,l),
(387,374,l),
(71,374,l)
);
},
{
closed = 1;
nodes = (
(61,138,l),
(377,138,l),
(377,182,l),
(61,182,l)
);
}
);
width = 448;
},
{
layerId = "C21910D5-47BB-472B-A83D-89B2B42B8F2A";
shapes = (
{
closed = 1;
nodes = (
(79,0,l),
(125,0,l),
(248,512,l),
(202,512,l)
);
},
{
closed = 1;
nodes = (
(213,0,l),
(259,0,l),
(382,512,l),
(336,512,l)
);
},
{
closed = 1;
nodes = (
(92,330,l),
(408,330,l),
(417,374,l),
(101,374,l)
);
},
{
closed = 1;
nodes = (
(44,138,l),
(360,138,l),
(369,182,l),
(53,182,l)
);
}
);
width = 448;
},
{
layerId = "BA106321-29DE-4FD0-898D-B7B08A4D4215";
shapes = (
{
closed = 1;
nodes = (
(63,0,l),
(131,0,l),
(254,512,l),
(186,512,l)
);
},
{
closed = 1;
nodes = (
(207,0,l),
(275,0,l),
(398,512,l),
(330,512,l)
);
},
{
closed = 1;
nodes = (
(78,320,l),
(418,320,l),
(431,384,l),
(91,384,l)
);
},
{
closed = 1;
nodes = (
(30,128,l),
(370,128,l),
(383,192,l),
(43,192,l)
);
}
);
width = 448;
},
{
layerId = "EBAB10B0-9FDE-44C7-9B16-DD2313400F4E";
shapes = (
{
closed = 1;
nodes = (
(33,0,l),
(141,0,l),
(264,512,l),
(155,512,l)
);
},
{
closed = 1;
nodes = (
(197,0,l),
(305,0,l),
(428,512,l),
(319,512,l)
);
},
{
closed = 1;
nodes = (
(57,312,l),
(437,312,l),
(453,392,l),
(73,392,l)
);
},
{
closed = 1;
nodes = (
(8,120,l),
(388,120,l),
(404,200,l),
(24,200,l)
);
}
);
width = 448;
}
);
unicode = 35;
}
{
glyphname = dollar;
layers = (
{
background = {
shapes = (
{
closed = 1;
nodes = (
(319,-8,o),
(391,39,o),
(391,141,cs),
(391,325,o),
(135,263,o),
(135,424,cs),
(135,477,o),
(155,520,o),
(256,520,cs),
(286,520,o),
(325,514,o),
(360,502,c),
(376,566,l),
(341,578,o),
(294,584,o),
(256,584,cs),
(125,584,o),
(59,516,o),
(59,421,cs),
(59,212,o),
(315,273,o),
(315,135,cs),
(315,91,o),
(290,56,o),
(198,56,cs),
(148,56,o),
(109,67,o),
(70,82,c),
(51,18,l),
(96,1,o),
(149,-8,o),
(195,-8,cs)
);
}
);
};
hints = (
{
horizontal = 1;
options = 4;
origin = (0,31);
target = (0,24);
type = TTStem;
},
{
horizontal = 1;
options = 4;
origin = (0,31);
target = (0,2,2,3);
type = TTShift;
},
{
horizontal = 1;
origin = (0,31);
stem = -1;
target = (2,1);
type = TTStem;
},
{
horizontal = 1;
options = 4;
origin = (0,15);
target = (0,8);
type = TTStem;
},
{
horizontal = 1;
origin = (0,15);
stem = -1;
target = (1,1);
type = TTStem;
},
{
horizontal = 1;
options = 4;
origin = (0,15);
target = (0,18,1,3);
type = TTShift;
},
{
horizontal = 1;
options = 4;
origin = (0,24);
other1 = (0,5,0);
target = (0,15);
type = TTInterpolate;
},
{
horizontal = 1;
options = 4;
origin = (0,31);
other1 = (0,21,0);
target = (0,8);
type = TTInterpolate;
}
);
layerId = "95FB0C11-C828-4064-8966-34220AA4D426";
shapes = (
{
closed = 1;
nodes = (
(319,-8,o),
(391,39,o),
(391,140,cs),
(391,329,o),
(135,269,o),
(135,425,cs),
(135,477,o),
(155,520,o),
(256,520,cs),
(286,520,o),
(325,514,o),
(360,502,c),
(376,566,l),
(341,578,o),
(294,584,o),
(256,584,cs),
(125,584,o),
(59,516,o),
(59,420,cs),
(59,208,o),
(315,267,o),
(315,136,cs),
(315,91,o),
(290,56,o),
(198,56,cs),
(148,56,o),
(109,67,o),
(70,82,c),
(51,18,l),
(96,1,o),
(149,-8,o),
(195,-8,cs)
);
},
{
closed = 1;
nodes = (
(256,545,l),
(256,704,l),
(192,704,l),
(192,545,l)
);
},
{
closed = 1;
nodes = (
(192,32,l),
(192,-128,l),
(256,-128,l),
(256,32,l)
);
}
);
width = 448;
},
{
background = {
shapes = (
{
closed = 1;
nodes = (
(325,-8,o),
(401,39,o),
(401,145,cs),
(401,335,o),
(165,277,o),
(165,417,cs),
(165,464,o),
(183,502,o),
(273,502,cs),
(303,502,o),
(341,494,o),
(370,485,c),
(390,562,l),
(353,576,o),
(305,584,o),
(259,584,cs),
(119,584,o),
(49,514,o),
(49,408,cs),
(49,197,o),
(285,252,o),
(285,136,cs),
(285,103,o),
(262,74,o),
(178,74,cs),
(132,74,o),
(94,86,o),
(61,98,c),
(37,24,l),
(84,3,o),
(145,-8,o),
(197,-8,cs)
);
}
);
};
layerId = "92967D72-867E-4A8B-929F-F44D834DD4C9";
shapes = (
{
closed = 1;
nodes = (
(325,-8,o),
(401,39,o),
(401,143,cs),
(401,340,o),
(165,282,o),
(165,418,cs),
(165,464,o),
(183,502,o),
(273,502,cs),
(303,502,o),
(341,494,o),
(370,485,c),
(390,562,l),
(353,576,o),
(305,584,o),
(259,584,cs),
(119,584,o),
(49,514,o),
(49,407,cs),
(49,192,o),
(285,247,o),
(285,138,cs),
(285,103,o),
(262,74,o),
(178,74,cs),
(132,74,o),
(94,86,o),
(61,98,c),
(37,24,l),
(84,3,o),
(145,-8,o),
(197,-8,cs)
);
},
{
closed = 1;
nodes = (
(276,545,l),
(276,704,l),
(172,704,l),
(172,545,l)
);
},
{
closed = 1;
nodes = (
(172,32,l),
(172,-128,l),
(276,-128,l),
(276,32,l)
);
}
);
width = 448;
},
{
layerId = "7DDCEF54-C770-4FAD-B154-EE8058BAA7E5";
shapes = (
{
closed = 1;
nodes = (
(315,-8,o),
(384,36,o),
(384,128,cs),
(384,314,o),
(116,249,o),
(116,425,cs),
(116,488,o),
(151,540,o),
(253,540,cs),
(293,540,o),
(325,534,o),
(357,526,c),
(367,566,l),
(339,575,o),
(295,584,o),
(254,584,cs),
(130,584,o),
(66,516,o),
(66,423,cs),
(66,210,o),
(334,273,o),
(334,126,cs),
(334,72,o),
(305,36,o),
(203,36,cs),
(150,36,o),
(112,45,o),
(72,57,c),
(60,17,l),
(103,2,o),
(151,-8,o),
(208,-8,cs)
);
},
{
closed = 1;
nodes = (
(248,561,l),
(248,704,l),
(200,704,l),
(200,561,l)
);
},
{
closed = 1;
nodes = (
(200,16,l),
(200,-128,l),
(248,-128,l),
(248,16,l)
);
}
);
width = 448;
},
{
background = {
shapes = (
{
closed = 1;
nodes = (
(270,-8,o),
(346,34,o),
(364,124,cs),
(402,312,o),
(121,247,o),
(155,421,cs),
(168,486,o),
(216,540,o),
(320,540,cs),
(358,540,o),
(389,534,o),
(419,526,c),
(434,565,l),
(407,574,o),
(365,584,o),
(323,584,cs),
(200,584,o),
(125,518,o),
(107,427,cs),
(64,212,o),
(344,275,o),
(315,130,cs),
(304,74,o),
(266,36,o),
(162,36,cs),
(111,36,o),
(74,44,o),
(37,56,c),
(20,18,l),
(60,3,o),
(106,-8,o),
(165,-8,cs)
);
}
);
};
layerId = "C21910D5-47BB-472B-A83D-89B2B42B8F2A";
shapes = (
{
closed = 1;
nodes = (
(297,-8,o),
(365,56,o),
(365,146,cs),
(365,294,o),
(151,271,o),
(151,401,cs),
(151,489,o),
(207,540,o),
(323,540,cs),
(358,540,o),
(393,535,o),
(422,528,c),
(434,566,l),
(406,576,o),
(366,584,o),
(323,584,cs),
(175,584,o),
(103,507,o),
(103,399,cs),
(103,240,o),
(317,257,o),
(317,142,cs),
(317,83,o),
(270,36,o),
(161,36,cs),
(118,36,o),
(76,43,o),
(35,58,c),
(20,22,l),
(62,2,o),
(114,-8,o),
(161,-8,cs)
);
},
{
closed = 1;
nodes = (
(315,561,l),
(344,704,l),
(296,704,l),
(267,561,l)
);
},
{
closed = 1;
nodes = (
(158,16,l),
(130,-128,l),
(178,-128,l),
(206,16,l)
);
}
);
width = 448;
},
{
background = {
shapes = (
{
closed = 1;
nodes = (
(275,-8,o),
(353,36,o),
(373,134,cs),
(411,326,o),
(143,266,o),
(174,419,cs),
(185,474,o),
(217,520,o),
(320,520,cs),
(348,520,o),
(386,515,o),
(418,503,c),
(442,565,l),
(409,577,o),
(363,584,o),
(323,584,cs),
(194,584,o),
(118,519,o),
(99,426,cs),
(56,211,o),
(324,270,o),
(299,142,cs),
(289,94,o),
(254,56,o),
(159,56,cs),
(112,56,o),
(75,66,o),
(39,81,c),
(12,19,l),
(54,2,o),
(105,-8,o),
(154,-8,cs)
);
}
);
};
layerId = "BA106321-29DE-4FD0-898D-B7B08A4D4215";
shapes = (
{
closed = 1;
nodes = (
(304,-8,o),
(377,59,o),
(377,154,cs),
(377,306,o),
(169,290,o),
(169,400,cs),
(169,478,o),
(219,520,o),
(323,520,cs),
(358,520,o),
(394,515,o),
(423,507,c),
(440,565,l),
(411,575,o),
(368,584,o),
(323,584,cs),
(171,584,o),
(95,506,o),
(95,393,cs),
(95,234,o),
(303,247,o),
(303,147,cs),
(303,92,o),
(260,56,o),
(161,56,cs),
(119,56,o),
(77,63,o),
(37,79,c),
(14,23,l),
(58,1,o),
(112,-8,o),
(161,-8,cs)
);
},
{
closed = 1;
nodes = (
(320,545,l),
(352,704,l),
(288,704,l),
(256,545,l)
);
},
{
closed = 1;
nodes = (
(154,32,l),
(122,-128,l),
(186,-128,l),
(218,32,l)
);
}
);
width = 448;
},
{
background = {
shapes = (
{
closed = 1;
nodes = (
(282,-8,o),
(363,35,o),
(383,134,cs),
(423,336,o),
(176,278,o),
(202,409,cs),
(212,460,o),
(242,502,o),
(335,502,cs),
(362,502,o),
(398,495,o),
(425,486,c),
(455,560,l),
(420,574,o),
(374,584,o),
(325,584,cs),
(188,584,o),
(108,518,o),
(87,416,cs),
(43,196,o),
(290,251,o),
(270,147,cs),
(262,107,o),
(229,74,o),
(142,74,cs),
(99,74,o),
(63,84,o),
(33,96,c),
(-1,26,l),
(43,5,o),
(102,-8,o),
(157,-8,cs)
);
}
);
};
layerId = "EBAB10B0-9FDE-44C7-9B16-DD2313400F4E";
shapes = (
{
closed = 1;
nodes = (
(311,-8,o),
(389,58,o),
(389,156,cs),
(389,316,o),
(198,295,o),
(198,408,cs),
(198,466,o),
(239,502,o),
(325,502,cs),
(364,502,o),
(403,496,o),
(435,487,c),
(452,563,l),
(421,574,o),
(374,584,o),
(325,584,cs),
(165,584,o),
(82,504,o),
(82,389,cs),
(82,227,o),
(273,225,o),
(273,139,cs),
(273,99,o),
(239,74,o),
(161,74,cs),
(116,74,o),
(70,82,o),
(27,99,c),
(4,25,l),
(51,2,o),
(109,-8,o),
(161,-8,cs)
);
},
{
closed = 1;
nodes = (
(340,545,l),
(372,704,l),
(268,704,l),
(236,545,l)
);
},
{
closed = 1;
nodes = (
(134,32,l),
(102,-128,l),
(206,-128,l),
(238,32,l)
);
}
);
width = 448;
},
{
associatedMasterId = "95FB0C11-C828-4064-8966-34220AA4D426";
background = {
shapes = (
{
closed = 1;
nodes = (
(376,566,l),
(341,578,o),
(294,584,o),
(256,584,cs),
(125,584,o),
(59,513,o),
(59,420,cs),
(59,208,o),
(319,293,o),
(319,151,cs),
(319,104,o),
(298,58,o),
(198,58,cs),
(148,58,o),
(109,69,o),
(70,84,c),
(51,18,l),
(96,1,o),
(149,-8,o),
(195,-8,cs),
(324,-8,o),
(391,55,o),
(391,160,cs),
(391,360,o),
(131,271,o),
(131,419,cs),
(131,478,o),
(158,518,o),
(256,518,cs),
(286,518,o),
(325,512,o),
(360,500,c)
);
},
{
closed = 1;
nodes = (
(192,-74,l),
(256,-74,l),
(256,650,l),
(192,650,l)
);
}
);
};
hints = (
{
horizontal = 1;
options = 4;
origin = (0,15);
target = (0,8);
type = TTStem;
},
{
horizontal = 1;
options = 4;
origin = (0,31);
target = (0,24);
type = TTStem;
},
{
horizontal = 1;
options = 4;
origin = (0,8);
other1 = (0,21,1,3);
target = (0,31);
type = TTInterpolate;
},
{
horizontal = 1;
options = 4;
origin = (0,15);
other1 = (0,5,1,3);
target = (0,24);
type = TTInterpolate;
},
{
horizontal = 1;
options = 4;
origin = (0,5,1,3);
target = (0,5,1,1);
type = TTShift;
},
{
horizontal = 1;
options = 4;
origin = (0,21,1,3);
target = (0,21,1,1);
type = TTShift;
},
{
horizontal = 1;
options = 4;
origin = (0,24);
target = (0,24,1,1);
type = TTShift;
},
{
horizontal = 1;
options = 4;
origin = (0,31);
target = (0,2,1,1);
type = TTShift;
},
{
horizontal = 1;
options = 4;
origin = (0,18,1,3);
target = (0,15);
type = TTShift;
},
{
horizontal = 1;
options = 4;
origin = (0,8);
target = (0,8,1,3);
type = TTShift;
},
{
origin = (0,18);
type = TTSnap;
},
{
options = 4;
origin = (0,18);
target = (0,5);
type = TTStem;
},
{
origin = (0,2);
type = TTSnap;
},
{
options = 4;
origin = (0,2);
target = (0,21);
type = TTStem;
},
{
options = 4;
origin = (0,2);
target = (0,12);
type = TTShift;
},
{
options = 4;
origin = (0,18);
target = (0,28);
type = TTShift;
},
{
origin = (0,18);
other1 = (1,2);
target = (0,2);
type = TTInterpolate;
},
{
options = 4;
origin = (1,2);
target = (1,1);
type = TTStem;
},
{
options = 4;
origin = (1,2);
target = (0,8,1,3);
type = TTShift;
},
{
options = 4;
origin = (1,2);
target = (0,27,1,3);
type = TTShift;
},
{
options = 4;
origin = (1,2);
target = (1,3);
type = TTShift;
},
{
options = 4;
origin = (1,1);
target = (0,8);
type = TTShift;
},
{
options = 4;
origin = (1,1);
target = (0,21,1,1);
type = TTShift;
},
{
options = 4;
origin = (1,1);
target = (1,0);
type = TTShift;
}
);
layerId = "DB652A47-53C5-4323-AC32-9934DCD7DDA1";
name = "20. Apr. 21, 11:22";
shapes = (
{
closed = 1;
nodes = (
(324,-8,o),
(391,55,o),
(391,160,cs),
(391,360,o),
(131,271,o),
(131,419,cs),
(131,478,o),
(158,518,o),
(256,518,cs),
(286,518,o),
(325,512,o),
(360,500,c),
(376,566,l),
(341,578,o),
(294,584,o),
(256,584,cs),
(125,584,o),
(59,513,o),
(59,420,cs),
(59,208,o),
(319,293,o),
(319,151,cs),
(319,104,o),
(298,58,o),
(198,58,cs),
(148,58,o),
(109,69,o),
(70,84,c),
(51,18,l),
(96,1,o),
(149,-8,o),
(195,-8,cs)
);
},
{
closed = 1;
nodes = (
(256,-74,l),
(256,650,l),
(192,650,l),
(192,-74,l)
);
}
);
width = 448;
},
{
associatedMasterId = "92967D72-867E-4A8B-929F-F44D834DD4C9";
background = {
shapes = (
{
closed = 1;
nodes = (
(406,566,l),
(364,578,o),
(308,584,o),
(263,584,cs),
(107,584,o),
(29,510,o),
(29,416,cs),
(29,200,o),
(309,285,o),
(309,151,cs),
(309,108,o),
(286,74,o),
(178,74,cs),
(124,74,o),
(82,85,o),
(40,100,c),
(21,18,l),
(74,1,o),
(136,-8,o),
(190,-8,cs),
(342,-8,o),
(421,58,o),
(421,160,cs),
(421,368,o),
(141,279,o),
(141,419,cs),
(141,472,o),
(170,502,o),
(277,502,cs),
(310,502,o),
(352,496,o),
(390,484,c)
);
},
{
closed = 1;
nodes = (
(172,-74,l),
(276,-74,l),
(276,650,l),
(172,650,l)
);
}
);
};
layerId = "E918CFBD-D415-4695-9631-848012B3DA91";
name = "20. Apr. 21, 11:28";
shapes = (
{
closed = 1;
nodes = (
(342,-8,o),
(421,58,o),
(421,160,cs),
(421,368,o),
(141,279,o),
(141,419,cs),
(141,472,o),
(170,502,o),
(277,502,cs),
(310,502,o),
(352,496,o),
(390,484,c),
(406,566,l),
(364,578,o),
(308,584,o),
(263,584,cs),
(107,584,o),
(29,510,o),
(29,416,cs),
(29,200,o),
(309,285,o),
(309,151,cs),
(309,108,o),
(286,74,o),
(178,74,cs),
(124,74,o),
(82,85,o),
(40,100,c),
(21,18,l),
(74,1,o),
(136,-8,o),
(190,-8,cs)
);
},
{
closed = 1;
nodes = (
(276,-74,l),
(276,650,l),
(172,650,l),
(172,-74,l)
);
}
);
width = 448;
},
{
associatedMasterId = "7DDCEF54-C770-4FAD-B154-EE8058BAA7E5";
background = {
shapes = (
{
closed = 1;
nodes = (
(358,566,l),
(327,578,o),
(286,584,o),
(252,584,cs),
(136,584,o),
(77,515,o),
(77,422,cs),
(77,213,o),
(325,298,o),
(325,151,cs),
(325,102,o),
(305,48,o),
(210,48,cs),
(162,48,o),
(125,59,o),
(88,74,c),
(69,18,l),
(109,1,o),
(157,-8,o),
(198,-8,cs),
(313,-8,o),
(373,53,o),
(373,160,cs),
(373,355,o),
(125,266,o),
(125,419,cs),
(125,482,o),
(151,528,o),
(243,528,cs),
(272,528,o),
(309,522,o),
(342,510,c)
);
},
{
closed = 1;
nodes = (
(204,-74,l),
(244,-74,l),
(244,650,l),
(204,650,l)
);
}
);
};
layerId = "28B08E10-D195-4F3F-8D27-2A6395973E0F";
name = "20. Apr. 21, 11:32";
shapes = (
{
closed = 1;
nodes = (
(315,-8,o),
(384,36,o),
(384,138,cs),
(384,339,o),
(116,271,o),
(116,433,cs),
(116,496,o),
(151,540,o),
(253,540,cs),
(293,540,o),
(325,534,o),
(357,526,c),
(367,566,l),
(339,575,o),
(295,584,o),
(254,584,cs),
(130,584,o),
(66,523,o),
(66,431,cs),
(66,233,o),
(334,297,o),
(334,138,cs),
(334,72,o),
(305,36,o),
(203,36,cs),
(150,36,o),
(112,45,o),
(72,57,c),
(60,17,l),
(103,2,o),
(151,-8,o),
(208,-8,cs)
);
},
{
closed = 1;
nodes = (
(248,-74,l),
(248,650,l),
(200,650,l),
(200,-74,l)
);
}
);
width = 448;
}
);
unicode = 36;
}
{
color = 6;
glyphname = percent;
layers = (
{
background = {
shapes = (
{
closed = 1;
nodes = (
(55,182,l),
(425,403,l),
(392,458,l),
(23,237,l)
);
},
{
closed = 1;
nodes = (
(19,512,cs),
(19,442,o),
(59,376,o),
(128,376,cs),
(196,376,o),
(237,442,o),
(237,512,cs),
(237,582,o),
(196,648,o),
(128,648,cs),
(59,648,o),
(19,582,o)
);
},
{
closed = 1;
nodes = (
(84,512,cs),
(84,561,o),
(96,592,o),
(128,592,cs),
(160,592,o),
(172,561,o),
(172,512,cs),
(172,463,o),
(160,432,o),
(128,432,cs),
(96,432,o),
(84,463,o)
);
},
{
closed = 1;
nodes = (
(211,128,cs),
(211,58,o),
(251,-8,o),
(320,-8,cs),
(388,-8,o),
(429,58,o),
(429,128,cs),
(429,198,o),
(388,264,o),
(320,264,cs),
(251,264,o),
(211,198,o)
);
},
{
closed = 1;
nodes = (
(276,128,cs),
(276,177,o),
(288,208,o),
(320,208,cs),
(352,208,o),
(364,177,o),
(364,128,cs),
(364,79,o),
(352,48,o),
(320,48,cs),
(288,48,o),
(276,79,o)
);
}
);
};
hints = (
{
horizontal = 1;
options = 4;
place = (-8, 56);
type = TTStem;
},
{
horizontal = 1;
options = 4;
place = (648, 56);
type = TTStem;
},
{
horizontal = 1;
place = (376, 0);
type = TTSnap;
},
{
horizontal = 1;
options = 4;
place = (376, 56);
type = TTStem;
},
{
horizontal = 1;
place = (264, 0);
type = TTSnap;
},
{
horizontal = 1;
options = 4;
place = (264, 56);
type = TTStem;
}
);
layerId = "95FB0C11-C828-4064-8966-34220AA4D426";
shapes = (
{
alignment = -1;
ref = fraction.percent;
},
{
pos = (192,-384);
ref = zerosuperior.alt001;
},
{
ref = zerosuperior.alt001;
}
);
width = 448;
},
{
background = {
shapes = (
{
closed = 1;
nodes = (
(55,182,l),
(425,403,l),
(392,458,l),
(23,237,l)
);
},
{
closed = 1;
nodes = (
(19,512,cs),
(19,442,o),
(59,376,o),
(128,376,cs),
(196,376,o),
(237,442,o),
(237,512,cs),
(237,582,o),
(196,648,o),
(128,648,cs),
(59,648,o),
(19,582,o)
);
},
{
closed = 1;
nodes = (
(84,512,cs),
(84,561,o),
(96,592,o),
(128,592,cs),
(160,592,o),
(172,561,o),
(172,512,cs),
(172,463,o),
(160,432,o),
(128,432,cs),
(96,432,o),
(84,463,o)
);
},
{
closed = 1;
nodes = (
(211,128,cs),
(211,58,o),
(251,-8,o),
(320,-8,cs),
(388,-8,o),
(429,58,o),
(429,128,cs),
(429,198,o),
(388,264,o),
(320,264,cs),
(251,264,o),
(211,198,o)
);
},
{
closed = 1;
nodes = (
(276,128,cs),
(276,177,o),
(288,208,o),
(320,208,cs),
(352,208,o),
(364,177,o),
(364,128,cs),
(364,79,o),
(352,48,o),
(320,48,cs),
(288,48,o),
(276,79,o)
);
}
);
};
layerId = "92967D72-867E-4A8B-929F-F44D834DD4C9";
shapes = (
{
alignment = -1;
ref = fraction.percent;
},
{
pos = (192,-384);
ref = zerosuperior.alt001;
},
{
ref = zerosuperior.alt001;
}
);
width = 448;
},
{
layerId = "7DDCEF54-C770-4FAD-B154-EE8058BAA7E5";
shapes = (
{
alignment = -1;
ref = fraction.percent;
},
{
pos = (192,-384);
ref = zerosuperior.alt001;
},
{
ref = zerosuperior.alt001;
}
);
width = 448;
},
{
layerId = "C21910D5-47BB-472B-A83D-89B2B42B8F2A";
shapes = (
{
alignment = -1;
ref = fraction.percent;
},
{
pos = (115,-384);
ref = zerosuperior.alt001;
},
{
ref = zerosuperior.alt001;
}
);
width = 448;
},
{
layerId = "BA106321-29DE-4FD0-898D-B7B08A4D4215";
shapes = (
{
alignment = -1;
ref = fraction.percent;
},
{
pos = (115,-384);
ref = zerosuperior.alt001;
},
{
ref = zerosuperior.alt001;
}
);
width = 448;
},
{
layerId = "EBAB10B0-9FDE-44C7-9B16-DD2313400F4E";
shapes = (
{
alignment = -1;
ref = fraction.percent;
},
{
pos = (115,-384);
ref = zerosuperior.alt001;
},
{
ref = zerosuperior.alt001;
}
);
width = 448;
}
);
unicode = 37;
}
{
glyphname = ampersand;
layers = (
{
hints = (
{
horizontal = 1;
options = 4;
origin = (0,16);
target = (0,26);
type = TTStem;
},
{
horizontal = 1;
origin = (0,3);
type = TTSnap;
},
{
horizontal = 1;
options = 4;
origin = (0,3);
target = (0,41);
type = TTStem;
},
{
horizontal = 1;
origin = (0,32);
type = TTSnap;
},
{
horizontal = 1;
options = 4;
origin = (0,32);
target = (0,35);
type = TTStem;
},
{
horizontal = 1;
options = 4;
origin = (0,32);
target = (0,20,0,33);
type = TTShift;
},
{
horizontal = 1;
options = 4;
origin = (0,32);
other1 = (0,9,0,13);
target = (0,35);
type = TTInterpolate;
}
);
layerId = "95FB0C11-C828-4064-8966-34220AA4D426";
shapes = (
{
closed = 1;
nodes = (
(320,529,l),
(291,536,o),
(249,542,o),
(215,542,cs),
(104,542,o),
(50,482,o),
(50,402,cs),
(50,340,o),
(87,288,o),
(175,274,c),
(175,306,l),
(63,277,o),
(35,203,o),
(35,145,cs),
(35,64,o),
(79,-10,o),
(208,-10,cs),
(255,-10,o),
(317,1,o),
(368,18,c),
(368,288,l),
(296,288,l),
(296,26,l),
(351,82,l),
(306,62,o),
(254,54,o),
(204,54,cs),
(124,54,o),
(108,103,o),
(108,147,cs),
(108,199,o),
(133,256,o),
(238,256,cs),
(428,256,l),
(428,320,l),
(226,320,ls),
(141,320,o),
(122,357,o),
(122,399,cs),
(122,437,o),
(142,478,o),
(214,478,cs),
(247,478,o),
(280,473,o),
(308,468,c)
);
}
);
width = 448;
},
{
layerId = "92967D72-867E-4A8B-929F-F44D834DD4C9";
shapes = (
{
closed = 1;
nodes = (
(332,526,l),
(299,535,o),
(254,542,o),
(217,542,cs),
(98,542,o),
(40,480,o),
(40,398,cs),
(40,334,o),
(80,280,o),
(175,266,c),
(175,314,l),
(55,284,o),
(25,208,o),
(25,149,cs),
(25,66,o),
(72,-10,o),
(208,-10,cs),
(258,-10,o),
(324,1,o),
(378,18,c),
(378,288,l),
(266,288,l),
(266,26,l),
(351,98,l),
(296,80,o),
(256,70,o),
(209,70,cs),
(149,70,o),
(138,113,o),
(138,152,cs),
(138,198,o),
(161,248,o),
(260,248,cs),
(438,248,l),
(438,328,l),
(249,328,ls),
(170,328,o),
(152,359,o),
(152,395,cs),
(152,427,o),
(170,462,o),
(234,462,cs),
(263,462,o),
(292,457,o),
(317,452,c)
);
}
);
width = 448;
},
{
layerId = "7DDCEF54-C770-4FAD-B154-EE8058BAA7E5";
shapes = (
{
closed = 1;
nodes = (
(313,531,l),
(286,537,o),
(246,542,o),
(214,542,cs),
(108,542,o),
(56,483,o),
(56,404,cs),
(56,345,o),
(91,293,o),
(175,279,c),
(175,299,l),
(68,271,o),
(41,199,o),
(41,143,cs),
(41,63,o),
(83,-10,o),
(208,-10,cs),
(253,-10,o),
(313,1,o),
(362,18,c),
(362,288,l),
(314,288,l),
(314,26,l),
(351,62,l),
(312,41,o),
(253,34,o),
(201,34,cs),
(115,34,o),
(90,85,o),
(90,141,cs),
(90,201,o),
(120,266,o),
(225,266,cs),
(422,266,l),
(422,310,l),
(212,310,ls),
(129,310,o),
(104,354,o),
(104,404,cs),
(104,454,o),
(130,498,o),
(207,498,cs),
(241,498,o),
(275,495,o),
(306,490,c)
);
}
);
width = 448;
},
{
layerId = "C21910D5-47BB-472B-A83D-89B2B42B8F2A";
shapes = (
{
closed = 1;
nodes = (
(373,531,l),
(347,537,o),
(308,542,o),
(274,542,cs),
(170,542,o),
(108,485,o),
(93,408,cs),
(81,347,o),
(107,293,o),
(188,279,c),
(188,299,l),
(76,271,o),
(36,201,o),
(26,147,cs),
(9,65,o),
(38,-10,o),
(165,-10,cs),
(208,-10,o),
(270,0,o),
(322,17,c),
(375,288,l),
(327,288,l),
(275,26,l),
(318,63,l),
(274,42,o),
(213,34,o),
(160,34,cs),
(75,34,o),
(62,83,o),
(73,137,cs),
(85,199,o),
(130,266,o),
(235,266,cs),
(430,266,l),
(439,310,l),
(227,310,ls),
(144,310,o),
(130,352,o),
(139,400,cs),
(150,452,o),
(187,498,o),
(265,498,cs),
(298,498,o),
(331,495,o),
(361,490,c)
);
}
);
width = 448;
},
{
layerId = "BA106321-29DE-4FD0-898D-B7B08A4D4215";
shapes = (
{
closed = 1;
nodes = (
(379,528,l),
(351,535,o),
(310,542,o),
(274,542,cs),
(165,542,o),
(102,485,o),
(87,408,cs),
(74,343,o),
(102,288,o),
(188,274,c),
(189,307,l),
(71,278,o),
(31,206,o),
(20,151,cs),
(4,67,o),
(35,-10,o),
(166,-10,cs),
(211,-10,o),
(275,0,o),
(329,17,c),
(381,288,l),
(309,288,l),
(257,26,l),
(321,83,l),
(272,63,o),
(217,54,o),
(165,54,cs),
(87,54,o),
(83,100,o),
(91,141,cs),
(102,196,o),
(142,256,o),
(247,256,cs),
(434,256,l),
(447,320,l),
(243,320,ls),
(158,320,o),
(148,354,o),
(156,393,cs),
(164,434,o),
(195,478,o),
(270,478,cs),
(300,478,o),
(332,473,o),
(359,468,c)
);
}
);
width = 448;
},
{
layerId = "EBAB10B0-9FDE-44C7-9B16-DD2313400F4E";
shapes = (
{
closed = 1;
nodes = (
(390,525,l),
(358,534,o),
(314,542,o),
(274,542,cs),
(158,542,o),
(92,484,o),
(77,407,cs),
(63,338,o),
(94,281,o),
(187,267,c),
(190,315,l),
(64,285,o),
(23,212,o),
(12,158,cs),
(-6,70,o),
(28,-10,o),
(168,-10,cs),
(214,-10,o),
(282,0,o),
(340,17,c),
(391,288,l),
(279,288,l),
(227,26,l),
(324,99,l),
(264,81,o),
(222,70,o),
(172,70,cs),
(115,70,o),
(115,109,o),
(122,143,cs),
(132,194,o),
(169,248,o),
(268,248,cs),
(443,248,l),
(459,328,l),
(267,328,ls),
(188,328,o),
(178,355,o),
(184,386,cs),
(192,423,o),
(221,462,o),
(288,462,cs),
(314,462,o),
(342,458,o),
(366,453,c)
);
}
);
width = 448;
}
);
unicode = 38;
}
{
glyphname = quotesingle;
layers = (
{
background = {
shapes = (
{
closed = 1;
nodes = (
(270,640,l),
(178,640,l),
(188,384,l),
(260,384,l)
);
}
);
};
hints = (
{
horizontal = 1;
origin = (0,1);
type = TTSnap;
},
{
horizontal = 1;
origin = (0,2);
type = TTSnap;
}
);
layerId = "95FB0C11-C828-4064-8966-34220AA4D426";
shapes = (
{
closed = 1;
nodes = (
(270,640,l),
(178,640,l),
(188,384,l),
(260,384,l)
);
}
);
width = 448;
},
{
background = {
shapes = (
{
closed = 1;
nodes = (
(290,640,l),
(158,640,l),
(168,384,l),
(280,384,l)
);
}
);
};
layerId = "92967D72-867E-4A8B-929F-F44D834DD4C9";
shapes = (
{
closed = 1;
nodes = (
(290,640,l),
(158,640,l),
(168,384,l),
(280,384,l)
);
}
);
width = 448;
},
{
layerId = "7DDCEF54-C770-4FAD-B154-EE8058BAA7E5";
shapes = (
{
closed = 1;
nodes = (
(258,640,l),
(190,640,l),
(200,384,l),
(248,384,l)
);
}
);
width = 448;
},
{
layerId = "C21910D5-47BB-472B-A83D-89B2B42B8F2A";
shapes = (
{
closed = 1;
nodes = (
(341,640,l),
(273,640,l),
(232,384,l),
(280,384,l)
);
}
);
width = 448;
},
{
layerId = "BA106321-29DE-4FD0-898D-B7B08A4D4215";
shapes = (
{
closed = 1;
nodes = (
(353,640,l),
(261,640,l),
(220,384,l),
(292,384,l)
);
}
);
width = 448;
},
{
layerId = "EBAB10B0-9FDE-44C7-9B16-DD2313400F4E";
shapes = (
{
closed = 1;
nodes = (
(373,640,l),
(241,640,l),
(200,384,l),
(312,384,l)
);
}
);
width = 448;
}
);
unicode = 39;
}
{
glyphname = plus;
layers = (
{
hints = (
{
horizontal = 1;
options = 4;
origin = (0,4);
target = (0,1);
type = TTShift;
},
{
horizontal = 1;
origin = (0,7);
type = TTSnap;
},
{
horizontal = 1;
options = 4;
origin = (0,7);
stem = 0;
target = (0,4);
type = TTStem;
},
{
horizontal = 1;
options = 4;
origin = (0,7);
target = (0,10);
type = TTShift;
},
{
horizontal = 1;
origin = (0,7);
stem = -1;
target = (0,8);
type = TTStem;
},
{
horizontal = 1;
origin = (0,4);
stem = -1;
target = (0,3);
type = TTStem;
}
);
layerId = "95FB0C11-C828-4064-8966-34220AA4D426";
shapes = (
{
closed = 1;
nodes = (
(429,320,l),
(258,320,l),
(258,493,l),
(190,493,l),
(190,320,l),
(19,320,l),
(19,256,l),
(190,256,l),
(190,78,l),
(258,78,l),
(258,256,l),
(429,256,l)
);
}
);
width = 448;
},
{
layerId = "92967D72-867E-4A8B-929F-F44D834DD4C9";
shapes = (
{
closed = 1;
nodes = (
(429,336,l),
(278,336,l),
(278,492,l),
(170,492,l),
(170,336,l),
(19,336,l),
(19,240,l),
(170,240,l),
(170,79,l),
(278,79,l),
(278,240,l),
(429,240,l)
);
}
);
width = 448;
},
{
layerId = "7DDCEF54-C770-4FAD-B154-EE8058BAA7E5";
shapes = (
{
closed = 1;
nodes = (
(429,308,l),
(246,308,l),
(246,494,l),
(202,494,l),
(202,308,l),
(19,308,l),
(19,268,l),
(202,268,l),
(202,77,l),
(246,77,l),
(246,268,l),
(429,268,l)
);
}
);
width = 448;
},
{
layerId = "C21910D5-47BB-472B-A83D-89B2B42B8F2A";
shapes = (
{
closed = 1;
nodes = (
(446,308,l),
(263,308,l),
(300,494,l),
(256,494,l),
(219,308,l),
(36,308,l),
(28,268,l),
(211,268,l),
(173,77,l),
(217,77,l),
(255,268,l),
(438,268,l)
);
}
);
width = 448;
},
{
layerId = "BA106321-29DE-4FD0-898D-B7B08A4D4215";
shapes = (
{
closed = 1;
nodes = (
(448,320,l),
(278,320,l),
(313,493,l),
(243,493,l),
(208,320,l),
(38,320,l),
(25,256,l),
(195,256,l),
(160,78,l),
(230,78,l),
(265,256,l),
(435,256,l)
);
}
);
width = 448;
},
{
layerId = "EBAB10B0-9FDE-44C7-9B16-DD2313400F4E";
shapes = (
{
closed = 1;
nodes = (
(451,336,l),
(300,336,l),
(332,492,l),
(224,492,l),
(192,336,l),
(41,336,l),
(22,240,l),
(173,240,l),
(141,79,l),
(249,79,l),
(281,240,l),
(432,240,l)
);
}
);
width = 448;
}
);
unicode = 43;
}
{
glyphname = comma;
layers = (
{
hints = (
{
horizontal = 1;
origin = (0,11);
stem = -1;
target = (0,5);
type = TTStem;
},
{
horizontal = 1;
origin = (0,11);
stem = -1;
target = (0,15);
type = TTStem;
},
{
horizontal = 1;
options = 4;
origin = (0,5);
other1 = (0,2);
target = (0,11);
type = TTInterpolate;
},
{
origin = (0,8);
type = TTSnap;
},
{
origin = (0,8);
stem = -1;
target = (0,2);
type = TTStem;
}
);
layerId = "95FB0C11-C828-4064-8966-34220AA4D426";
shapes = (
{
closed = 1;
nodes = (
(218,-94,o),
(258,-38,o),
(258,32,cs),
(258,95,o),
(227,118,o),
(190,118,cs),
(156,118,o),
(128,94,o),
(128,54,cs),
(128,18,o),
(150,-8,o),
(189,-10,c),
(183,-44,o),
(158,-69,o),
(134,-91,c),
(172,-133,l)
);
}
);
width = 448;
},
{
layerId = "92967D72-867E-4A8B-929F-F44D834DD4C9";
shapes = (
{
closed = 1;
nodes = (
(237,-93,o),
(275,-22,o),
(275,52,cs),
(275,129,o),
(233,153,o),
(191,153,cs),
(144,153,o),
(109,122,o),
(109,71,cs),
(109,23,o),
(138,-3,o),
(176,-9,c),
(168,-46,o),
(150,-81,o),
(131,-111,c),
(191,-149,l)
);
}
);
width = 448;
},
{
layerId = "7DDCEF54-C770-4FAD-B154-EE8058BAA7E5";
shapes = (
{
closed = 1;
nodes = (
(222,-81,o),
(248,-40,o),
(248,20,cs),
(248,71,o),
(223,95,o),
(189,95,cs),
(163,95,o),
(139,74,o),
(139,43,cs),
(139,15,o),
(157,-11,o),
(197,-11,c),
(192,-46,o),
(168,-71,o),
(140,-96,c),
(166,-126,l)
);
}
);
width = 448;
},
{
layerId = "C21910D5-47BB-472B-A83D-89B2B42B8F2A";
shapes = (
{
closed = 1;
nodes = (
(162,-82,o),
(195,-42,o),
(206,16,cs),
(217,69,o),
(195,95,o),
(160,95,cs),
(135,95,o),
(109,76,o),
(104,47,cs),
(98,17,o),
(112,-11,o),
(152,-9,c),
(138,-44,o),
(108,-70,o),
(75,-95,c),
(98,-127,l)
);
}
);
width = 448;
},
{
layerId = "BA106321-29DE-4FD0-898D-B7B08A4D4215";
shapes = (
{
closed = 1;
nodes = (
(156,-96,o),
(205,-41,o),
(218,26,cs),
(232,92,o),
(203,118,o),
(164,118,cs),
(132,118,o),
(103,97,o),
(95,60,cs),
(87,21,o),
(106,-8,o),
(145,-7,c),
(129,-41,o),
(98,-67,o),
(70,-89,c),
(103,-135,l)
);
}
);
width = 448;
},
{
layerId = "EBAB10B0-9FDE-44C7-9B16-DD2313400F4E";
shapes = (
{
closed = 1;
nodes = (
(175,-96,o),
(225,-26,o),
(239,43,cs),
(255,125,o),
(216,153,o),
(170,153,cs),
(127,153,o),
(89,126,o),
(80,80,cs),
(70,27,o),
(96,-2,o),
(133,-4,c),
(114,-42,o),
(88,-77,o),
(63,-107,c),
(119,-152,l)
);
}
);
width = 448;
}
);
unicode = 44;
}
{
glyphname = hyphen;
layers = (
{
hints = (
{
horizontal = 1;
options = 4;
origin = (0,2);
target = (0,1);
type = TTStem;
},
{
horizontal = 1;
origin = (0,2);
type = TTSnap;
},
{
origin = lsb;
other1 = (0,2);
target = rsb;
type = TTInterpolate;
},
{
origin = lsb;
other1 = (0,3);
target = rsb;
type = TTInterpolate;
}
);
layerId = "95FB0C11-C828-4064-8966-34220AA4D426";
shapes = (
{
closed = 1;
nodes = (
(364,320,l),
(84,320,l),
(84,256,l),
(364,256,l)
);
}
);
width = 448;
},
{
guides = (
{
pos = (467,240);
}
);
layerId = "92967D72-867E-4A8B-929F-F44D834DD4C9";
shapes = (
{
closed = 1;
nodes = (
(384,336,l),
(64,336,l),
(64,240,l),
(384,240,l)
);
}
);
width = 448;
},
{
layerId = "7DDCEF54-C770-4FAD-B154-EE8058BAA7E5";
shapes = (
{
closed = 1;
nodes = (
(352,310,l),
(96,310,l),
(96,266,l),
(352,266,l)
);
}
);
width = 448;
},
{
layerId = "C21910D5-47BB-472B-A83D-89B2B42B8F2A";
shapes = (
{
closed = 1;
nodes = (
(369,310,l),
(113,310,l),
(104,266,l),
(360,266,l)
);
}
);
width = 448;
},
{
layerId = "BA106321-29DE-4FD0-898D-B7B08A4D4215";
shapes = (
{
closed = 1;
nodes = (
(383,320,l),
(103,320,l),
(90,256,l),
(370,256,l)
);
}
);
width = 448;
},
{
layerId = "EBAB10B0-9FDE-44C7-9B16-DD2313400F4E";
shapes = (
{
closed = 1;
nodes = (
(406,336,l),
(86,336,l),
(67,240,l),
(387,240,l)
);
}
);
width = 448;
}
);
unicode = 45;
}
{
glyphname = slash;
layers = (
{
background = {
shapes = (
{
closed = 1;
nodes = (
(329,698,l),
(258,710,l),
(119,-57,l),
(190,-69,l)
);
}
);
};
hints = (
{
horizontal = 1;
origin = (0,3);
type = TTSnap;
},
{
horizontal = 1;
origin = (0,1);
type = TTSnap;
},
{
options = 8;
origin = (0,2);
type = TTSnap;
},
{
options = 8;
origin = (0,0);
type = TTSnap;
},
{
options = 4;
origin = (0,0);
target = (0,1);
type = TTStem;
},
{
options = 4;
origin = (0,2);
target = (0,3);
type = TTStem;
}
);
layerId = "95FB0C11-C828-4064-8966-34220AA4D426";
shapes = (
{
closed = 1;
nodes = (
(329,698,l),
(258,710,l),
(119,-57,l),
(190,-69,l)
);
}
);
width = 448;
},
{
background = {
shapes = (
{
closed = 1;
nodes = (
(349,698,l),
(238,710,l),
(99,-57,l),
(210,-69,l)
);
}
);
};
layerId = "92967D72-867E-4A8B-929F-F44D834DD4C9";
shapes = (
{
closed = 1;
nodes = (
(349,698,l),
(238,710,l),
(99,-57,l),
(210,-69,l)
);
}
);
width = 448;
},
{
layerId = "7DDCEF54-C770-4FAD-B154-EE8058BAA7E5";
shapes = (
{
closed = 1;
nodes = (
(318,700,l),
(270,708,l),
(130,-59,l),
(178,-67,l)
);
}
);
width = 448;
},
{
background = {
shapes = (
{
closed = 1;
nodes = (
(412,698,l),
(367,710,l),
(75,-57,l),
(120,-69,l)
);
}
);
};
layerId = "C21910D5-47BB-472B-A83D-89B2B42B8F2A";
shapes = (
{
closed = 1;
nodes = (
(413,700,l),
(366,708,l),
(73,-59,l),
(120,-67,l)
);
}
);
width = 448;
},
{
layerId = "BA106321-29DE-4FD0-898D-B7B08A4D4215";
shapes = (
{
closed = 1;
nodes = (
(424,698,l),
(355,710,l),
(62,-57,l),
(132,-69,l)
);
}
);
width = 448;
},
{
layerId = "EBAB10B0-9FDE-44C7-9B16-DD2313400F4E";
shapes = (
{
closed = 1;
nodes = (
(444,698,l),
(335,710,l),
(42,-57,l),
(152,-69,l)
);
}
);
width = 448;
}
);
unicode = 47;
}
{
glyphname = zero;
layers = (
{
background = {
shapes = (
{
alignment = -1;
pos = (128,512);
ref = pixel;
},
{
alignment = -1;
pos = (192,512);
ref = pixel;
},
{
alignment = -1;
pos = (256,512);
ref = pixel;
},
{
alignment = -1;
pos = (64,448);
ref = pixel;
},
{
alignment = -1;
pos = (320,448);
ref = pixel;
},
{
alignment = -1;
pos = (320,384);
ref = pixel;
},
{
alignment = -1;
pos = (320,320);
ref = pixel;
},
{
alignment = -1;
pos = (320,256);
ref = pixel;
},
{
alignment = -1;
pos = (320,192);
ref = pixel;
},
{
alignment = -1;
pos = (320,128);
ref = pixel;
},
{
alignment = -1;
pos = (320,64);
ref = pixel;
},
{
alignment = -1;
pos = (256,0);
ref = pixel;
},
{
alignment = -1;
pos = (192,0);
ref = pixel;
},
{
alignment = -1;
pos = (128,0);
ref = pixel;
},
{
alignment = -1;
pos = (64,64);
ref = pixel;
},
{
alignment = -1;
pos = (64,128);
ref = pixel;
},
{
alignment = -1;
pos = (64,192);
ref = pixel;
},
{
alignment = -1;
pos = (64,256);
ref = pixel;
},
{
alignment = -1;
pos = (64,320);
ref = pixel;
},
{
alignment = -1;
pos = (64,384);
ref = pixel;
},
{
alignment = -1;
pos = (256,192);
ref = pixel;
},
{
alignment = -1;
pos = (192,256);
ref = pixel;
},
{
alignment = -1;
pos = (128,320);
ref = pixel;
}
);
};
hints = (
{
horizontal = 1;
options = 4;
origin = (0,11);
target = (1,11);
type = TTStem;
},
{
horizontal = 1;
options = 4;
origin = (0,5);
target = (1,5);
type = TTStem;
},
{
options = 4;
origin = (0,8);
target = (1,2);
type = TTStem;
},
{
options = 4;
origin = (0,2);
target = (1,8);
type = TTStem;
},
{
options = 8;
origin = (0,8);
type = TTSnap;
},
{
options = 8;
origin = (0,2);
type = TTSnap;
},
{
horizontal = 1;
options = 4;
origin = (1,11);
other1 = (1,11,2,1);
target = (1,5);
type = TTInterpolate;
},
{
horizontal = 1;
options = 4;
origin = (1,11);
other1 = (1,11,2,3);
target = (1,5);
type = TTInterpolate;
},
{
horizontal = 1;
options = 4;
origin = (1,11);
other1 = (1,5,2,3);
target = (1,5);
type = TTInterpolate;
},
{
horizontal = 1;
options = 4;
origin = (1,11);
other1 = (1,5,2,1);
target = (1,5);
type = TTInterpolate;
},
{
options = 4;
origin = (1,2);
other1 = (1,11,2,3);
target = (1,8);
type = TTInterpolate;
},
{
options = 4;
origin = (1,2);
other1 = (1,5,2,1);
target = (1,8);
type = TTInterpolate;
}
);
layerId = "95FB0C11-C828-4064-8966-34220AA4D426";
shapes = (
{
closed = 1;
nodes = (
(350,-10,o),
(408,112,o),
(408,287,cs),
(408,469,o),
(350,586,o),
(224,586,cs),
(101,586,o),
(40,469,o),
(40,287,cs),
(40,112,o),
(101,-10,o),
(224,-10,cs)
);
},
{
closed = 1;
nodes = (
(146,56,o),
(114,128,o),
(114,287,cs),
(114,448,o),
(146,520,o),
(224,520,cs),
(302,520,o),
(334,448,o),
(334,287,cs),
(334,128,o),
(302,56,o),
(224,56,cs)
);
},
{
closed = 1;
nodes = (
(367,192,l),
(88,471,l),
(88,384,l),
(367,106,l)
);
}
);
width = 448;
},
{
layerId = "92967D72-867E-4A8B-929F-F44D834DD4C9";
shapes = (
{
closed = 1;
nodes = (
(357,-10,o),
(418,112,o),
(418,287,cs),
(418,469,o),
(357,586,o),
(224,586,cs),
(95,586,o),
(30,469,o),
(30,287,cs),
(30,112,o),
(95,-10,o),
(224,-10,cs)
);
},
{
closed = 1;
nodes = (
(167,72,o),
(146,139,o),
(146,287,cs),
(146,437,o),
(167,504,o),
(224,504,cs),
(281,504,o),
(302,437,o),
(302,287,cs),
(302,139,o),
(281,72,o),
(224,72,cs)
);
},
{
closed = 1;
nodes = (
(367,203,l),
(88,482,l),
(88,373,l),
(367,95,l)
);
}
);
width = 448;
},
{
layerId = "7DDCEF54-C770-4FAD-B154-EE8058BAA7E5";
shapes = (
{
closed = 1;
nodes = (
(346,-10,o),
(402,112,o),
(402,287,cs),
(402,469,o),
(346,586,o),
(224,586,cs),
(105,586,o),
(46,469,o),
(46,287,cs),
(46,112,o),
(105,-10,o),
(224,-10,cs)
);
},
{
closed = 1;
nodes = (
(135,32,o),
(98,122,o),
(98,287,cs),
(98,454,o),
(135,544,o),
(224,544,cs),
(313,544,o),
(350,454,o),
(350,287,cs),
(350,122,o),
(313,32,o),
(224,32,cs)
);
},
{
closed = 1;
nodes = (
(367,177,l),
(88,456,l),
(88,399,l),
(367,121,l)
);
}
);
width = 448;
},
{
layerId = "BA106321-29DE-4FD0-898D-B7B08A4D4215";
shapes = (
{
closed = 1;
nodes = (
(306,-10,o),
(385,109,o),
(419,281,cs),
(456,466,o),
(420,586,o),
(291,586,cs),
(171,586,o),
(90,472,o),
(54,293,cs),
(18,115,o),
(57,-10,o),
(182,-10,cs)
);
},
{
closed = 1;
nodes = (
(110,56,o),
(94,125,o),
(125,281,cs),
(158,445,o),
(208,520,o),
(288,520,cs),
(364,520,o),
(379,451,o),
(348,293,cs),
(315,131,o),
(266,56,o),
(185,56,cs)
);
},
{
closed = 1;
nodes = (
(361,187,l),
(137,466,l),
(120,389,l),
(343,111,l)
);
}
);
width = 448;
},
{
layerId = "EBAB10B0-9FDE-44C7-9B16-DD2313400F4E";
shapes = (
{
closed = 1;
nodes = (
(313,-10,o),
(395,108,o),
(429,278,cs),
(466,465,o),
(426,586,o),
(290,586,cs),
(164,586,o),
(80,473,o),
(44,296,cs),
(8,116,o),
(51,-10,o),
(184,-10,cs)
);
},
{
closed = 1;
nodes = (
(133,72,o),
(128,135,o),
(157,278,cs),
(188,433,o),
(226,504,o),
(286,504,cs),
(340,504,o),
(345,441,o),
(316,296,cs),
(286,143,o),
(247,72,o),
(187,72,cs)
);
},
{
closed = 1;
nodes = (
(363,197,l),
(140,476,l),
(118,379,l),
(341,101,l)
);
}
);
width = 448;
},
{
layerId = "C21910D5-47BB-472B-A83D-89B2B42B8F2A";
shapes = (
{
closed = 1;
nodes = (
(301,-10,o),
(379,110,o),
(414,283,cs),
(451,467,o),
(417,586,o),
(293,586,cs),
(176,586,o),
(95,471,o),
(59,291,cs),
(24,114,o),
(60,-10,o),
(181,-10,cs)
);
},
{
closed = 1;
nodes = (
(95,32,o),
(77,120,o),
(110,283,cs),
(144,452,o),
(201,544,o),
(291,544,cs),
(379,544,o),
(396,456,o),
(363,291,cs),
(330,124,o),
(273,32,o),
(182,32,cs)
);
},
{
closed = 1;
nodes = (
(358,174,l),
(134,453,l),
(123,402,l),
(346,124,l)
);
}
);
width = 448;
}
);
unicode = 48;
}
{
glyphname = one;
layers = (
{
background = {
shapes = (
{
closed = 1;
nodes = (
(64,0,l),
(404,0,l),
(404,64,l),
(64,64,l)
);
},
{
closed = 1;
nodes = (
(198,30,l),
(270,30,l),
(272,580,l),
(221,580,l),
(200,548,l)
);
},
{
closed = 1;
nodes = (
(54,439,l),
(97,386,l),
(264,534,l),
(221,580,l)
);
}
);
};
hints = (
{
horizontal = 1;
options = 4;
origin = (0,10);
target = (0,8);
type = TTStem;
},
{
horizontal = 1;
options = 4;
origin = (0,8);
target = (0,2);
type = TTShift;
},
{
horizontal = 1;
origin = (0,4);
type = TTSnap;
},
{
horizontal = 1;
options = 4;
origin = (0,10);
other1 = (0,7);
target = (0,4);
type = TTInterpolate;
},
{
options = 4;
origin = (0,8);
target = (0,2);
type = TTStem;
},
{
options = 4;
origin = (0,2);
other1 = (0,4);
target = (0,8);
type = TTInterpolate;
},
{
options = 8;
origin = (0,10);
type = TTSnap;
},
{
options = 8;
origin = (0,0);
type = TTSnap;
},
{
options = 8;
origin = (0,8);
type = TTSnap;
}
);
layerId = "95FB0C11-C828-4064-8966-34220AA4D426";
shapes = (
{
closed = 1;
nodes = (
(404,0,l),
(404,64,l),
(270,64,l),
(272,580,l),
(221,580,l),
(54,439,l),
(97,386,l),
(200,477,l),
(198,64,l),
(64,64,l),
(64,0,l)
);
}
);
width = 448;
},
{
background = {
shapes = (
{
closed = 1;
nodes = (
(54,0,l),
(414,0,l),
(414,80,l),
(54,80,l)
);
},
{
closed = 1;
nodes = (
(178,30,l),
(290,30,l),
(292,580,l),
(221,580,l),
(180,528,l)
);
},
{
closed = 1;
nodes = (
(34,439,l),
(86,373,l),
(264,509,l),
(221,580,l)
);
}
);
};
layerId = "92967D72-867E-4A8B-929F-F44D834DD4C9";
shapes = (
{
closed = 1;
nodes = (
(414,0,l),
(414,80,l),
(290,80,l),
(292,580,l),
(221,580,l),
(34,439,l),
(86,373,l),
(180,445,l),
(178,80,l),
(54,80,l),
(54,0,l)
);
}
);
width = 448;
},
{
background = {
shapes = (
{
closed = 1;
nodes = (
(70,0,l),
(398,0,l),
(398,54,l),
(70,54,l)
);
},
{
closed = 1;
nodes = (
(210,30,l),
(258,30,l),
(260,580,l),
(221,580,l),
(212,560,l)
);
},
{
closed = 1;
nodes = (
(66,439,l),
(104,394,l),
(264,549,l),
(221,580,l)
);
}
);
};
layerId = "7DDCEF54-C770-4FAD-B154-EE8058BAA7E5";
shapes = (
{
closed = 1;
nodes = (
(398,0,l),
(398,42,l),
(258,42,l),
(260,580,l),
(221,580,l),
(66,439,l),
(93,407,l),
(212,516,l),
(210,42,l),
(70,42,l),
(70,0,l)
);
}
);
width = 448;
},
{
layerId = "C21910D5-47BB-472B-A83D-89B2B42B8F2A";
shapes = (
{
closed = 1;
nodes = (
(353,0,l),
(362,42,l),
(221,42,l),
(331,580,l),
(292,580,l),
(109,439,l),
(131,407,l),
(270,515,l),
(173,42,l),
(34,42,l),
(25,0,l)
);
}
);
width = 448;
},
{
layerId = "BA106321-29DE-4FD0-898D-B7B08A4D4215";
shapes = (
{
closed = 1;
nodes = (
(359,0,l),
(372,64,l),
(238,64,l),
(343,580,l),
(291,580,l),
(97,439,l),
(131,386,l),
(249,476,l),
(166,64,l),
(32,64,l),
(19,0,l)
);
}
);
width = 448;
},
{
layerId = "EBAB10B0-9FDE-44C7-9B16-DD2313400F4E";
shapes = (
{
closed = 1;
nodes = (
(369,0,l),
(385,80,l),
(261,80,l),
(363,580,l),
(291,580,l),
(77,439,l),
(118,373,l),
(223,443,l),
(149,80,l),
(25,80,l),
(9,0,l)
);
}
);
width = 448;
}
);
unicode = 49;
}
{
glyphname = two;
layers = (
{
background = {
shapes = (
{
closed = 1;
nodes = (
(82,498,l),
(124,507,o),
(157,512,o),
(200,512,cs),
(291,512,o),
(320,482,o),
(320,402,cs),
(320,330,o),
(290,301,o),
(214,271,c),
(144,245,o),
(67,209,o),
(61,82,cs),
(57,0,l),
(388,0,l),
(388,64,l),
(134,64,l),
(135,85,ls),
(138,147,o),
(161,177,o),
(250,214,cs),
(335,249,o),
(396,291,o),
(396,408,cs),
(396,534,o),
(312,576,o),
(205,576,cs),
(151,576,o),
(106,570,o),
(68,560,c)
);
}
);
};
hints = (
{
horizontal = 1;
options = 4;
origin = (0,26);
target = (0,3);
type = TTStem;
},
{
horizontal = 1;
options = 4;
origin = (0,13);
target = (0,16);
type = TTStem;
},
{
horizontal = 1;
options = 4;
origin = (0,3);
other1 = (0,20);
target = (0,13);
type = TTInterpolate;
},
{
horizontal = 1;
options = 4;
origin = (0,26);
other1 = (0,9);
target = (0,16);
type = TTInterpolate;
},
{
options = 4;
origin = (0,13);
target = (0,29);
type = TTShift;
},
{
origin = (0,14);
target = (0,23);
type = TTShift;
},
{
options = 4;
origin = (0,23);
target = (0,6);
type = TTStem;
},
{
options = 4;
origin = (0,13);
target = (0,16);
type = TTStem;
},
{
options = 8;
origin = (0,13);
type = TTSnap;
},
{
options = 8;
origin = (0,14);
type = TTSnap;
}
);
layerId = "95FB0C11-C828-4064-8966-34220AA4D426";
shapes = (
{
closed = 1;
nodes = (
(82,498,l),
(124,507,o),
(157,512,o),
(200,512,cs),
(291,512,o),
(320,482,o),
(320,402,cs),
(320,330,o),
(290,301,o),
(214,271,cs),
(144,243,o),
(67,209,o),
(61,82,cs),
(57,0,l),
(388,0,l),
(388,64,l),
(134,64,l),
(135,85,ls),
(138,147,o),
(161,177,o),
(250,214,cs),
(335,249,o),
(396,291,o),
(396,408,cs),
(396,534,o),
(312,576,o),
(205,576,cs),
(151,576,o),
(106,570,o),
(68,560,c)
);
}
);
width = 448;
},
{
background = {
shapes = (
{
closed = 1;
nodes = (
(72,482,l),
(110,491,o),
(141,496,o),
(180,496,cs),
(263,496,o),
(290,469,o),
(290,397,cs),
(290,333,o),
(263,307,o),
(195,280,cs),
(129,253,o),
(55,218,o),
(50,85,cs),
(47,0,l),
(398,0,l),
(398,80,l),
(165,80,l),
(165,85,ls),
(165,143,o),
(189,170,o),
(270,206,cs),
(349,241,o),
(406,285,o),
(406,404,cs),
(406,533,o),
(317,576,o),
(203,576,cs),
(146,576,o),
(98,567,o),
(58,556,c)
);
}
);
};
layerId = "92967D72-867E-4A8B-929F-F44D834DD4C9";
shapes = (
{
closed = 1;
nodes = (
(72,482,l),
(110,491,o),
(141,496,o),
(180,496,cs),
(263,496,o),
(290,469,o),
(290,397,cs),
(290,333,o),
(263,307,o),
(195,280,cs),
(129,254,o),
(55,218,o),
(50,85,cs),
(47,0,l),
(398,0,l),
(398,80,l),
(165,80,l),
(165,85,ls),
(165,143,o),
(189,170,o),
(270,206,cs),
(349,241,o),
(406,285,o),
(406,404,cs),
(406,533,o),
(317,576,o),
(203,576,cs),
(146,576,o),
(98,567,o),
(58,556,c)
);
}
);
width = 448;
},
{
layerId = "7DDCEF54-C770-4FAD-B154-EE8058BAA7E5";
shapes = (
{
closed = 1;
nodes = (
(88,519,l),
(129,528,o),
(167,532,o),
(207,532,cs),
(298,532,o),
(338,493,o),
(338,407,cs),
(338,327,o),
(306,302,o),
(225,266,cs),
(155,235,o),
(73,198,o),
(67,80,cs),
(63,0,l),
(382,0,l),
(382,44,l),
(116,44,l),
(118,80,ls),
(121,142,o),
(147,184,o),
(238,221,cs),
(327,257,o),
(390,295,o),
(390,410,cs),
(390,535,o),
(309,576,o),
(206,576,cs),
(159,576,o),
(111,567,o),
(79,558,c)
);
}
);
width = 448;
},
{
background = {
shapes = (
{
closed = 1;
nodes = (
(147,508,l),
(192,517,o),
(228,522,o),
(275,522,cs),
(369,522,o),
(392,492,o),
(375,409,cs),
(359,330,o),
(319,298,o),
(230,267,c),
(155,241,o),
(70,206,o),
(39,82,cs),
(18,0,l),
(337,0,l),
(348,54,l),
(81,54,l),
(89,83,ls),
(107,147,o),
(137,180,o),
(240,218,cs),
(334,253,o),
(404,293,o),
(426,406,cs),
(452,533,o),
(378,576,o),
(273,576,cs),
(223,576,o),
(179,572,o),
(140,562,c)
);
}
);
};
layerId = "C21910D5-47BB-472B-A83D-89B2B42B8F2A";
shapes = (
{
closed = 1;
nodes = (
(149,519,l),
(191,528,o),
(230,532,o),
(272,532,cs),
(361,532,o),
(391,495,o),
(375,411,cs),
(359,329,o),
(320,303,o),
(231,268,cs),
(155,238,o),
(67,200,o),
(38,82,cs),
(18,0,l),
(337,0,l),
(346,44,l),
(80,44,l),
(89,78,ls),
(105,139,o),
(140,182,o),
(240,220,cs),
(335,256,o),
(404,293,o),
(426,406,cs),
(451,533,o),
(378,576,o),
(273,576,cs),
(228,576,o),
(178,568,o),
(144,559,c)
);
}
);
width = 448;
},
{
background = {
shapes = (
{
closed = 1;
nodes = (
(140,497,l),
(183,506,o),
(217,512,o),
(263,512,cs),
(351,512,o),
(372,485,o),
(357,408,cs),
(342,333,o),
(303,302,o),
(219,273,c),
(146,246,o),
(64,212,o),
(33,85,cs),
(12,0,l),
(343,0,l),
(356,64,l),
(102,64,l),
(107,82,ls),
(122,144,o),
(154,176,o),
(252,212,cs),
(342,248,o),
(409,288,o),
(432,402,cs),
(457,531,o),
(380,576,o),
(270,576,cs),
(219,576,o),
(173,571,o),
(133,561,c)
);
}
);
};
layerId = "BA106321-29DE-4FD0-898D-B7B08A4D4215";
shapes = (
{
closed = 1;
nodes = (
(140,497,l),
(183,506,o),
(217,512,o),
(263,512,cs),
(351,512,o),
(372,485,o),
(357,408,cs),
(342,333,o),
(303,302,o),
(219,273,c),
(146,246,o),
(64,212,o),
(33,85,cs),
(12,0,l),
(343,0,l),
(356,64,l),
(102,64,l),
(107,82,ls),
(122,144,o),
(154,176,o),
(252,212,cs),
(342,248,o),
(409,288,o),
(432,402,cs),
(457,531,o),
(380,576,o),
(270,576,cs),
(219,576,o),
(173,571,o),
(133,561,c)
);
}
);
width = 448;
},
{
layerId = "EBAB10B0-9FDE-44C7-9B16-DD2313400F4E";
shapes = (
{
closed = 1;
nodes = (
(127,481,l),
(166,490,o),
(199,496,o),
(241,496,cs),
(321,496,o),
(340,473,o),
(326,406,cs),
(313,337,o),
(277,309,o),
(201,283,cs),
(132,255,o),
(55,222,o),
(23,89,cs),
(2,0,l),
(353,0,l),
(369,80,l),
(136,80,l),
(136,81,ls),
(148,139,o),
(181,168,o),
(271,202,cs),
(355,239,o),
(417,281,o),
(440,395,cs),
(467,529,o),
(384,576,o),
(267,576,cs),
(213,576,o),
(164,568,o),
(122,557,c)
);
}
);
width = 448;
}
);
unicode = 50;
}
{
glyphname = three;
layers = (
{
hints = (
{
horizontal = 1;
options = 4;
origin = (0,7);
target = (0,6);
type = TTStem;
},
{
horizontal = 1;
options = 4;
origin = (1,16);
target = (1,3);
type = TTStem;
},
{
horizontal = 1;
origin = (0,7);
other1 = (0,0);
target = (1,16);
type = TTInterpolate;
},
{
horizontal = 1;
options = 4;
origin = (0,0);
target = (0,13);
type = TTStem;
},
{
horizontal = 1;
options = 4;
origin = (0,7);
other1 = (0,13,1,13);
target = (0,13);
type = TTInterpolate;
},
{
options = 4;
origin = (0,10);
target = (0,3);
type = TTStem;
},
{
options = 4;
origin = (1,13);
target = (1,6);
type = TTStem;
},
{
options = 8;
origin = (0,6);
type = TTSnap;
},
{
options = 4;
origin = (0,6);
target = (1,19);
type = TTShift;
},
{
options = 8;
origin = (0,10);
type = TTSnap;
},
{
origin = (0,10);
target = (1,13);
type = TTShift;
}
);
layerId = "95FB0C11-C828-4064-8966-34220AA4D426";
shapes = (
{
closed = 1;
nodes = (
(122,266,l),
(273,249,o),
(315,223,o),
(315,167,cs),
(315,112,o),
(283,79,o),
(56,57,c),
(62,-9,l),
(281,6,o),
(391,53,o),
(391,166,cs),
(391,265,o),
(300,314,o),
(129,329,c)
);
},
{
closed = 1;
nodes = (
(96,512,l),
(123,516,o),
(148,519,o),
(173,519,cs),
(288,519,o),
(300,471,o),
(300,432,cs),
(300,384,o),
(281,336,o),
(254,291,c),
(316,267,l),
(346,316,o),
(374,376,o),
(374,440,cs),
(374,536,o),
(311,582,o),
(188,582,cs),
(153,582,o),
(111,577,o),
(87,572,c)
);
}
);
width = 448;
},
{
layerId = "92967D72-867E-4A8B-929F-F44D834DD4C9";
shapes = (
{
closed = 1;
nodes = (
(102,258,l),
(253,243,o),
(295,219,o),
(295,168,cs),
(295,122,o),
(263,92,o),
(36,73,c),
(42,-9,l),
(288,6,o),
(411,55,o),
(411,173,cs),
(411,273,o),
(306,322,o),
(109,337,c)
);
},
{
closed = 1;
nodes = (
(76,496,l),
(103,500,o),
(128,503,o),
(153,503,cs),
(268,503,o),
(280,458,o),
(280,422,cs),
(280,377,o),
(265,333,o),
(244,293,c),
(326,262,l),
(361,312,o),
(394,374,o),
(394,440,cs),
(394,536,o),
(322,582,o),
(182,582,cs),
(142,582,o),
(94,575,o),
(67,569,c)
);
}
);
width = 448;
},
{
layerId = "7DDCEF54-C770-4FAD-B154-EE8058BAA7E5";
shapes = (
{
closed = 1;
nodes = (
(136,277,l),
(285,258,o),
(327,226,o),
(327,166,cs),
(327,98,o),
(278,51,o),
(70,33,c),
(74,-9,l),
(275,8,o),
(379,55,o),
(379,162,cs),
(379,260,o),
(296,301,o),
(141,318,c)
);
},
{
closed = 1;
nodes = (
(107,533,l),
(132,537,o),
(162,540,o),
(187,540,cs),
(293,540,o),
(312,488,o),
(312,439,cs),
(312,390,o),
(298,339,o),
(264,290,c),
(304,270,l),
(338,321,o),
(362,373,o),
(362,436,cs),
(362,536,o),
(304,582,o),
(192,582,cs),
(159,582,o),
(120,576,o),
(101,572,c)
);
}
);
width = 448;
},
{
layerId = "C21910D5-47BB-472B-A83D-89B2B42B8F2A";
shapes = (
{
closed = 1;
nodes = (
(148,277,l),
(294,258,o),
(328,228,o),
(316,170,cs),
(302,100,o),
(242,51,o),
(30,33,c),
(29,-9,l),
(233,8,o),
(345,53,o),
(366,158,cs),
(386,258,o),
(310,301,o),
(158,318,c)
);
},
{
closed = 1;
nodes = (
(171,533,l),
(196,537,o),
(227,540,o),
(254,540,cs),
(358,540,o),
(365,490,o),
(356,443,cs),
(346,392,o),
(320,341,o),
(277,292,c),
(314,268,l),
(358,319,o),
(391,371,o),
(404,432,cs),
(424,534,o),
(374,582,o),
(260,582,cs),
(229,582,o),
(189,576,o),
(169,572,c)
);
}
);
width = 448;
},
{
layerId = "BA106321-29DE-4FD0-898D-B7B08A4D4215";
shapes = (
{
closed = 1;
nodes = (
(133,266,l),
(281,249,o),
(315,226,o),
(305,173,cs),
(293,115,o),
(252,79,o),
(20,57,c),
(18,-9,l),
(240,6,o),
(356,50,o),
(378,160,cs),
(399,262,o),
(315,314,o),
(147,329,c)
);
},
{
closed = 1;
nodes = (
(156,512,l),
(184,516,o),
(210,519,o),
(237,519,cs),
(350,519,o),
(350,474,o),
(343,438,cs),
(333,387,o),
(303,338,o),
(267,293,c),
(326,265,l),
(365,314,o),
(404,373,o),
(416,434,cs),
(436,533,o),
(380,582,o),
(255,582,cs),
(222,582,o),
(179,578,o),
(154,573,c)
);
}
);
width = 448;
},
{
layerId = "EBAB10B0-9FDE-44C7-9B16-DD2313400F4E";
shapes = (
{
closed = 1;
nodes = (
(112,258,l),
(260,243,o),
(295,223,o),
(286,177,cs),
(275,126,o),
(234,92,o),
(3,73,c),
(-1,-9,l),
(247,6,o),
(376,51,o),
(399,164,cs),
(420,269,o),
(322,322,o),
(128,337,c)
);
},
{
closed = 1;
nodes = (
(134,495,l),
(161,499,o),
(187,503,o),
(215,503,cs),
(327,503,o),
(328,462,o),
(321,431,cs),
(311,381,o),
(286,337,o),
(257,297,c),
(335,258,l),
(380,308,o),
(423,370,o),
(435,431,cs),
(456,532,o),
(390,582,o),
(247,582,cs),
(210,582,o),
(161,576,o),
(133,570,c)
);
}
);
width = 448;
}
);
unicode = 51;
}
{
glyphname = five;
layers = (
{
background = {
shapes = (
{
closed = 1;
nodes = (
(53,22,l),
(107,8,o),
(155,0,o),
(213,0,cs),
(320,0,o),
(396,43,o),
(396,168,cs),
(396,285,o),
(320,325,o),
(236,325,cs),
(192,325,o),
(161,320,o),
(138,315,c),
(140,262,l),
(153,571,l),
(140,512,l),
(374,512,l),
(374,576,l),
(81,576,l),
(68,271,l),
(92,248,l),
(140,256,o),
(175,261,o),
(216,261,cs),
(297,261,o),
(320,236,o),
(320,164,cs),
(320,94,o),
(288,64,o),
(209,64,cs),
(164,64,o),
(123,71,o),
(68,84,c)
);
}
);
};
hints = (
{
horizontal = 1;
options = 4;
origin = (0,3);
target = (0,29);
type = TTStem;
},
{
horizontal = 1;
options = 4;
origin = (0,23);
target = (0,9);
type = TTStem;
},
{
options = 4;
origin = (0,6);
target = (0,26);
type = TTStem;
},
{
options = 4;
origin = (0,6);
target = (0,17);
type = TTShift;
},
{
options = 4;
origin = (0,19);
target = (0,12,0,14);
type = TTStem;
},
{
options = 4;
origin = (0,19);
target = (0,0);
type = TTShift;
},
{
origin = (0,19);
target = (0,18);
type = TTShift;
},
{
options = 4;
origin = (0,18);
target = (0,14,0,16);
type = TTStem;
},
{
options = 8;
origin = (0,19);
type = TTSnap;
},
{
options = 8;
origin = (0,6);
type = TTSnap;
},
{
horizontal = 1;
options = 4;
origin = (0,17);
stem = 0;
target = (0,16);
type = TTStem;
},
{
horizontal = 1;
options = 8;
origin = (0,3);
other1 = (0,23);
target = (0,17);
type = TTInterpolate;
}
);
layerId = "95FB0C11-C828-4064-8966-34220AA4D426";
shapes = (
{
closed = 1;
nodes = (
(53,22,l),
(107,8,o),
(155,0,o),
(213,0,cs),
(320,0,o),
(396,43,o),
(396,168,cs),
(396,285,o),
(320,325,o),
(236,325,cs),
(192,325,o),
(161,320,o),
(138,315,c),
(140,262,l),
(153,571,l),
(140,512,l),
(374,512,l),
(374,576,l),
(81,576,l),
(68,271,l),
(92,248,l),
(140,256,o),
(175,261,o),
(216,261,cs),
(297,261,o),
(320,236,o),
(320,164,cs),
(320,94,o),
(288,64,o),
(209,64,cs),
(164,64,o),
(123,71,o),
(68,84,c)
);
}
);
width = 448;
},
{
background = {
shapes = (
{
closed = 1;
nodes = (
(43,27,l),
(99,9,o),
(151,0,o),
(212,0,cs),
(326,0,o),
(406,44,o),
(406,175,cs),
(406,292,o),
(327,333,o),
(236,333,cs),
(194,333,o),
(162,329,o),
(138,323,c),
(170,270,l),
(183,571,l),
(140,496,l),
(384,496,l),
(384,576,l),
(71,576,l),
(58,271,l),
(106,240,l),
(145,248,o),
(173,253,o),
(206,253,cs),
(271,253,o),
(290,231,o),
(290,172,cs),
(290,106,o),
(260,80,o),
(187,80,cs),
(146,80,o),
(101,89,o),
(61,99,c)
);
}
);
};
layerId = "92967D72-867E-4A8B-929F-F44D834DD4C9";
shapes = (
{
closed = 1;
nodes = (
(43,27,l),
(99,9,o),
(151,0,o),
(212,0,cs),
(326,0,o),
(406,44,o),
(406,175,cs),
(406,292,o),
(327,333,o),
(236,333,cs),
(194,333,o),
(162,329,o),
(138,323,c),
(170,270,l),
(183,571,l),
(140,496,l),
(384,496,l),
(384,576,l),
(71,576,l),
(58,271,l),
(106,240,l),
(145,248,o),
(173,253,o),
(206,253,cs),
(271,253,o),
(290,231,o),
(290,172,cs),
(290,106,o),
(260,80,o),
(187,80,cs),
(146,80,o),
(101,89,o),
(61,99,c)
);
}
);
width = 448;
},
{
layerId = "7DDCEF54-C770-4FAD-B154-EE8058BAA7E5";
shapes = (
{
closed = 1;
nodes = (
(60,21,l),
(109,8,o),
(154,0,o),
(210,0,cs),
(315,0,o),
(390,48,o),
(390,160,cs),
(390,281,o),
(313,315,o),
(221,315,cs),
(177,315,o),
(140,307,o),
(111,300,c),
(123,271,l),
(135,571,l),
(122,532,l),
(368,532,l),
(368,576,l),
(87,576,l),
(74,271,l),
(87,256,l),
(137,265,o),
(174,271,o),
(217,271,cs),
(300,271,o),
(338,239,o),
(338,161,cs),
(338,80,o),
(301,44,o),
(209,44,cs),
(165,44,o),
(129,49,o),
(69,62,c)
);
}
);
width = 448;
},
{
layerId = "C21910D5-47BB-472B-A83D-89B2B42B8F2A";
shapes = (
{
closed = 1;
nodes = (
(21,21,l),
(68,8,o),
(111,0,o),
(169,0,cs),
(272,0,o),
(354,46,o),
(376,156,cs),
(401,279,o),
(329,315,o),
(236,315,cs),
(193,315,o),
(155,307,o),
(125,300,c),
(133,271,l),
(204,571,l),
(183,532,l),
(430,532,l),
(438,576,l),
(157,576,l),
(84,271,l),
(96,256,l),
(147,265,o),
(185,271,o),
(230,271,cs),
(311,271,o),
(341,241,o),
(326,165,cs),
(310,82,o),
(263,44,o),
(170,44,cs),
(127,44,o),
(92,49,o),
(35,62,c)
);
}
);
width = 448;
},
{
layerId = "BA106321-29DE-4FD0-898D-B7B08A4D4215";
shapes = (
{
closed = 1;
nodes = (
(15,23,l),
(66,9,o),
(113,0,o),
(173,0,cs),
(278,0,o),
(359,40,o),
(384,162,cs),
(408,282,o),
(338,325,o),
(251,325,cs),
(210,325,o),
(178,321,o),
(154,316,c),
(148,262,l),
(222,571,l),
(197,512,l),
(432,512,l),
(444,576,l),
(151,576,l),
(78,271,l),
(100,248,l),
(149,256,o),
(185,261,o),
(228,261,cs),
(307,261,o),
(323,239,o),
(309,170,cs),
(295,97,o),
(253,64,o),
(172,64,cs),
(129,64,o),
(90,70,o),
(37,83,c)
);
}
);
width = 448;
},
{
layerId = "EBAB10B0-9FDE-44C7-9B16-DD2313400F4E";
shapes = (
{
closed = 1;
nodes = (
(6,28,l),
(59,10,o),
(109,0,o),
(174,0,cs),
(284,0,o),
(369,40,o),
(394,166,cs),
(419,288,o),
(346,333,o),
(251,333,cs),
(213,333,o),
(180,330,o),
(155,324,c),
(181,270,l),
(251,571,l),
(193,496,l),
(438,496,l),
(454,576,l),
(141,576,l),
(68,271,l),
(113,239,l),
(153,247,o),
(182,253,o),
(218,253,cs),
(280,253,o),
(292,235,o),
(281,181,cs),
(267,110,o),
(228,80,o),
(152,80,cs),
(114,80,o),
(71,88,o),
(33,98,c)
);
}
);
width = 448;
}
);
unicode = 53;
}
{
glyphname = eight;
layers = (
{
hints = (
{
horizontal = 1;
options = 4;
origin = (0,49);
target = (0,36);
type = TTStem;
},
{
horizontal = 1;
options = 4;
origin = (0,24);
target = (0,11);
type = TTStem;
},
{
horizontal = 1;
options = 4;
origin = (0,49);
other1 = (0,42);
target = (0,11);
type = TTInterpolate;
},
{
horizontal = 1;
options = 4;
origin = (0,36);
other1 = (0,17);
target = (0,24);
type = TTInterpolate;
},
{
horizontal = 1;
options = 4;
origin = (0,24);
other1 = (0,43);
target = (0,42);
type = TTInterpolate;
},
{
horizontal = 1;
options = 4;
origin = (0,49);
other1 = (0,18);
target = (0,17);
type = TTInterpolate;
},
{
options = 8;
origin = (0,46);
type = TTSnap;
},
{
options = 8;
origin = (0,2);
type = TTSnap;
},
{
options = 4;
origin = (0,46);
target = (0,39);
type = TTStem;
},
{
options = 4;
origin = (0,2);
target = (0,33);
type = TTStem;
},
{
options = 8;
origin = (0,46);
target = (0,27);
type = TTShift;
},
{
options = 4;
origin = (0,27);
target = (0,8);
type = TTStem;
},
{
options = 8;
origin = (0,2);
target = (0,21);
type = TTShift;
},
{
options = 4;
origin = (0,21);
target = (0,14);
type = TTStem;
}
);
layerId = "95FB0C11-C828-4064-8966-34220AA4D426";
shapes = (
{
closed = 1;
nodes = (
(346,-11,o),
(415,60,o),
(415,137,cs),
(415,214,o),
(363,254,o),
(264,301,cs),
(148,356,o),
(132,389,o),
(132,434,cs),
(132,477,o),
(155,522,o),
(224,522,cs),
(290,522,o),
(316,478,o),
(316,429,cs),
(316,384,o),
(300,340,o),
(249,298,c),
(304,270,l),
(367,316,o),
(390,377,o),
(390,427,cs),
(390,525,o),
(320,586,o),
(224,586,cs),
(128,586,o),
(58,523,o),
(58,435,cs),
(58,372,o),
(89,315,o),
(211,256,cs),
(320,203,o),
(341,176,o),
(341,137,cs),
(341,101,o),
(309,53,o),
(224,53,cs),
(140,53,o),
(108,101,o),
(108,152,cs),
(108,196,o),
(121,242,o),
(188,280,c),
(133,312,l),
(78,277,o),
(34,223,o),
(34,152,cs),
(34,60,o),
(101,-11,o),
(224,-11,cs)
);
}
);
width = 448;
},
{
layerId = "92967D72-867E-4A8B-929F-F44D834DD4C9";
shapes = (
{
closed = 1;
nodes = (
(352,-11,o),
(425,62,o),
(425,141,cs),
(425,220,o),
(378,264,o),
(285,309,cs),
(178,361,o),
(162,387,o),
(162,429,cs),
(162,466,o),
(177,506,o),
(224,506,cs),
(268,506,o),
(286,465,o),
(286,425,cs),
(286,380,o),
(274,342,o),
(237,305,c),
(316,263,l),
(378,311,o),
(400,375,o),
(400,427,cs),
(400,525,o),
(326,586,o),
(224,586,cs),
(122,586,o),
(48,521,o),
(48,431,cs),
(48,367,o),
(75,305,o),
(190,248,cs),
(290,198,o),
(311,177,o),
(311,142,cs),
(311,111,o),
(287,69,o),
(224,69,cs),
(161,69,o),
(136,114,o),
(136,159,cs),
(136,200,o),
(145,240,o),
(197,273,c),
(124,320,l),
(67,283,o),
(22,227,o),
(22,152,cs),
(22,60,o),
(94,-11,o),
(224,-11,cs)
);
}
);
width = 448;
},
{
layerId = "7DDCEF54-C770-4FAD-B154-EE8058BAA7E5";
shapes = (
{
closed = 1;
nodes = (
(342,-11,o),
(409,59,o),
(409,133,cs),
(409,210,o),
(353,249,o),
(260,293,cs),
(128,355,o),
(114,396,o),
(114,442,cs),
(114,491,o),
(142,542,o),
(222,542,cs),
(299,542,o),
(334,490,o),
(334,436,cs),
(334,388,o),
(316,338,o),
(256,290,c),
(276,266,l),
(354,313,o),
(384,375,o),
(384,431,cs),
(384,525,o),
(316,586,o),
(224,586,cs),
(132,586,o),
(64,524,o),
(64,440,cs),
(64,375,o),
(98,323,o),
(216,264,cs),
(337,204,o),
(359,178,o),
(359,134,cs),
(359,85,o),
(322,33,o),
(224,33,cs),
(130,33,o),
(88,83,o),
(88,149,cs),
(88,195,o),
(103,245,o),
(181,286,c),
(164,317,l),
(92,280,o),
(38,224,o),
(38,147,cs),
(38,59,o),
(104,-11,o),
(224,-11,cs)
);
}
);
width = 448;
},
{
layerId = "C21910D5-47BB-472B-A83D-89B2B42B8F2A";
shapes = (
{
closed = 1;
nodes = (
(295,-11,o),
(376,59,o),
(391,133,cs),
(406,210,o),
(358,249,o),
(274,293,cs),
(154,355,o),
(148,396,o),
(158,442,cs),
(167,491,o),
(206,542,o),
(286,542,cs),
(363,542,o),
(387,490,o),
(376,436,cs),
(367,388,o),
(339,338,o),
(269,290,c),
(284,266,l),
(372,313,o),
(414,375,o),
(425,431,cs),
(444,525,o),
(388,586,o),
(296,586,cs),
(204,586,o),
(124,524,o),
(107,440,cs),
(94,375,o),
(118,323,o),
(224,264,cs),
(333,204,o),
(350,178,o),
(341,134,cs),
(331,85,o),
(284,33,o),
(186,33,cs),
(92,33,o),
(60,83,o),
(73,149,cs),
(82,195,o),
(107,245,o),
(193,286,c),
(183,317,l),
(103,280,o),
(38,224,o),
(23,147,cs),
(5,59,o),
(57,-11,o),
(177,-11,cs)
);
}
);
width = 448;
},
{
layerId = "BA106321-29DE-4FD0-898D-B7B08A4D4215";
shapes = (
{
closed = 1;
nodes = (
(296,-11,o),
(383,63,o),
(399,143,cs),
(414,217,o),
(372,255,o),
(284,303,cs),
(177,357,o),
(166,392,o),
(175,440,cs),
(183,480,o),
(212,522,o),
(279,522,cs),
(347,522,o),
(366,475,o),
(356,423,cs),
(347,381,o),
(325,338,o),
(265,296,c),
(311,272,l),
(384,318,o),
(421,380,o),
(432,433,cs),
(451,528,o),
(395,586,o),
(301,586,cs),
(203,586,o),
(117,520,o),
(99,429,cs),
(87,369,o),
(105,314,o),
(212,253,cs),
(313,202,o),
(331,173,o),
(322,131,cs),
(316,98,o),
(277,53,o),
(195,53,cs),
(107,53,o),
(82,104,o),
(93,158,cs),
(101,199,o),
(121,243,o),
(198,281,c),
(152,311,l),
(88,276,o),
(31,220,o),
(16,146,cs),
(-1,57,o),
(50,-11,o),
(172,-11,cs)
);
}
);
width = 448;
},
{
layerId = "EBAB10B0-9FDE-44C7-9B16-DD2313400F4E";
shapes = (
{
closed = 1;
nodes = (
(302,-11,o),
(393,66,o),
(410,150,cs),
(425,224,o),
(389,266,o),
(308,313,cs),
(209,363,o),
(195,391,o),
(205,438,cs),
(211,470,o),
(230,506,o),
(274,506,cs),
(321,506,o),
(333,461,o),
(324,416,cs),
(316,376,o),
(299,339,o),
(254,302,c),
(322,266,l),
(393,314,o),
(431,379,o),
(442,436,cs),
(461,529,o),
(402,586,o),
(303,586,cs),
(198,586,o),
(107,517,o),
(88,422,cs),
(76,363,o),
(88,303,o),
(188,244,cs),
(282,196,o),
(301,173,o),
(293,133,cs),
(288,107,o),
(259,69,o),
(199,69,cs),
(133,69,o),
(115,118,o),
(125,168,cs),
(132,204,o),
(146,242,o),
(205,275,c),
(145,318,l),
(81,281,o),
(22,223,o),
(6,143,cs),
(-12,56,o),
(44,-11,o),
(171,-11,cs)
);
}
);
width = 448;
}
);
unicode = 56;
}
{
glyphname = colon;
layers = (
{
hints = (
{
horizontal = 1;
origin = (0,5);
stem = -1;
target = (0,11);
type = TTStem;
},
{
horizontal = 1;
origin = (1,11);
stem = -1;
target = (1,5);
type = TTStem;
},
{
origin = (0,8);
stem = -1;
target = (0,2);
type = TTStem;
},
{
options = 4;
origin = (0,2);
target = (1,2);
type = TTShift;
},
{
origin = (1,8);
type = TTSnap;
},
{
options = 4;
origin = (1,8);
target = (0,8);
type = TTShift;
}
);
layerId = "95FB0C11-C828-4064-8966-34220AA4D426";
shapes = (
{
closed = 1;
nodes = (
(227,330,o),
(256,352,o),
(256,394,cs),
(256,435,o),
(227,458,o),
(192,458,cs),
(157,458,o),
(128,435,o),
(128,394,cs),
(128,352,o),
(157,330,o),
(192,330,cs)
);
},
{
closed = 1;
nodes = (
(227,-10,o),
(256,12,o),
(256,54,cs),
(256,95,o),
(227,118,o),
(192,118,cs),
(157,118,o),
(128,95,o),
(128,54,cs),
(128,12,o),
(157,-10,o),
(192,-10,cs)
);
}
);
width = 448;
},
{
layerId = "92967D72-867E-4A8B-929F-F44D834DD4C9";
shapes = (
{
closed = 1;
nodes = (
(238,290,o),
(276,319,o),
(276,374,cs),
(276,428,o),
(238,458,o),
(192,458,cs),
(146,458,o),
(108,428,o),
(108,374,cs),
(108,319,o),
(146,290,o),
(192,290,cs)
);
},
{
closed = 1;
nodes = (
(238,-10,o),
(276,19,o),
(276,74,cs),
(276,128,o),
(238,158,o),
(192,158,cs),
(146,158,o),
(108,128,o),
(108,74,cs),
(108,19,o),
(146,-10,o),
(192,-10,cs)
);
}
);
width = 448;
},
{
layerId = "7DDCEF54-C770-4FAD-B154-EE8058BAA7E5";
shapes = (
{
closed = 1;
nodes = (
(220,354,o),
(244,372,o),
(244,406,cs),
(244,439,o),
(220,458,o),
(192,458,cs),
(164,458,o),
(140,439,o),
(140,406,cs),
(140,372,o),
(164,354,o),
(192,354,cs)
);
},
{
closed = 1;
nodes = (
(220,-10,o),
(244,8,o),
(244,42,cs),
(244,75,o),
(220,94,o),
(192,94,cs),
(164,94,o),
(140,75,o),
(140,42,cs),
(140,8,o),
(164,-10,o),
(192,-10,cs)
);
}
);
width = 448;
},
{
layerId = "C21910D5-47BB-472B-A83D-89B2B42B8F2A";
shapes = (
{
closed = 1;
nodes = (
(248,354,o),
(273,370,o),
(280,402,cs),
(287,437,o),
(265,458,o),
(235,458,cs),
(209,458,o),
(183,441,o),
(177,410,cs),
(170,374,o),
(192,354,o),
(221,354,cs)
);
},
{
closed = 1;
nodes = (
(175,-10,o),
(200,6,o),
(207,38,cs),
(214,73,o),
(192,94,o),
(163,94,cs),
(136,94,o),
(111,77,o),
(104,46,cs),
(97,10,o),
(119,-10,o),
(149,-10,cs)
);
}
);
width = 448;
},
{
layerId = "BA106321-29DE-4FD0-898D-B7B08A4D4215";
shapes = (
{
closed = 1;
nodes = (
(251,330,o),
(281,349,o),
(289,388,cs),
(298,432,o),
(271,458,o),
(234,458,cs),
(201,458,o),
(171,438,o),
(163,400,cs),
(154,355,o),
(181,330,o),
(218,330,cs)
);
},
{
closed = 1;
nodes = (
(183,-10,o),
(213,9,o),
(221,48,cs),
(230,92,o),
(203,118,o),
(166,118,cs),
(133,118,o),
(103,98,o),
(95,60,cs),
(86,15,o),
(113,-10,o),
(150,-10,cs)
);
}
);
width = 448;
},
{
layerId = "EBAB10B0-9FDE-44C7-9B16-DD2313400F4E";
shapes = (
{
closed = 1;
nodes = (
(194,-10,o),
(234,15,o),
(244,65,cs),
(256,124,o),
(222,158,o),
(172,158,cs),
(130,158,o),
(90,132,o),
(80,83,cs),
(68,23,o),
(102,-10,o),
(152,-10,cs)
);
},
{
closed = 1;
nodes = (
(254,290,o),
(294,315,o),
(304,365,cs),
(316,424,o),
(282,458,o),
(232,458,cs),
(190,458,o),
(150,432,o),
(140,383,cs),
(128,323,o),
(162,290,o),
(212,290,cs)
);
}
);
width = 448;
}
);
unicode = 58;
}
{
glyphname = semicolon;
layers = (
{
background = {
shapes = (
{
closed = 1;
nodes = (
(128,394,cs),
(128,352,o),
(157,330,o),
(192,330,cs),
(227,330,o),
(256,352,o),
(256,394,cs),
(256,435,o),
(227,458,o),
(192,458,cs),
(157,458,o),
(128,435,o)
);
},
{
closed = 1;
nodes = (
(128,54,cs),
(128,18,o),
(150,-8,o),
(189,-10,c),
(183,-44,o),
(158,-69,o),
(134,-91,c),
(172,-133,l),
(218,-94,o),
(258,-38,o),
(258,32,cs),
(258,95,o),
(227,118,o),
(190,118,cs),
(156,118,o),
(128,94,o)
);
}
);
};
hints = (
{
horizontal = 1;
options = 4;
origin = (1,5);
stem = -1;
target = (1,11);
type = TTStem;
},
{
horizontal = 1;
options = 4;
origin = (0,11);
stem = -1;
target = (0,5);
type = TTStem;
},
{
horizontal = 1;
options = 4;
origin = (0,11);
stem = -1;
target = (0,15);
type = TTStem;
},
{
horizontal = 1;
options = 4;
origin = (0,5);
other1 = (0,2);
target = (0,11);
type = TTInterpolate;
}
);
layerId = "95FB0C11-C828-4064-8966-34220AA4D426";
shapes = (
{
closed = 1;
nodes = (
(218,-94,o),
(258,-38,o),
(258,32,cs),
(258,95,o),
(227,118,o),
(190,118,cs),
(156,118,o),
(128,94,o),
(128,54,cs),
(128,18,o),
(150,-8,o),
(189,-10,c),
(183,-44,o),
(158,-69,o),
(134,-91,c),
(172,-133,l)
);
},
{
closed = 1;
nodes = (
(227,330,o),
(256,352,o),
(256,394,cs),
(256,435,o),
(227,458,o),
(192,458,cs),
(157,458,o),
(128,435,o),
(128,394,cs),
(128,352,o),
(157,330,o),
(192,330,cs)
);
}
);
width = 448;
},
{
background = {
shapes = (
{
closed = 1;
nodes = (
(108,374,cs),
(108,319,o),
(146,290,o),
(192,290,cs),
(238,290,o),
(276,319,o),
(276,374,cs),
(276,428,o),
(238,458,o),
(192,458,cs),
(146,458,o),
(108,428,o)
);
},
{
closed = 1;
nodes = (
(109,71,cs),
(109,23,o),
(138,-3,o),
(176,-9,c),
(168,-46,o),
(150,-81,o),
(131,-111,c),
(191,-149,l),
(237,-93,o),
(275,-22,o),
(275,52,cs),
(275,129,o),
(233,153,o),
(191,153,cs),
(144,153,o),
(109,122,o)
);
}
);
};
layerId = "92967D72-867E-4A8B-929F-F44D834DD4C9";
shapes = (
{
closed = 1;
nodes = (
(237,-93,o),
(275,-22,o),
(275,52,cs),
(275,129,o),
(233,153,o),
(191,153,cs),
(144,153,o),
(109,122,o),
(109,71,cs),
(109,23,o),
(138,-3,o),
(176,-9,c),
(168,-46,o),
(150,-81,o),
(131,-111,c),
(191,-149,l)
);
},
{
closed = 1;
nodes = (
(238,290,o),
(276,319,o),
(276,374,cs),
(276,428,o),
(238,458,o),
(192,458,cs),
(146,458,o),
(108,428,o),
(108,374,cs),
(108,319,o),
(146,290,o),
(192,290,cs)
);
}
);
width = 448;
},
{
layerId = "7DDCEF54-C770-4FAD-B154-EE8058BAA7E5";
shapes = (
{
closed = 1;
nodes = (
(222,-81,o),
(248,-40,o),
(248,20,cs),
(248,71,o),
(223,95,o),
(189,95,cs),
(163,95,o),
(139,74,o),
(139,43,cs),
(139,15,o),
(157,-11,o),
(197,-11,c),
(192,-46,o),
(168,-71,o),
(140,-96,c),
(166,-126,l)
);
},
{
closed = 1;
nodes = (
(220,354,o),
(244,372,o),
(244,406,cs),
(244,439,o),
(220,458,o),
(192,458,cs),
(164,458,o),
(140,439,o),
(140,406,cs),
(140,372,o),
(164,354,o),
(192,354,cs)
);
}
);
width = 448;
},
{
layerId = "C21910D5-47BB-472B-A83D-89B2B42B8F2A";
shapes = (
{
closed = 1;
nodes = (
(162,-82,o),
(195,-42,o),
(206,16,cs),
(217,69,o),
(195,95,o),
(160,95,cs),
(135,95,o),
(109,76,o),
(104,47,cs),
(98,17,o),
(112,-11,o),
(152,-9,c),
(138,-44,o),
(108,-70,o),
(75,-95,c),
(98,-127,l)
);
},
{
closed = 1;
nodes = (
(248,354,o),
(273,370,o),
(280,402,cs),
(287,437,o),
(265,458,o),
(235,458,cs),
(209,458,o),
(183,441,o),
(177,410,cs),
(170,374,o),
(192,354,o),
(221,354,cs)
);
}
);
width = 448;
},
{
layerId = "BA106321-29DE-4FD0-898D-B7B08A4D4215";
shapes = (
{
closed = 1;
nodes = (
(156,-96,o),
(205,-41,o),
(218,26,cs),
(232,92,o),
(203,118,o),
(164,118,cs),
(132,118,o),
(103,97,o),
(95,60,cs),
(87,21,o),
(106,-8,o),
(145,-7,c),
(129,-41,o),
(98,-67,o),
(70,-89,c),
(103,-135,l)
);
},
{
closed = 1;
nodes = (
(251,330,o),
(281,349,o),
(289,388,cs),
(298,432,o),
(271,458,o),
(234,458,cs),
(201,458,o),
(171,438,o),
(163,400,cs),
(154,355,o),
(181,330,o),
(218,330,cs)
);
}
);
width = 448;
},
{
layerId = "EBAB10B0-9FDE-44C7-9B16-DD2313400F4E";
shapes = (
{
closed = 1;
nodes = (
(175,-96,o),
(225,-26,o),
(239,43,cs),
(255,125,o),
(216,153,o),
(170,153,cs),
(127,153,o),
(89,126,o),
(80,80,cs),
(70,27,o),
(96,-2,o),
(133,-4,c),
(114,-42,o),
(88,-77,o),
(63,-107,c),
(119,-152,l)
);
},
{
closed = 1;
nodes = (
(254,290,o),
(294,315,o),
(304,365,cs),
(316,424,o),
(282,458,o),
(232,458,cs),
(190,458,o),
(150,432,o),
(140,383,cs),
(128,323,o),
(162,290,o),
(212,290,cs)
);
}
);
width = 448;
}
);
unicode = 59;
}
{
glyphname = greater;
layers = (
{
background = {
shapes = (
{
closed = 1;
nodes = (
(404,288,l),
(159,525,l),
(109,481,l),
(309,288,l),
(109,95,l),
(159,51,l)
);
}
);
};
hints = (
{
horizontal = 1;
origin = (0,1);
type = TTSnap;
},
{
horizontal = 1;
origin = (0,5);
type = TTSnap;
}
);
layerId = "95FB0C11-C828-4064-8966-34220AA4D426";
shapes = (
{
closed = 1;
nodes = (
(404,288,l),
(159,525,l),
(109,481,l),
(309,288,l),
(109,95,l),
(159,51,l)
);
}
);
width = 448;
},
{
background = {
shapes = (
{
closed = 1;
nodes = (
(422,288,l),
(164,538,l),
(84,468,l),
(271,288,l),
(84,108,l),
(164,38,l)
);
}
);
};
layerId = "92967D72-867E-4A8B-929F-F44D834DD4C9";
shapes = (
{
closed = 1;
nodes = (
(422,288,l),
(164,538,l),
(84,468,l),
(271,288,l),
(84,108,l),
(164,38,l)
);
}
);
width = 448;
},
{
layerId = "7DDCEF54-C770-4FAD-B154-EE8058BAA7E5";
shapes = (
{
closed = 1;
nodes = (
(393,288,l),
(156,517,l),
(124,489,l),
(332,288,l),
(124,87,l),
(156,59,l)
);
}
);
width = 448;
},
{
layerId = "C21910D5-47BB-472B-A83D-89B2B42B8F2A";
shapes = (
{
closed = 1;
nodes = (
(406,288,l),
(213,517,l),
(177,489,l),
(345,288,l),
(97,87,l),
(124,59,l)
);
}
);
width = 448;
},
{
layerId = "BA106321-29DE-4FD0-898D-B7B08A4D4215";
shapes = (
{
closed = 1;
nodes = (
(417,288,l),
(217,525,l),
(160,481,l),
(322,288,l),
(83,95,l),
(126,51,l)
);
}
);
width = 448;
},
{
layerId = "EBAB10B0-9FDE-44C7-9B16-DD2313400F4E";
shapes = (
{
closed = 1;
nodes = (
(435,288,l),
(225,538,l),
(133,468,l),
(284,288,l),
(61,108,l),
(129,38,l)
);
}
);
width = 448;
}
);
unicode = 62;
}
{
glyphname = A;
layers = (
{
anchors = (
{
name = bottom;
pos = (224,0);
},
{
name = bottomAttach;
pos = (413,0);
},
{
name = top;
pos = (224,640);
}
);
hints = (
{
horizontal = 1;
options = 4;
origin = (0,12);
target = (0,3,0,7);
type = TTShift;
},
{
horizontal = 1;
options = 4;
origin = (0,0);
target = (0,7);
type = TTShift;
},
{
horizontal = 1;
origin = (0,3,1,1);
type = TTSnap;
},
{
horizontal = 1;
options = 4;
origin = (0,3,1,1);
target = (0,3,1,3);
type = TTStem;
},
{
options = 8;
origin = (0,15);
type = TTSnap;
},
{
options = 8;
origin = (0,8);
type = TTSnap;
},
{
options = 4;
origin = (0,15);
target = (0,0);
type = TTStem;
},
{
options = 4;
origin = (0,8);
target = (0,7);
type = TTStem;
}
);
layerId = "95FB0C11-C828-4064-8966-34220AA4D426";
shapes = (
{
closed = 1;
nodes = (
(110,0,l),
(131,238,o),
(175,439,o),
(235,577,c),
(213,577,l),
(273,439,o),
(317,238,o),
(338,0,c),
(413,0,l),
(393,243,o),
(340,476,o),
(256,643,c),
(192,643,l),
(108,476,o),
(55,243,o),
(35,0,c)
);
},
{
closed = 1;
nodes = (
(97,192,l),
(353,192,l),
(353,256,l),
(97,256,l)
);
}
);
width = 448;
},
{
anchors = (
{
name = bottom;
pos = (224,0);
},
{
name = bottomAttach;
pos = (423,0);
},
{
name = top;
pos = (224,640);
}
);
layerId = "92967D72-867E-4A8B-929F-F44D834DD4C9";
shapes = (
{
closed = 1;
nodes = (
(140,0,l),
(158,238,o),
(194,439,o),
(243,577,c),
(205,577,l),
(254,439,o),
(290,238,o),
(308,0,c),
(423,0,l),
(404,242,o),
(355,474,o),
(276,640,c),
(172,640,l),
(93,474,o),
(44,242,o),
(25,0,c)
);
},
{
closed = 1;
nodes = (
(97,160,l),
(353,160,l),
(353,240,l),
(97,240,l)
);
}
);
width = 448;
},
{
anchors = (
{
name = bottom;
pos = (224,0);
},
{
name = bottomAttach;
pos = (407,0);
},
{
name = top;
pos = (224,640);
}
);
layerId = "7DDCEF54-C770-4FAD-B154-EE8058BAA7E5";
shapes = (
{
closed = 1;
nodes = (
(92,0,l),
(115,243,o),
(165,448,o),
(229,589,c),
(219,589,l),
(283,448,o),
(333,243,o),
(356,0,c),
(407,0,l),
(385,243,o),
(329,476,o),
(244,643,c),
(204,643,l),
(119,476,o),
(63,243,o),
(41,0,c)
);
},
{
closed = 1;
nodes = (
(97,202,l),
(353,202,l),
(353,246,l),
(97,246,l)
);
}
);
width = 448;
},
{
anchors = (
{
name = bottom;
pos = (179,0);
},
{
name = bottomAttach;
pos = (362,0);
},
{
name = top;
pos = (307,640);
}
);
layerId = "C21910D5-47BB-472B-A83D-89B2B42B8F2A";
shapes = (
{
closed = 1;
nodes = (
(47,0,l),
(119,242,o),
(210,447,o),
(302,587,c),
(293,591,l),
(329,449,o),
(337,244,o),
(312,0,c),
(362,0,l),
(389,243,o),
(379,476,o),
(326,643,c),
(285,643,l),
(167,476,o),
(66,243,o),
(-5,0,c)
);
},
{
closed = 1;
nodes = (
(93,202,l),
(349,202,l),
(357,246,l),
(101,246,l)
);
}
);
width = 448;
},
{
anchors = (
{
name = bottom;
pos = (179,0);
},
{
name = bottomAttach;
pos = (368,0);
},
{
name = top;
pos = (307,640);
}
);
layerId = "BA106321-29DE-4FD0-898D-B7B08A4D4215";
shapes = (
{
closed = 1;
nodes = (
(66,0,l),
(134,237,o),
(219,437,o),
(306,574,c),
(285,580,l),
(318,441,o),
(321,239,o),
(294,0,c),
(368,0,l),
(399,243,o),
(391,476,o),
(337,643,c),
(273,643,l),
(156,476,o),
(58,243,o),
(-10,0,c)
);
},
{
closed = 1;
nodes = (
(91,192,l),
(347,192,l),
(359,256,l),
(103,256,l)
);
}
);
width = 448;
},
{
anchors = (
{
name = bottom;
pos = (179,0);
},
{
name = bottomAttach;
pos = (378,0);
},
{
name = top;
pos = (307,640);
}
);
layerId = "EBAB10B0-9FDE-44C7-9B16-DD2313400F4E";
shapes = (
{
closed = 1;
nodes = (
(96,0,l),
(161,236,o),
(238,436,o),
(314,573,c),
(277,581,l),
(301,442,o),
(295,240,o),
(263,0,c),
(378,0,l),
(410,242,o),
(406,474,o),
(356,640,c),
(252,640,l),
(141,474,o),
(47,242,o),
(-20,0,c)
);
},
{
closed = 1;
nodes = (
(84,160,l),
(340,160,l),
(356,240,l),
(100,240,l)
);
}
);
width = 448;
}
);
unicode = 65;
}
{
glyphname = B;
layers = (
{
hints = (
{
horizontal = 1;
options = 4;
origin = (0,0);
target = (1,7);
type = TTStem;
},
{
horizontal = 1;
options = 4;
origin = (0,23);
target = (0,10);
type = TTStem;
},
{
horizontal = 1;
options = 4;
origin = (1,0);
target = (0,8);
type = TTStem;
},
{
horizontal = 1;
options = 4;
origin = (1,0);
other1 = (0,6,0,20);
target = (0,8);
type = TTInterpolate;
},
{
options = 4;
origin = (0,25);
target = (1,8);
type = TTStem;
},
{
options = 4;
origin = (0,3);
target = (1,4);
type = TTStem;
},
{
options = 4;
origin = (1,8);
target = (0,8);
type = TTShift;
},
{
options = 8;
origin = (0,25);
type = TTSnap;
},
{
options = 8;
origin = (0,3);
type = TTSnap;
},
{
origin = (0,3);
target = (0,20);
type = TTShift;
},
{
options = 4;
origin = (0,20);
target = (0,13);
type = TTStem;
},
{
horizontal = 1;
origin = (0,0);
other1 = (1,0);
target = (0,23);
type = TTInterpolate;
}
);
layerId = "95FB0C11-C828-4064-8966-34220AA4D426";
shapes = (
{
closed = 1;
nodes = (
(212,0,ls),
(331,0,o),
(411,59,o),
(411,168,cs),
(411,267,o),
(338,319,o),
(251,319,c),
(251,336,l),
(132,336,l),
(132,576,l),
(184,576,ls),
(280,576,o),
(312,541,o),
(312,476,cs),
(312,423,o),
(286,363,o),
(232,329,c),
(264,282,l),
(355,344,o),
(390,408,o),
(390,476,cs),
(390,586,o),
(315,640,o),
(192,640,cs),
(60,640,l),
(60,0,l)
);
},
{
closed = 1;
nodes = (
(132,272,l),
(202,272,ls),
(301,272,o),
(335,232,o),
(335,170,cs),
(335,100,o),
(302,64,o),
(202,64,cs),
(132,64,l)
);
}
);
width = 448;
},
{
layerId = "92967D72-867E-4A8B-929F-F44D834DD4C9";
shapes = (
{
closed = 1;
nodes = (
(215,0,ls),
(338,0,o),
(421,61,o),
(421,172,cs),
(421,264,o),
(359,325,o),
(256,325,c),
(256,344,l),
(162,344,l),
(162,560,l),
(175,560,ls),
(255,560,o),
(282,527,o),
(282,466,cs),
(282,419,o),
(262,366,o),
(224,336,c),
(272,276,l),
(364,340,o),
(400,406,o),
(400,476,cs),
(400,586,o),
(322,640,o),
(195,640,cs),
(50,640,l),
(50,0,l)
);
},
{
closed = 1;
nodes = (
(162,264,l),
(191,264,ls),
(276,264,o),
(305,229,o),
(305,174,cs),
(305,112,o),
(277,80,o),
(191,80,cs),
(162,80,l)
);
}
);
width = 448;
},
{
layerId = "7DDCEF54-C770-4FAD-B154-EE8058BAA7E5";
shapes = (
{
closed = 1;
nodes = (
(210,0,ls),
(327,0,o),
(405,57,o),
(405,164,cs),
(405,262,o),
(331,314,o),
(248,314,c),
(248,326,l),
(114,326,l),
(114,596,l),
(189,596,ls),
(289,596,o),
(330,556,o),
(330,483,cs),
(330,424,o),
(300,357,o),
(237,320,c),
(259,291,l),
(350,350,o),
(384,412,o),
(384,478,cs),
(384,587,o),
(311,640,o),
(190,640,cs),
(66,640,l),
(66,0,l)
);
},
{
closed = 1;
nodes = (
(114,282,l),
(209,282,ls),
(316,282,o),
(353,235,o),
(353,164,cs),
(353,85,o),
(309,44,o),
(209,44,cs),
(114,44,l)
);
}
);
width = 448;
},
{
layerId = "C21910D5-47BB-472B-A83D-89B2B42B8F2A";
shapes = (
{
closed = 1;
nodes = (
(167,0,ls),
(284,0,o),
(371,55,o),
(392,160,cs),
(409,243,o),
(368,295,o),
(300,311,c),
(268,326,l),
(134,326,l),
(188,596,l),
(265,596,ls),
(365,596,o),
(397,558,o),
(383,487,cs),
(370,426,o),
(325,358,o),
(255,321,c),
(274,290,l),
(376,349,o),
(421,410,o),
(434,474,cs),
(456,585,o),
(392,640,o),
(271,640,cs),
(149,640,l),
(21,0,l)
);
},
{
closed = 1;
nodes = (
(126,282,l),
(222,282,ls),
(329,282,o),
(356,237,o),
(342,168,cs),
(326,87,o),
(271,44,o),
(171,44,cs),
(78,44,l)
);
}
);
width = 448;
},
{
layerId = "BA106321-29DE-4FD0-898D-B7B08A4D4215";
shapes = (
{
closed = 1;
nodes = (
(170,0,ls),
(289,0,o),
(377,56,o),
(399,162,cs),
(416,247,o),
(375,298,o),
(308,314,c),
(273,336,l),
(154,336,l),
(202,576,l),
(257,576,ls),
(353,576,o),
(376,544,o),
(364,482,cs),
(352,426,o),
(312,365,o),
(251,331,c),
(278,280,l),
(381,342,o),
(426,405,o),
(439,470,cs),
(462,583,o),
(396,640,o),
(273,640,cs),
(143,640,l),
(15,0,l)
);
},
{
closed = 1;
nodes = (
(142,272,l),
(214,272,ls),
(313,272,o),
(337,235,o),
(325,176,cs),
(311,103,o),
(267,64,o),
(167,64,cs),
(100,64,l)
);
}
);
width = 448;
},
{
layerId = "EBAB10B0-9FDE-44C7-9B16-DD2313400F4E";
shapes = (
{
closed = 1;
nodes = (
(173,0,ls),
(296,0,o),
(388,57,o),
(409,163,cs),
(427,252,o),
(385,305,o),
(314,321,c),
(279,344,l),
(186,344,l),
(229,560,l),
(245,560,ls),
(325,560,o),
(343,531,o),
(332,475,cs),
(322,423,o),
(288,369,o),
(244,339,c),
(286,273,l),
(389,337,o),
(436,402,o),
(449,467,cs),
(472,582,o),
(402,640,o),
(275,640,cs),
(133,640,l),
(5,0,l)
);
},
{
closed = 1;
nodes = (
(170,264,l),
(202,264,ls),
(287,264,o),
(307,233,o),
(297,183,cs),
(283,116,o),
(245,80,o),
(159,80,cs),
(133,80,l)
);
}
);
width = 448;
}
);
unicode = 66;
}
{
glyphname = C;
layers = (
{
anchors = (
{
name = bottom;
pos = (224,0);
},
{
name = bottomAttach;
pos = (308,0);
},
{
name = top;
pos = (256,640);
}
);
hints = (
{
horizontal = 1;
options = 4;
origin = (0,25);
target = (0,6);
type = TTStem;
},
{
horizontal = 1;
options = 4;
origin = (0,19);
target = (0,12);
type = TTStem;
},
{
options = 4;
origin = (0,22);
target = (0,9);
type = TTStem;
},
{
options = 8;
origin = (0,2);
type = TTSnap;
},
{
options = 4;
origin = (0,2);
target = (0,16);
type = TTShift;
},
{
options = 8;
origin = (0,22);
type = TTSnap;
}
);
layerId = "95FB0C11-C828-4064-8966-34220AA4D426";
shapes = (
{
closed = 1;
nodes = (
(309,-9,o),
(351,-4,o),
(384,5,c),
(370,66,l),
(337,58,o),
(306,55,o),
(280,55,cs),
(149,55,o),
(138,131,o),
(138,319,cs),
(138,507,o),
(149,583,o),
(280,583,cs),
(305,583,o),
(335,580,o),
(364,574,c),
(378,635,l),
(345,643,o),
(305,647,o),
(274,647,cs),
(118,647,o),
(60,560,o),
(60,319,cs),
(60,78,o),
(118,-9,o),
(274,-9,cs)
);
}
);
width = 448;
},
{
anchors = (
{
name = bottom;
pos = (224,0);
},
{
name = bottomAttach;
pos = (308,0);
},
{
name = top;
pos = (256,640);
}
);
layerId = "92967D72-867E-4A8B-929F-F44D834DD4C9";
shapes = (
{
closed = 1;
nodes = (
(314,-9,o),
(359,-3,o),
(394,8,c),
(380,82,l),
(350,74,o),
(322,71,o),
(298,71,cs),
(178,71,o),
(168,142,o),
(168,319,cs),
(168,496,o),
(178,567,o),
(297,567,cs),
(320,567,o),
(348,564,o),
(374,558,c),
(388,632,l),
(353,642,o),
(310,647,o),
(277,647,cs),
(112,647,o),
(50,560,o),
(50,319,cs),
(50,78,o),
(112,-9,o),
(277,-9,cs)
);
}
);
width = 448;
},
{
anchors = (
{
name = bottom;
pos = (224,0);
},
{
name = bottomAttach;
pos = (308,0);
},
{
name = top;
pos = (256,640);
}
);
layerId = "7DDCEF54-C770-4FAD-B154-EE8058BAA7E5";
shapes = (
{
closed = 1;
nodes = (
(306,-9,o),
(344,-3,o),
(376,4,c),
(370,44,l),
(335,38,o),
(303,35,o),
(277,35,cs),
(150,35,o),
(120,117,o),
(120,319,cs),
(120,521,o),
(147,603,o),
(275,603,cs),
(301,603,o),
(334,601,o),
(366,596,c),
(372,636,l),
(342,643,o),
(302,647,o),
(272,647,cs),
(122,647,o),
(66,560,o),
(66,319,cs),
(66,78,o),
(122,-9,o),
(272,-9,cs)
);
}
);
width = 448;
},
{
anchors = (
{
name = bottom;
pos = (179,0);
},
{
name = bottomAttach;
pos = (263,0);
},
{
name = top;
pos = (339,640);
}
);
layerId = "C21910D5-47BB-472B-A83D-89B2B42B8F2A";
shapes = (
{
closed = 1;
nodes = (
(261,-9,o),
(300,-3,o),
(334,4,c),
(332,44,l),
(296,38,o),
(263,35,o),
(236,35,cs),
(110,35,o),
(98,115,o),
(138,315,cs),
(179,519,o),
(225,603,o),
(354,603,cs),
(379,603,o),
(411,601,o),
(442,596,c),
(453,636,l),
(424,643,o),
(385,647,o),
(353,647,cs),
(205,647,o),
(134,562,o),
(86,323,cs),
(37,80,o),
(77,-9,o),
(229,-9,cs)
);
}
);
width = 448;
},
{
anchors = (
{
name = bottom;
pos = (179,0);
},
{
name = bottomAttach;
pos = (263,0);
},
{
name = top;
pos = (339,640);
}
);
layerId = "BA106321-29DE-4FD0-898D-B7B08A4D4215";
shapes = (
{
closed = 1;
nodes = (
(265,-9,o),
(308,-5,o),
(342,4,c),
(335,67,l),
(301,59,o),
(270,55,o),
(241,55,cs),
(113,55,o),
(119,128,o),
(156,313,cs),
(194,504,o),
(223,583,o),
(357,583,cs),
(379,583,o),
(409,581,o),
(437,575,c),
(458,634,l),
(426,642,o),
(387,647,o),
(354,647,cs),
(200,647,o),
(128,563,o),
(80,325,cs),
(31,81,o),
(74,-9,o),
(232,-9,cs)
);
}
);
width = 448;
},
{
anchors = (
{
name = bottom;
pos = (179,0);
},
{
name = bottomAttach;
pos = (263,0);
},
{
name = top;
pos = (339,640);
}
);
layerId = "EBAB10B0-9FDE-44C7-9B16-DD2313400F4E";
shapes = (
{
closed = 1;
nodes = (
(271,-9,o),
(316,-4,o),
(354,7,c),
(348,83,l),
(317,75,o),
(288,71,o),
(261,71,cs),
(144,71,o),
(151,138,o),
(185,310,cs),
(222,492,o),
(250,567,o),
(372,567,cs),
(392,567,o),
(419,565,o),
(444,559,c),
(467,631,l),
(433,641,o),
(391,647,o),
(355,647,cs),
(193,647,o),
(118,564,o),
(71,328,cs),
(22,82,o),
(69,-9,o),
(237,-9,cs)
);
}
);
width = 448;
}
);
unicode = 67;
}
{
glyphname = J;
layers = (
{
anchors = (
{
name = top;
pos = (270,640);
}
);
hints = (
{
horizontal = 1;
options = 4;
origin = (0,2);
target = (0,13);
type = TTStem;
},
{
horizontal = 1;
options = 4;
origin = (0,6);
target = (0,9);
type = TTStem;
},
{
options = 8;
origin = (0,5);
type = TTSnap;
},
{
options = 4;
origin = (0,5);
target = (0,10);
type = TTStem;
},
{
options = 4;
origin = (0,17);
target = (0,16);
type = TTStem;
},
{
options = 8;
origin = (0,17);
type = TTSnap;
},
{
origin = (0,5);
other1 = (0,7);
target = (0,17);
type = TTInterpolate;
}
);
layerId = "95FB0C11-C828-4064-8966-34220AA4D426";
shapes = (
{
closed = 1;
nodes = (
(79,43,o),
(128,-8,o),
(224,-8,cs),
(320,-8,o),
(388,43,o),
(388,173,cs),
(388,640,l),
(162,640,l),
(162,576,l),
(316,576,l),
(316,169,ls),
(316,100,o),
(297,56,o),
(224,56,cs),
(166,56,o),
(143,86,o),
(130,137,c),
(62,120,l)
);
}
);
width = 448;
},
{
anchors = (
{
name = top;
pos = (270,640);
}
);
layerId = "92967D72-867E-4A8B-929F-F44D834DD4C9";
shapes = (
{
closed = 1;
nodes = (
(70,49,o),
(122,-8,o),
(224,-8,cs),
(326,-8,o),
(398,43,o),
(398,173,cs),
(398,640,l),
(132,640,l),
(132,552,l),
(286,552,l),
(286,169,ls),
(286,110,o),
(273,72,o),
(224,72,cs),
(189,72,o),
(169,101,o),
(155,160,c),
(52,136,l)
);
}
);
width = 448;
},
{
anchors = (
{
name = top;
pos = (270,640);
}
);
layerId = "7DDCEF54-C770-4FAD-B154-EE8058BAA7E5";
shapes = (
{
closed = 1;
nodes = (
(86,41,o),
(132,-8,o),
(224,-8,cs),
(316,-8,o),
(382,43,o),
(382,173,cs),
(382,640,l),
(180,640,l),
(180,596,l),
(334,596,l),
(334,169,ls),
(334,81,o),
(299,36,o),
(224,36,cs),
(155,36,o),
(127,71,o),
(111,123,c),
(68,110,l)
);
}
);
width = 448;
},
{
anchors = (
{
name = top;
pos = (353,640);
}
);
layerId = "C21910D5-47BB-472B-A83D-89B2B42B8F2A";
shapes = (
{
closed = 1;
nodes = (
(50,43,o),
(87,-8,o),
(181,-8,cs),
(271,-8,o),
(345,41,o),
(371,171,cs),
(465,640,l),
(263,640,l),
(254,596,l),
(408,596,l),
(323,171,ls),
(306,83,o),
(260,36,o),
(183,36,cs),
(116,36,o),
(96,69,o),
(90,121,c),
(46,112,l)
);
}
);
width = 448;
},
{
anchors = (
{
name = top;
pos = (353,640);
}
);
layerId = "BA106321-29DE-4FD0-898D-B7B08A4D4215";
shapes = (
{
closed = 1;
nodes = (
(44,46,o),
(84,-8,o),
(183,-8,cs),
(276,-8,o),
(351,40,o),
(377,170,cs),
(471,640,l),
(245,640,l),
(232,576,l),
(386,576,l),
(306,172,ls),
(292,103,o),
(261,56,o),
(185,56,cs),
(130,56,o),
(114,83,o),
(111,134,c),
(42,123,l)
);
}
);
width = 448;
},
{
anchors = (
{
name = top;
pos = (353,640);
}
);
layerId = "EBAB10B0-9FDE-44C7-9B16-DD2313400F4E";
shapes = (
{
closed = 1;
nodes = (
(37,53,o),
(79,-8,o),
(184,-8,cs),
(283,-8,o),
(361,39,o),
(387,169,cs),
(481,640,l),
(215,640,l),
(198,552,l),
(352,552,l),
(276,173,ls),
(264,114,o),
(239,72,o),
(187,72,cs),
(155,72,o),
(143,97,o),
(141,156,c),
(36,140,l)
);
}
);
width = 448;
}
);
unicode = 74;
}
{
glyphname = M;
layers = (
{
anchors = (
{
name = bottom;
pos = (224,0);
},
{
name = top;
pos = (224,640);
}
);
background = {
shapes = (
{
closed = 1;
nodes = (
(86,0,l),
(97,510,l),
(99,510,l),
(196,150,l),
(252,150,l),
(348,510,l),
(350,510,l),
(362,0,l),
(434,0,l),
(411,640,l),
(322,640,l),
(225,271,l),
(223,271,l),
(126,640,l),
(37,640,l),
(14,0,l)
);
}
);
};
hints = (
{
horizontal = 1;
options = 4;
origin = (0,0);
target = (0,11);
type = TTShift;
},
{
horizontal = 1;
options = 4;
origin = (0,19);
target = (0,16);
type = TTShift;
},
{
horizontal = 1;
options = 4;
origin = (0,0);
other1 = (0,4);
target = (0,19);
type = TTInterpolate;
},
{
horizontal = 1;
options = 4;
origin = (0,4);
target = (0,8);
type = TTShift;
},
{
horizontal = 1;
options = 8;
origin = (0,0);
other1 = (0,5);
target = (0,19);
type = TTInterpolate;
},
{
horizontal = 1;
options = 4;
origin = (0,5);
target = (0,18);
type = TTShift;
},
{
options = 8;
origin = (0,23);
type = TTSnap;
},
{
options = 8;
origin = (0,12);
type = TTSnap;
},
{
options = 4;
origin = (0,12);
target = (0,11);
type = TTStem;
},
{
options = 4;
origin = (0,23);
target = (0,0);
type = TTStem;
}
);
layerId = "95FB0C11-C828-4064-8966-34220AA4D426";
shapes = (
{
closed = 1;
nodes = (
(86,0,l),
(86,170,o),
(90,340,o),
(97,510,c),
(99,510,l),
(196,150,l),
(252,150,l),
(348,510,l),
(350,510,l),
(357,340,o),
(362,170,o),
(362,0,c),
(434,0,l),
(431,213,o),
(424,427,o),
(409,640,c),
(322,640,l),
(225,271,l),
(223,271,l),
(126,640,l),
(39,640,l),
(24,427,o),
(17,213,o),
(14,0,c)
);
}
);
width = 448;
},
{
anchors = (
{
name = bottom;
pos = (224,0);
},
{
name = top;
pos = (224,640);
}
);
background = {
shapes = (
{
closed = 1;
nodes = (
(68,0,l),
(70,172,o),
(73,344,o),
(81,516,c),
(83,516,l),
(202,163,l),
(246,163,l),
(364,516,l),
(366,516,l),
(375,344,o),
(377,172,o),
(380,0,c),
(428,0,l),
(425,213,o),
(418,427,o),
(403,640,c),
(362,640,l),
(225,231,l),
(223,231,l),
(85,640,l),
(45,640,l),
(30,427,o),
(23,213,o),
(20,0,c)
);
}
);
};
layerId = "7DDCEF54-C770-4FAD-B154-EE8058BAA7E5";
shapes = (
{
closed = 1;
nodes = (
(78,0,l),
(79,169,o),
(82,339,o),
(90,508,c),
(92,508,l),
(202,163,l),
(246,163,l),
(355,508,l),
(357,508,l),
(366,339,o),
(368,169,o),
(370,0,c),
(418,0,l),
(415,213,o),
(408,427,o),
(393,640,c),
(352,640,l),
(225,231,l),
(223,231,l),
(95,640,l),
(55,640,l),
(40,427,o),
(33,213,o),
(30,0,c)
);
}
);
width = 448;
},
{
anchors = (
{
name = bottom;
pos = (224,0);
},
{
name = top;
pos = (224,640);
}
);
layerId = "92967D72-867E-4A8B-929F-F44D834DD4C9";
shapes = (
{
closed = 1;
nodes = (
(118,0,l),
(118,125,o),
(119,256,o),
(123,374,c),
(125,374,l),
(196,128,l),
(252,128,l),
(322,374,l),
(324,374,l),
(329,256,o),
(330,125,o),
(330,0,c),
(444,0,l),
(441,213,o),
(434,427,o),
(419,640,c),
(314,640,l),
(225,307,l),
(223,307,l),
(135,640,l),
(29,640,l),
(14,427,o),
(7,213,o),
(4,0,c)
);
}
);
width = 448;
},
{
anchors = (
{
name = bottom;
pos = (179,0);
},
{
name = top;
pos = (307,640);
}
);
layerId = "C21910D5-47BB-472B-A83D-89B2B42B8F2A";
shapes = (
{
closed = 1;
nodes = (
(33,0,l),
(68,168,o),
(105,338,o),
(147,506,c),
(149,506,l),
(190,163,l),
(234,163,l),
(412,508,l),
(414,508,l),
(389,339,o),
(357,166,o),
(326,0,c),
(374,0,l),
(413,213,o),
(448,427,o),
(476,640,c),
(435,640,l),
(226,231,l),
(224,231,l),
(178,640,l),
(137,640,l),
(80,427,o),
(30,213,o),
(-15,0,c)
);
}
);
width = 448;
},
{
anchors = (
{
name = bottom;
pos = (179,0);
},
{
name = top;
pos = (307,640);
}
);
layerId = "BA106321-29DE-4FD0-898D-B7B08A4D4215";
shapes = (
{
closed = 1;
nodes = (
(42,0,l),
(75,169,o),
(114,338,o),
(155,507,c),
(157,507,l),
(182,150,l),
(238,150,l),
(406,510,l),
(407,510,l),
(381,340,o),
(352,170,o),
(317,0,c),
(389,0,l),
(428,213,o),
(464,427,o),
(491,640,c),
(405,640,l),
(234,271,l),
(232,271,l),
(209,640,l),
(122,640,l),
(64,427,o),
(15,213,o),
(-31,0,c)
);
}
);
width = 448;
},
{
anchors = (
{
name = bottom;
pos = (179,0);
},
{
name = top;
pos = (307,640);
}
);
layerId = "EBAB10B0-9FDE-44C7-9B16-DD2313400F4E";
shapes = (
{
closed = 1;
nodes = (
(73,0,l),
(99,123,o),
(127,253,o),
(153,370,c),
(155,370,l),
(178,128,l),
(234,128,l),
(353,374,l),
(355,374,l),
(336,256,o),
(310,125,o),
(285,0,c),
(399,0,l),
(439,213,o),
(475,427,o),
(502,640,c),
(396,640,l),
(241,307,l),
(239,307,l),
(217,640,l),
(112,640,l),
(54,427,o),
(5,213,o),
(-41,0,c)
);
}
);
width = 448;
}
);
unicode = 77;
}
{
glyphname = N;
layers = (
{
anchors = (
{
name = bottom;
pos = (224,0);
},
{
name = top;
pos = (224,640);
}
);
background = {
shapes = (
{
closed = 1;
nodes = (
(60,0,l),
(132,0,l),
(132,608,l),
(142,640,l),
(60,640,l)
);
},
{
closed = 1;
nodes = (
(316,31,l),
(306,0,l),
(388,0,l),
(388,640,l),
(316,640,l)
);
},
{
closed = 1;
nodes = (
(306,0,l),
(342,25,l),
(286,256,l),
(142,640,l),
(105,615,l),
(162,384,l)
);
}
);
};
hints = (
{
horizontal = 1;
options = 4;
origin = (0,4);
other1 = (0,2,2,5);
target = (0,1);
type = TTInterpolate;
},
{
horizontal = 1;
options = 4;
origin = (1,2);
other1 = (1,0,2,2);
target = (1,4);
type = TTInterpolate;
},
{
horizontal = 1;
options = 4;
origin = (0,4);
target = (1,4);
type = TTShift;
},
{
horizontal = 1;
options = 4;
origin = (0,1);
target = (1,2);
type = TTShift;
},
{
options = 8;
origin = (0,0);
type = TTSnap;
},
{
options = 4;
origin = (0,0);
target = (0,1);
type = TTStem;
},
{
options = 8;
origin = (1,3);
type = TTSnap;
},
{
options = 4;
origin = (1,3);
target = (1,4);
type = TTStem;
},
{
options = 4;
origin = (1,4);
target = (2,0);
type = TTShift;
},
{
options = 4;
origin = (0,1);
target = (2,3);
type = TTShift;
}
);
layerId = "95FB0C11-C828-4064-8966-34220AA4D426";
shapes = (
{
closed = 1;
nodes = (
(60,0,l),
(132,0,l),
(132,608,l),
(142,640,l),
(60,640,l)
);
},
{
closed = 1;
nodes = (
(316,31,l),
(306,0,l),
(388,0,l),
(388,640,l),
(316,640,l)
);
},
{
closed = 1;
nodes = (
(306,0,l),
(342,25,l),
(286,256,l),
(142,640,l),
(105,615,l),
(162,384,l)
);
}
);
width = 448;
},
{
anchors = (
{
name = bottom;
pos = (224,0);
},
{
name = top;
pos = (224,640);
}
);
background = {
shapes = (
{
closed = 1;
nodes = (
(50,0,l),
(152,0,l),
(142,608,l),
(162,640,l),
(50,640,l)
);
},
{
closed = 1;
nodes = (
(306,31,l),
(286,0,l),
(398,0,l),
(398,640,l),
(296,640,l)
);
},
{
closed = 1;
nodes = (
(286,0,l),
(332,25,l),
(282,272,l),
(162,640,l),
(115,615,l),
(166,368,l)
);
}
);
};
layerId = "92967D72-867E-4A8B-929F-F44D834DD4C9";
shapes = (
{
closed = 1;
nodes = (
(50,0,l),
(152,0,l),
(142,608,l),
(162,640,l),
(50,640,l)
);
},
{
closed = 1;
nodes = (
(306,31,l),
(286,0,l),
(398,0,l),
(398,640,l),
(296,640,l)
);
},
{
closed = 1;
nodes = (
(286,0,l),
(332,25,l),
(282,272,l),
(162,640,l),
(115,615,l),
(166,368,l)
);
}
);
width = 448;
},
{
anchors = (
{
name = bottom;
pos = (224,0);
},
{
name = top;
pos = (224,640);
}
);
layerId = "7DDCEF54-C770-4FAD-B154-EE8058BAA7E5";
shapes = (
{
closed = 1;
nodes = (
(66,0,l),
(114,0,l),
(114,608,l),
(130,640,l),
(66,640,l)
);
},
{
closed = 1;
nodes = (
(334,31,l),
(318,0,l),
(382,0,l),
(382,640,l),
(334,640,l)
);
},
{
closed = 1;
nodes = (
(318,0,l),
(364,0,l),
(274,257,l),
(130,640,l),
(84,640,l),
(174,384,l)
);
}
);
width = 448;
},
{
anchors = (
{
name = bottom;
pos = (179,0);
},
{
name = top;
pos = (307,640);
}
);
layerId = "C21910D5-47BB-472B-A83D-89B2B42B8F2A";
shapes = (
{
closed = 1;
nodes = (
(21,0,l),
(69,0,l),
(191,608,l),
(213,640,l),
(149,640,l)
);
},
{
closed = 1;
nodes = (
(295,31,l),
(274,0,l),
(337,0,l),
(465,640,l),
(417,640,l)
);
},
{
closed = 1;
nodes = (
(274,0,l),
(319,0,l),
(280,257,l),
(213,640,l),
(168,640,l),
(207,384,l)
);
}
);
width = 448;
},
{
anchors = (
{
name = bottom;
pos = (179,0);
},
{
name = top;
pos = (307,640);
}
);
layerId = "BA106321-29DE-4FD0-898D-B7B08A4D4215";
shapes = (
{
closed = 1;
nodes = (
(15,0,l),
(87,0,l),
(209,608,l),
(224,640,l),
(143,640,l)
);
},
{
closed = 1;
nodes = (
(277,31,l),
(263,0,l),
(343,0,l),
(471,640,l),
(399,640,l)
);
},
{
closed = 1;
nodes = (
(263,0,l),
(302,25,l),
(291,256,l),
(224,640,l),
(183,615,l),
(195,384,l)
);
}
);
width = 448;
},
{
anchors = (
{
name = bottom;
pos = (179,0);
},
{
name = top;
pos = (307,640);
}
);
layerId = "EBAB10B0-9FDE-44C7-9B16-DD2313400F4E";
shapes = (
{
closed = 1;
nodes = (
(5,0,l),
(107,0,l),
(220,608,l),
(244,640,l),
(133,640,l)
);
},
{
closed = 1;
nodes = (
(266,31,l),
(243,0,l),
(353,0,l),
(481,640,l),
(379,640,l)
);
},
{
closed = 1;
nodes = (
(243,0,l),
(292,25,l),
(290,272,l),
(244,640,l),
(193,615,l),
(196,368,l)
);
}
);
width = 448;
}
);
unicode = 78;
}
{
glyphname = O;
layers = (
{
anchors = (
{
name = bottom;
pos = (224,0);
},
{
name = bottomAttach;
pos = (284,0);
},
{
name = center;
pos = (224,319);
},
{
name = top;
pos = (224,640);
}
);
hints = (
{
horizontal = 1;
options = 4;
origin = (0,11);
target = (1,11);
type = TTStem;
},
{
horizontal = 1;
options = 4;
origin = (0,5);
target = (1,5);
type = TTStem;
},
{
options = 4;
origin = (0,8);
target = (1,2);
type = TTStem;
},
{
options = 4;
origin = (0,2);
target = (1,8);
type = TTStem;
},
{
options = 8;
origin = (0,8);
type = TTSnap;
},
{
options = 8;
origin = (0,2);
type = TTSnap;
}
);
layerId = "95FB0C11-C828-4064-8966-34220AA4D426";
shapes = (
{
closed = 1;
nodes = (
(353,-10,o),
(411,102,o),
(411,319,cs),
(411,541,o),
(353,650,o),
(224,650,cs),
(98,650,o),
(37,541,o),
(37,319,cs),
(37,102,o),
(98,-10,o),
(224,-10,cs)
);
},
{
closed = 1;
nodes = (
(143,56,o),
(113,128,o),
(113,319,cs),
(113,512,o),
(143,584,o),
(224,584,cs),
(305,584,o),
(335,512,o),
(335,319,cs),
(335,128,o),
(305,56,o),
(224,56,cs)
);
}
);
width = 448;
},
{
anchors = (
{
name = bottom;
pos = (224,0);
},
{
name = bottomAttach;
pos = (287,0);
},
{
name = center;
pos = (224,319);
},
{
name = top;
pos = (224,640);
}
);
layerId = "92967D72-867E-4A8B-929F-F44D834DD4C9";
shapes = (
{
closed = 1;
nodes = (
(360,-10,o),
(421,102,o),
(421,319,cs),
(421,541,o),
(360,650,o),
(224,650,cs),
(92,650,o),
(27,541,o),
(27,319,cs),
(27,102,o),
(92,-10,o),
(224,-10,cs)
);
},
{
closed = 1;
nodes = (
(165,72,o),
(143,140,o),
(143,319,cs),
(143,500,o),
(165,568,o),
(224,568,cs),
(283,568,o),
(305,500,o),
(305,319,cs),
(305,140,o),
(283,72,o),
(224,72,cs)
);
}
);
width = 448;
},
{
anchors = (
{
name = bottom;
pos = (224,0);
},
{
name = bottomAttach;
pos = (282,0);
},
{
name = center;
pos = (224,319);
},
{
name = top;
pos = (224,640);
}
);
layerId = "7DDCEF54-C770-4FAD-B154-EE8058BAA7E5";
shapes = (
{
closed = 1;
nodes = (
(349,-10,o),
(405,102,o),
(405,319,cs),
(405,541,o),
(349,650,o),
(224,650,cs),
(102,650,o),
(43,541,o),
(43,319,cs),
(43,102,o),
(102,-10,o),
(224,-10,cs)
);
},
{
closed = 1;
nodes = (
(132,34,o),
(95,121,o),
(95,319,cs),
(95,519,o),
(132,606,o),
(224,606,cs),
(316,606,o),
(353,519,o),
(353,319,cs),
(353,121,o),
(316,34,o),
(224,34,cs)
);
}
);
width = 448;
},
{
anchors = (
{
name = bottom;
pos = (179,0);
},
{
name = bottomAttach;
pos = (241,0);
},
{
name = center;
pos = (243,319);
},
{
name = top;
pos = (307,640);
}
);
layerId = "C21910D5-47BB-472B-A83D-89B2B42B8F2A";
shapes = (
{
closed = 1;
nodes = (
(304,-10,o),
(380,100,o),
(423,315,cs),
(468,539,o),
(432,650,o),
(306,650,cs),
(185,650,o),
(107,543,o),
(63,323,cs),
(19,104,o),
(57,-10,o),
(181,-10,cs)
);
},
{
closed = 1;
nodes = (
(92,34,o),
(74,119,o),
(113,315,cs),
(154,517,o),
(210,606,o),
(304,606,cs),
(394,606,o),
(412,521,o),
(373,323,cs),
(333,123,o),
(276,34,o),
(183,34,cs)
);
}
);
width = 448;
},
{
anchors = (
{
name = bottom;
pos = (179,0);
},
{
name = bottomAttach;
pos = (244,0);
},
{
name = center;
pos = (243,319);
},
{
name = top;
pos = (307,640);
}
);
layerId = "BA106321-29DE-4FD0-898D-B7B08A4D4215";
shapes = (
{
closed = 1;
nodes = (
(309,-10,o),
(386,99,o),
(429,313,cs),
(474,538,o),
(436,650,o),
(304,650,cs),
(181,650,o),
(101,544,o),
(57,325,cs),
(13,105,o),
(54,-10,o),
(182,-10,cs)
);
},
{
closed = 1;
nodes = (
(107,56,o),
(93,125,o),
(131,313,cs),
(170,509,o),
(218,584,o),
(301,584,cs),
(380,584,o),
(393,515,o),
(355,325,cs),
(316,131,o),
(269,56,o),
(185,56,cs)
);
}
);
width = 448;
},
{
anchors = (
{
name = bottom;
pos = (179,0);
},
{
name = bottomAttach;
pos = (248,0);
},
{
name = center;
pos = (243,319);
},
{
name = top;
pos = (307,640);
}
);
layerId = "EBAB10B0-9FDE-44C7-9B16-DD2313400F4E";
shapes = (
{
closed = 1;
nodes = (
(316,-10,o),
(396,98,o),
(438,310,cs),
(484,537,o),
(442,650,o),
(303,650,cs),
(174,650,o),
(91,545,o),
(48,328,cs),
(3,106,o),
(48,-10,o),
(184,-10,cs)
);
},
{
closed = 1;
nodes = (
(131,72,o),
(125,136,o),
(160,310,cs),
(197,496,o),
(237,568,o),
(299,568,cs),
(355,568,o),
(361,504,o),
(326,328,cs),
(289,144,o),
(249,72,o),
(187,72,cs)
);
}
);
width = 448;
}
);
unicode = 79;
}
{
glyphname = P;
layers = (
{
anchors = (
{
name = bottom;
pos = (96,0);
},
{
name = top;
pos = (204,640);
}
);
background = {
shapes = (
{
closed = 1;
nodes = (
(60,0,l),
(132,0,l),
(132,640,l),
(60,640,l)
);
},
{
closed = 1;
nodes = (
(107,640,l),
(107,576,l),
(208,576,ls),
(301,576,o),
(325,512,o),
(325,414,cs),
(325,320,o),
(303,256,o),
(208,256,cs),
(105,256,l),
(105,192,l),
(215,192,ls),
(327,192,o),
(401,267,o),
(401,414,cs),
(401,560,o),
(327,640,o),
(215,640,cs)
);
}
);
};
hints = (
{
horizontal = 1;
origin = (0,0);
type = TTSnap;
},
{
horizontal = 1;
options = 4;
origin = (0,8);
target = (1,1);
type = TTStem;
},
{
horizontal = 1;
options = 4;
origin = (0,2);
target = (1,7);
type = TTStem;
},
{
options = 4;
origin = (0,10);
target = (0,0);
type = TTStem;
},
{
options = 4;
origin = (0,5);
target = (1,4);
type = TTStem;
},
{
options = 4;
origin = (0,0);
target = (1,8);
type = TTShift;
},
{
horizontal = 1;
origin = (0,2);
type = TTSnap;
},
{
options = 8;
origin = (0,10);
type = TTSnap;
},
{
options = 8;
origin = (0,5);
type = TTSnap;
}
);
layerId = "95FB0C11-C828-4064-8966-34220AA4D426";
shapes = (
{
closed = 1;
nodes = (
(132,0,l),
(132,192,l),
(215,192,ls),
(327,192,o),
(401,267,o),
(401,414,cs),
(401,560,o),
(327,640,o),
(215,640,cs),
(60,640,l),
(60,0,l)
);
},
{
closed = 1;
nodes = (
(132,576,l),
(208,576,ls),
(301,576,o),
(325,512,o),
(325,414,cs),
(325,320,o),
(303,256,o),
(208,256,cs),
(132,256,l)
);
}
);
width = 448;
},
{
anchors = (
{
name = bottom;
pos = (106,0);
},
{
name = top;
pos = (224,640);
}
);
background = {
shapes = (
{
closed = 1;
nodes = (
(50,0,l),
(162,0,l),
(162,640,l),
(50,640,l)
);
},
{
closed = 1;
nodes = (
(107,640,l),
(107,560,l),
(194,560,ls),
(274,560,o),
(295,501,o),
(295,409,cs),
(295,322,o),
(276,263,o),
(194,263,cs),
(105,263,l),
(105,184,l),
(218,184,ls),
(334,184,o),
(411,261,o),
(411,410,cs),
(411,558,o),
(335,640,o),
(218,640,cs)
);
}
);
};
layerId = "92967D72-867E-4A8B-929F-F44D834DD4C9";
shapes = (
{
closed = 1;
nodes = (
(162,0,l),
(162,184,l),
(218,184,ls),
(334,184,o),
(411,261,o),
(411,410,cs),
(411,558,o),
(335,640,o),
(218,640,cs),
(50,640,l),
(50,0,l)
);
},
{
closed = 1;
nodes = (
(162,560,l),
(194,560,ls),
(274,560,o),
(295,501,o),
(295,409,cs),
(295,322,o),
(276,263,o),
(194,263,cs),
(162,263,l)
);
}
);
width = 448;
},
{
anchors = (
{
name = bottom;
pos = (90,0);
},
{
name = top;
pos = (224,640);
}
);
layerId = "7DDCEF54-C770-4FAD-B154-EE8058BAA7E5";
shapes = (
{
closed = 1;
nodes = (
(114,0,l),
(114,202,l),
(213,202,ls),
(321,202,o),
(395,275,o),
(395,419,cs),
(395,562,o),
(322,640,o),
(213,640,cs),
(66,640,l),
(66,0,l)
);
},
{
closed = 1;
nodes = (
(114,596,l),
(210,596,ls),
(306,596,o),
(343,526,o),
(343,419,cs),
(343,316,o),
(308,246,o),
(211,246,cs),
(114,246,l)
);
}
);
width = 448;
},
{
anchors = (
{
name = bottom;
pos = (45,0);
},
{
name = top;
pos = (287,640);
}
);
layerId = "C21910D5-47BB-472B-A83D-89B2B42B8F2A";
shapes = (
{
closed = 1;
nodes = (
(69,0,l),
(110,202,l),
(210,202,ls),
(318,202,o),
(405,273,o),
(433,415,cs),
(462,560,o),
(403,640,o),
(294,640,cs),
(149,640,l),
(21,0,l)
);
},
{
closed = 1;
nodes = (
(188,596,l),
(286,596,ls),
(382,596,o),
(404,528,o),
(383,423,cs),
(362,318,o),
(311,246,o),
(214,246,cs),
(118,246,l)
);
}
);
width = 448;
},
{
anchors = (
{
name = bottom;
pos = (51,0);
},
{
name = top;
pos = (287,640);
}
);
layerId = "BA106321-29DE-4FD0-898D-B7B08A4D4215";
shapes = (
{
closed = 1;
nodes = (
(87,0,l),
(125,192,l),
(211,192,ls),
(323,192,o),
(409,264,o),
(438,408,cs),
(467,557,o),
(407,640,o),
(295,640,cs),
(143,640,l),
(15,0,l)
);
},
{
closed = 1;
nodes = (
(202,576,l),
(281,576,ls),
(374,576,o),
(383,515,o),
(364,420,cs),
(345,323,o),
(307,256,o),
(212,256,cs),
(138,256,l)
);
}
);
width = 448;
},
{
anchors = (
{
name = bottom;
pos = (61,0);
},
{
name = top;
pos = (287,640);
}
);
layerId = "EBAB10B0-9FDE-44C7-9B16-DD2313400F4E";
shapes = (
{
closed = 1;
nodes = (
(117,0,l),
(154,184,l),
(213,184,ls),
(329,184,o),
(418,257,o),
(446,401,cs),
(477,554,o),
(415,640,o),
(298,640,cs),
(133,640,l),
(5,0,l)
);
},
{
closed = 1;
nodes = (
(229,560,l),
(264,560,ls),
(344,560,o),
(351,505,o),
(334,418,cs),
(315,326,o),
(281,263,o),
(199,263,cs),
(170,263,l)
);
}
);
width = 448;
}
);
unicode = 80;
}
{
glyphname = Q;
layers = (
{
anchors = (
{
name = center;
pos = (224,319);
},
{
name = top;
pos = (224,640);
}
);
hints = (
{
horizontal = 1;
options = 4;
origin = (1,11);
target = (2,11);
type = TTStem;
},
{
horizontal = 1;
options = 4;
origin = (1,5);
target = (2,5);
type = TTStem;
},
{
horizontal = 1;
origin = (0,7);
type = TTSnap;
},
{
horizontal = 1;
options = 4;
origin = (0,7);
target = (0,0);
type = TTStem;
},
{
options = 4;
origin = (1,8);
target = (2,2);
type = TTStem;
},
{
options = 4;
origin = (1,2);
target = (2,8);
type = TTStem;
},
{
options = 8;
origin = (1,8);
type = TTSnap;
},
{
options = 8;
origin = (1,2);
type = TTSnap;
},
{
options = 4;
origin = (1,2);
target = (0,0);
type = TTShift;
},
{
horizontal = 1;
options = 4;
origin = (1,11);
other1 = (0,3,1,2);
target = (1,5);
type = TTInterpolate;
}
);
layerId = "95FB0C11-C828-4064-8966-34220AA4D426";
shapes = (
{
closed = 1;
nodes = (
(415,-78,l),
(329,-72,o),
(291,-60,o),
(281,0,c),
(206,0,l),
(222,-101,o),
(305,-137,o),
(405,-145,c)
);
},
{
closed = 1;
nodes = (
(353,-10,o),
(411,102,o),
(411,319,cs),
(411,541,o),
(353,650,o),
(224,650,cs),
(98,650,o),
(37,541,o),
(37,319,cs),
(37,102,o),
(98,-10,o),
(224,-10,cs)
);
},
{
closed = 1;
nodes = (
(143,56,o),
(113,128,o),
(113,319,cs),
(113,512,o),
(143,584,o),
(224,584,cs),
(305,584,o),
(335,512,o),
(335,319,cs),
(335,128,o),
(305,56,o),
(224,56,cs)
);
}
);
width = 448;
},
{
anchors = (
{
name = center;
pos = (224,319);
},
{
name = top;
pos = (224,640);
}
);
layerId = "92967D72-867E-4A8B-929F-F44D834DD4C9";
shapes = (
{
closed = 1;
nodes = (
(421,-60,l),
(334,-58,o),
(286,-41,o),
(278,20,c),
(185,20,l),
(203,-95,o),
(275,-147,o),
(412,-152,c)
);
},
{
closed = 1;
nodes = (
(360,-10,o),
(421,102,o),
(421,319,cs),
(421,541,o),
(360,650,o),
(224,650,cs),
(92,650,o),
(27,541,o),
(27,319,cs),
(27,102,o),
(92,-10,o),
(224,-10,cs)
);
},
{
closed = 1;
nodes = (
(165,72,o),
(143,140,o),
(143,319,cs),
(143,500,o),
(165,568,o),
(224,568,cs),
(283,568,o),
(305,500,o),
(305,319,cs),
(305,140,o),
(283,72,o),
(224,72,cs)
);
}
);
width = 448;
},
{
anchors = (
{
name = center;
pos = (224,319);
},
{
name = top;
pos = (224,640);
}
);
layerId = "7DDCEF54-C770-4FAD-B154-EE8058BAA7E5";
shapes = (
{
closed = 1;
nodes = (
(405,-82,l),
(313,-81,o),
(277,-63,o),
(267,0,c),
(222,0,l),
(235,-90,o),
(288,-128,o),
(403,-128,c)
);
},
{
closed = 1;
nodes = (
(349,-10,o),
(405,102,o),
(405,319,cs),
(405,541,o),
(349,650,o),
(224,650,cs),
(102,650,o),
(43,541,o),
(43,319,cs),
(43,102,o),
(102,-10,o),
(224,-10,cs)
);
},
{
closed = 1;
nodes = (
(132,34,o),
(95,121,o),
(95,319,cs),
(95,519,o),
(132,606,o),
(224,606,cs),
(316,606,o),
(353,519,o),
(353,319,cs),
(353,121,o),
(316,34,o),
(224,34,cs)
);
}
);
width = 448;
},
{
anchors = (
{
name = center;
pos = (243,319);
},
{
name = top;
pos = (307,640);
}
);
layerId = "C21910D5-47BB-472B-A83D-89B2B42B8F2A";
shapes = (
{
closed = 1;
nodes = (
(342,-82,l),
(250,-81,o),
(219,-65,o),
(222,-2,c),
(178,2,l),
(173,-88,o),
(219,-128,o),
(334,-128,c)
);
},
{
closed = 1;
nodes = (
(304,-10,o),
(380,100,o),
(423,315,cs),
(468,539,o),
(432,650,o),
(306,650,cs),
(185,650,o),
(107,543,o),
(63,323,cs),
(19,104,o),
(57,-10,o),
(181,-10,cs)
);
},
{
closed = 1;
nodes = (
(92,34,o),
(74,119,o),
(113,315,cs),
(154,517,o),
(210,606,o),
(304,606,cs),
(394,606,o),
(412,521,o),
(373,323,cs),
(333,123,o),
(276,34,o),
(183,34,cs)
);
}
);
width = 448;
},
{
anchors = (
{
name = center;
pos = (243,319);
},
{
name = top;
pos = (307,640);
}
);
layerId = "BA106321-29DE-4FD0-898D-B7B08A4D4215";
shapes = (
{
closed = 1;
nodes = (
(352,-78,l),
(267,-72,o),
(233,-63,o),
(235,-3,c),
(162,3,l),
(158,-98,o),
(235,-137,o),
(334,-145,c)
);
},
{
closed = 1;
nodes = (
(309,-10,o),
(386,99,o),
(429,313,cs),
(474,538,o),
(436,650,o),
(304,650,cs),
(181,650,o),
(101,544,o),
(57,325,cs),
(13,105,o),
(54,-10,o),
(182,-10,cs)
);
},
{
closed = 1;
nodes = (
(107,56,o),
(93,125,o),
(131,313,cs),
(170,509,o),
(218,584,o),
(301,584,cs),
(380,584,o),
(393,515,o),
(355,325,cs),
(316,131,o),
(269,56,o),
(185,56,cs)
);
}
);
width = 448;
},
{
anchors = (
{
name = center;
pos = (243,319);
},
{
name = top;
pos = (307,640);
}
);
layerId = "EBAB10B0-9FDE-44C7-9B16-DD2313400F4E";
shapes = (
{
closed = 1;
nodes = (
(361,-60,l),
(274,-58,o),
(232,-45,o),
(236,16,c),
(146,24,l),
(141,-91,o),
(204,-147,o),
(340,-152,c)
);
},
{
closed = 1;
nodes = (
(316,-10,o),
(396,98,o),
(438,310,cs),
(484,537,o),
(442,650,o),
(303,650,cs),
(174,650,o),
(91,545,o),
(48,328,cs),
(3,106,o),
(48,-10,o),
(184,-10,cs)
);
},
{
closed = 1;
nodes = (
(131,72,o),
(125,136,o),
(160,310,cs),
(197,496,o),
(237,568,o),
(299,568,cs),
(355,568,o),
(361,504,o),
(326,328,cs),
(289,144,o),
(249,72,o),
(187,72,cs)
);
}
);
width = 448;
},
{
anchors = (
{
name = center;
pos = (224,319);
},
{
name = top;
pos = (224,640);
}
);
associatedMasterId = "95FB0C11-C828-4064-8966-34220AA4D426";
attr = {
coordinates = (
400,
0,
-64
);
};
background = {
shapes = (
{
closed = 1;
nodes = (
(415,-78,l),
(329,-72,o),
(291,-60,o),
(281,0,c),
(206,0,l),
(222,-101,o),
(305,-137,o),
(405,-145,c)
);
},
{
ref = O;
}
);
};
hints = (
{
horizontal = 1;
options = 4;
origin = (1,11);
target = (2,11);
type = TTStem;
},
{
horizontal = 1;
options = 4;
origin = (1,5);
target = (2,5);
type = TTStem;
},
{
horizontal = 1;
origin = (0,7);
type = TTSnap;
},
{
horizontal = 1;
options = 4;
origin = (0,7);
target = (0,0);
type = TTStem;
},
{
options = 4;
origin = (1,8);
target = (2,2);
type = TTStem;
},
{
options = 4;
origin = (1,2);
target = (2,8);
type = TTStem;
},
{
origin = (1,8);
type = TTSnap;
},
{
origin = (1,2);
type = TTSnap;
},
{
options = 4;
origin = (1,2);
target = (0,0);
type = TTShift;
}
);
layerId = "BDA2CBE2-3E64-406D-81E8-E5B2DE51A401";
name = "15. Apr. 21, 10:34";
shapes = (
{
closed = 1;
nodes = (
(415,-14,l),
(335,-13,o),
(304,-10,o),
(296,13,c),
(211,0,l),
(243,-70,o),
(302,-79,o),
(412,-81,c)
);
},
{
closed = 1;
nodes = (
(353,-10,o),
(411,102,o),
(411,319,cs),
(411,541,o),
(353,650,o),
(224,650,cs),
(98,650,o),
(37,541,o),
(37,319,cs),
(37,102,o),
(98,-10,o),
(224,-10,cs)
);
},
{
closed = 1;
nodes = (
(143,56,o),
(113,128,o),
(113,319,cs),
(113,512,o),
(143,584,o),
(224,584,cs),
(305,584,o),
(335,512,o),
(335,319,cs),
(335,128,o),
(305,56,o),
(224,56,cs)
);
}
);
width = 448;
},
{
anchors = (
{
name = center;
pos = (243,319);
},
{
name = top;
pos = (307,640);
}
);
associatedMasterId = "BA106321-29DE-4FD0-898D-B7B08A4D4215";
attr = {
coordinates = (
400,
1,
-64
);
};
layerId = "86B221DC-84BE-45AD-B1F2-DEF057376BF0";
name = "17. Mai 21, 10:32";
shapes = (
{
closed = 1;
nodes = (
(365,-14,l),
(285,-13,o),
(256,-13,o),
(252,10,c),
(168,3,l),
(186,-67,o),
(244,-79,o),
(354,-81,c)
);
},
{
closed = 1;
nodes = (
(309,-10,o),
(386,99,o),
(429,313,cs),
(474,538,o),
(436,650,o),
(304,650,cs),
(181,650,o),
(101,544,o),
(57,325,cs),
(13,105,o),
(54,-10,o),
(182,-10,cs)
);
},
{
closed = 1;
nodes = (
(107,56,o),
(93,125,o),
(131,313,cs),
(170,509,o),
(218,584,o),
(301,584,cs),
(380,584,o),
(393,515,o),
(355,325,cs),
(316,131,o),
(269,56,o),
(185,56,cs)
);
}
);
width = 448;
}
);
unicode = 81;
}
{
glyphname = R;
kernRight = R;
layers = (
{
anchors = (
{
name = bottom;
pos = (224,0);
},
{
name = top;
pos = (224,640);
}
);
hints = (
{
horizontal = 1;
options = 4;
origin = (0,2);
target = (2,7);
type = TTShift;
},
{
horizontal = 1;
options = 4;
origin = (0,12);
target = (1,2);
type = TTStem;
},
{
horizontal = 1;
origin = (0,3);
type = TTSnap;
},
{
horizontal = 1;
options = 4;
origin = (0,3);
target = (1,0);
type = TTStem;
},
{
horizontal = 1;
options = 4;
origin = (0,12);
other1 = (0,9,2,3);
target = (0,3);
type = TTInterpolate;
},
{
options = 4;
origin = (0,1);
target = (0,2);
type = TTStem;
},
{
options = 4;
origin = (0,9);
target = (1,5);
type = TTStem;
},
{
options = 4;
origin = (2,0);
target = (2,7);
type = TTStem;
},
{
options = 4;
origin = (0,2);
target = (1,0);
type = TTShift;
},
{
options = 8;
origin = (0,1);
type = TTSnap;
},
{
options = 8;
origin = (2,0);
type = TTSnap;
},
{
options = 8;
origin = (0,9);
type = TTSnap;
},
{
options = 4;
origin = (0,1);
other1 = (0,9,2,3);
target = (0,9);
type = TTInterpolate;
}
);
layerId = "95FB0C11-C828-4064-8966-34220AA4D426";
shapes = (
{
closed = 1;
nodes = (
(60,640,l),
(60,0,l),
(132,0,l),
(132,241,l),
(196,241,l),
(204,251,l),
(215,251,ls),
(327,251,o),
(401,312,o),
(401,440,cs),
(401,568,o),
(327,640,o),
(215,640,cs)
);
},
{
closed = 1;
nodes = (
(132,305,l),
(132,576,l),
(208,576,ls),
(301,576,o),
(325,522,o),
(325,440,cs),
(325,359,o),
(303,305,o),
(208,305,cs)
);
},
{
closed = 1;
nodes = (
(411,0,l),
(396,165,o),
(311,271,o),
(176,271,c),
(176,244,l),
(271,201,o),
(323,135,o),
(337,0,c)
);
}
);
width = 448;
},
{
anchors = (
{
name = bottom;
pos = (224,0);
},
{
name = top;
pos = (224,640);
}
);
layerId = "92967D72-867E-4A8B-929F-F44D834DD4C9";
shapes = (
{
closed = 1;
nodes = (
(50,640,l),
(50,0,l),
(162,0,l),
(162,233,l),
(196,233,l),
(204,243,l),
(215,243,ls),
(333,243,o),
(411,305,o),
(411,433,cs),
(411,566,o),
(335,640,o),
(218,640,cs)
);
},
{
closed = 1;
nodes = (
(162,313,l),
(162,560,l),
(194,560,ls),
(274,560,o),
(295,509,o),
(295,437,cs),
(295,365,o),
(276,313,o),
(194,313,cs)
);
},
{
closed = 1;
nodes = (
(421,0,l),
(407,172,o),
(316,279,o),
(176,279,c),
(176,236,l),
(253,195,o),
(296,129,o),
(307,0,c)
);
}
);
width = 448;
},
{
anchors = (
{
name = bottom;
pos = (224,0);
},
{
name = top;
pos = (224,640);
}
);
layerId = "7DDCEF54-C770-4FAD-B154-EE8058BAA7E5";
shapes = (
{
closed = 1;
nodes = (
(66,640,l),
(66,0,l),
(114,0,l),
(114,251,l),
(196,251,l),
(204,253,l),
(215,253,ls),
(323,253,o),
(395,314,o),
(395,446,cs),
(395,570,o),
(326,640,o),
(215,640,cs)
);
},
{
closed = 1;
nodes = (
(114,295,l),
(114,596,l),
(214,596,ls),
(312,596,o),
(343,535,o),
(343,445,cs),
(343,355,o),
(312,295,o),
(214,295,cs)
);
},
{
closed = 1;
nodes = (
(405,0,l),
(389,161,o),
(302,270,o),
(176,270,c),
(176,254,l),
(292,209,o),
(338,137,o),
(355,0,c)
);
}
);
width = 448;
},
{
anchors = (
{
name = bottom;
pos = (179,0);
},
{
name = top;
pos = (291,640);
}
);
layerId = "C21910D5-47BB-472B-A83D-89B2B42B8F2A";
shapes = (
{
closed = 1;
nodes = (
(149,640,l),
(21,0,l),
(69,0,l),
(119,251,l),
(201,251,l),
(210,253,l),
(223,253,ls),
(331,253,o),
(413,312,o),
(439,442,cs),
(464,568,o),
(407,640,o),
(296,640,cs)
);
},
{
closed = 1;
nodes = (
(128,295,l),
(188,596,l),
(290,596,ls),
(388,596,o),
(406,537,o),
(388,449,cs),
(370,357,o),
(324,295,o),
(226,295,cs)
);
},
{
closed = 1;
nodes = (
(360,0,l),
(376,160,o),
(309,270,o),
(183,270,c),
(184,255,l),
(291,209,o),
(321,138,o),
(311,0,c)
);
}
);
width = 448;
},
{
anchors = (
{
name = bottom;
pos = (179,0);
},
{
name = top;
pos = (291,640);
}
);
layerId = "BA106321-29DE-4FD0-898D-B7B08A4D4215";
shapes = (
{
closed = 1;
nodes = (
(143,640,l),
(15,0,l),
(87,0,l),
(135,241,l),
(200,241,l),
(210,251,l),
(223,251,ls),
(335,251,o),
(418,309,o),
(443,434,cs),
(469,565,o),
(408,640,o),
(296,640,cs)
);
},
{
closed = 1;
nodes = (
(148,305,l),
(202,576,l),
(281,576,ls),
(374,576,o),
(385,525,o),
(369,446,cs),
(353,362,o),
(317,305,o),
(222,305,cs)
);
},
{
closed = 1;
nodes = (
(365,0,l),
(383,163,o),
(318,271,o),
(183,271,c),
(183,245,l),
(269,202,o),
(306,136,o),
(293,0,c)
);
}
);
width = 448;
},
{
anchors = (
{
name = bottom;
pos = (179,0);
},
{
name = top;
pos = (291,640);
}
);
layerId = "EBAB10B0-9FDE-44C7-9B16-DD2313400F4E";
shapes = (
{
closed = 1;
nodes = (
(133,640,l),
(5,0,l),
(117,0,l),
(164,233,l),
(199,233,l),
(209,243,l),
(222,243,ls),
(340,243,o),
(426,301,o),
(451,424,cs),
(479,562,o),
(415,640,o),
(298,640,cs)
);
},
{
closed = 1;
nodes = (
(180,313,l),
(231,570,l),
(266,570,ls),
(346,570,o),
(354,521,o),
(340,451,cs),
(324,371,o),
(291,313,o),
(209,313,cs)
);
},
{
closed = 1;
nodes = (
(375,0,l),
(395,169,o),
(324,279,o),
(184,279,c),
(182,238,l),
(249,196,o),
(277,132,o),
(262,0,c)
);
}
);
width = 448;
}
);
unicode = 82;
}
{
glyphname = S;
layers = (
{
anchors = (
{
name = bottom;
pos = (224,0);
},
{
name = top;
pos = (224,640);
}
);
background = {
shapes = (
{
closed = 1;
nodes = (
(376,630,l),
(341,642,o),
(294,648,o),
(256,648,cs),
(125,648,o),
(59,572,o),
(59,465,cs),
(59,230,o),
(315,298,o),
(315,143,cs),
(315,95,o),
(290,58,o),
(198,58,cs),
(148,58,o),
(109,69,o),
(70,84,c),
(51,18,l),
(96,1,o),
(149,-8,o),
(195,-8,cs),
(319,-8,o),
(391,42,o),
(391,149,cs),
(391,356,o),
(135,286,o),
(135,468,cs),
(135,532,o),
(155,582,o),
(256,582,cs),
(286,582,o),
(325,576,o),
(360,564,c)
);
}
);
};
hints = (
{
horizontal = 1;
options = 4;
origin = (0,31);
target = (0,24);
type = TTStem;
},
{
horizontal = 1;
options = 4;
origin = (0,15);
target = (0,8);
type = TTStem;
},
{
options = 4;
origin = (0,18);
target = (0,5);
type = TTStem;
},
{
options = 4;
origin = (0,2);
target = (0,21);
type = TTStem;
},
{
options = 4;
origin = (0,18);
target = (0,28);
type = TTShift;
},
{
options = 4;
origin = (0,2);
target = (0,12);
type = TTShift;
},
{
options = 8;
origin = (0,18);
type = TTSnap;
},
{
options = 8;
origin = (0,2);
type = TTSnap;
},
{
horizontal = 1;
options = 4;
origin = (0,31);
other1 = (0,21,0);
target = (0,8);
type = TTInterpolate;
},
{
horizontal = 1;
options = 4;
origin = (0,24);
other1 = (0,5,0);
target = (0,15);
type = TTInterpolate;
}
);
layerId = "95FB0C11-C828-4064-8966-34220AA4D426";
shapes = (
{
closed = 1;
nodes = (
(319,-8,o),
(391,42,o),
(391,149,cs),
(391,356,o),
(135,286,o),
(135,468,cs),
(135,532,o),
(155,584,o),
(256,584,cs),
(286,584,o),
(325,578,o),
(360,566,c),
(376,630,l),
(341,642,o),
(294,648,o),
(256,648,cs),
(125,648,o),
(59,572,o),
(59,465,cs),
(59,230,o),
(315,298,o),
(315,143,cs),
(315,95,o),
(290,56,o),
(198,56,cs),
(148,56,o),
(109,67,o),
(70,82,c),
(51,18,l),
(96,1,o),
(149,-8,o),
(195,-8,cs)
);
}
);
width = 448;
},
{
anchors = (
{
name = bottom;
pos = (224,0);
},
{
name = top;
pos = (224,640);
}
);
background = {
shapes = (
{
closed = 1;
nodes = (
(390,626,l),
(353,640,o),
(305,648,o),
(259,648,cs),
(119,648,o),
(49,570,o),
(49,451,cs),
(49,219,o),
(285,279,o),
(285,152,cs),
(285,110,o),
(262,74,o),
(178,74,cs),
(132,74,o),
(94,86,o),
(61,98,c),
(37,24,l),
(84,3,o),
(145,-8,o),
(197,-8,cs),
(325,-8,o),
(401,44,o),
(401,161,cs),
(401,370,o),
(165,306,o),
(165,460,cs),
(165,518,o),
(183,566,o),
(273,566,cs),
(303,566,o),
(341,558,o),
(370,549,c)
);
}
);
};
layerId = "92967D72-867E-4A8B-929F-F44D834DD4C9";
shapes = (
{
closed = 1;
nodes = (
(325,-8,o),
(401,44,o),
(401,161,cs),
(401,370,o),
(165,306,o),
(165,460,cs),
(165,518,o),
(183,566,o),
(273,566,cs),
(303,566,o),
(341,558,o),
(370,549,c),
(390,626,l),
(353,640,o),
(305,648,o),
(259,648,cs),
(119,648,o),
(49,570,o),
(49,451,cs),
(49,219,o),
(285,279,o),
(285,152,cs),
(285,110,o),
(262,74,o),
(178,74,cs),
(132,74,o),
(94,86,o),
(61,98,c),
(37,24,l),
(84,3,o),
(145,-8,o),
(197,-8,cs)
);
}
);
width = 448;
},
{
anchors = (
{
name = bottom;
pos = (224,0);
},
{
name = top;
pos = (224,640);
}
);
layerId = "7DDCEF54-C770-4FAD-B154-EE8058BAA7E5";
shapes = (
{
closed = 1;
nodes = (
(315,-8,o),
(384,41,o),
(384,142,cs),
(384,348,o),
(116,274,o),
(116,475,cs),
(116,545,o),
(151,604,o),
(253,604,cs),
(293,604,o),
(325,598,o),
(357,590,c),
(367,630,l),
(339,639,o),
(295,648,o),
(254,648,cs),
(130,648,o),
(66,573,o),
(66,473,cs),
(66,237,o),
(334,309,o),
(334,140,cs),
(334,79,o),
(305,36,o),
(203,36,cs),
(150,36,o),
(112,45,o),
(72,57,c),
(60,17,l),
(103,2,o),
(151,-8,o),
(208,-8,cs)
);
}
);
width = 448;
},
{
anchors = (
{
name = bottom;
pos = (191,0);
},
{
name = top;
pos = (307,640);
}
);
background = {
shapes = (
{
closed = 1;
nodes = (
(300,-8,o),
(370,62,o),
(370,160,cs),
(370,329,o),
(160,302,o),
(160,440,cs),
(160,544,o),
(216,595,o),
(334,595,cs),
(367,595,o),
(401,590,o),
(428,583,c),
(445,630,l),
(417,640,o),
(377,648,o),
(334,648,cs),
(184,648,o),
(111,564,o),
(111,443,cs),
(111,257,o),
(321,296,o),
(321,155,cs),
(321,90,o),
(273,45,o),
(161,45,cs),
(121,45,o),
(81,52,o),
(43,67,c),
(20,22,l),
(62,0,o),
(114,-8,o),
(161,-8,cs)
);
}
);
};
layerId = "C21910D5-47BB-472B-A83D-89B2B42B8F2A";
shapes = (
{
closed = 1;
nodes = (
(300,-8,o),
(370,62,o),
(370,160,cs),
(370,324,o),
(159,298,o),
(159,448,cs),
(159,547,o),
(216,604,o),
(334,604,cs),
(369,604,o),
(404,599,o),
(433,592,c),
(445,630,l),
(417,640,o),
(377,648,o),
(334,648,cs),
(184,648,o),
(111,564,o),
(111,446,cs),
(111,269,o),
(322,288,o),
(322,156,cs),
(322,89,o),
(273,36,o),
(161,36,cs),
(118,36,o),
(76,43,o),
(35,58,c),
(20,22,l),
(62,2,o),
(114,-8,o),
(161,-8,cs)
);
}
);
width = 448;
},
{
anchors = (
{
name = bottom;
pos = (191,0);
},
{
name = top;
pos = (307,640);
}
);
background = {
shapes = (
{
closed = 1;
nodes = (
(455,629,l),
(422,641,o),
(376,648,o),
(336,648,cs),
(207,648,o),
(129,575,o),
(108,471,cs),
(104,452,o),
(102,435,o),
(102,419,cs),
(102,242,o),
(328,289,o),
(300,149,cs),
(290,98,o),
(254,58,o),
(160,58,cs),
(112,58,o),
(75,68,o),
(39,83,c),
(12,19,l),
(54,2,o),
(105,-8,o),
(154,-8,cs),
(275,-8,o),
(354,39,o),
(375,143,cs),
(417,353,o),
(147,283,o),
(183,462,cs),
(196,529,o),
(229,582,o),
(333,582,cs),
(360,582,o),
(398,577,o),
(431,565,c)
);
}
);
};
layerId = "BA106321-29DE-4FD0-898D-B7B08A4D4215";
shapes = (
{
closed = 1;
nodes = (
(304,-8,o),
(377,62,o),
(377,162,cs),
(377,333,o),
(178,312,o),
(178,448,cs),
(178,537,o),
(228,584,o),
(334,584,cs),
(369,584,o),
(405,579,o),
(434,571,c),
(451,629,l),
(422,639,o),
(379,648,o),
(334,648,cs),
(180,648,o),
(104,564,o),
(104,441,cs),
(104,262,o),
(303,280,o),
(303,155,cs),
(303,95,o),
(260,56,o),
(161,56,cs),
(119,56,o),
(77,63,o),
(37,79,c),
(14,23,l),
(58,1,o),
(112,-8,o),
(161,-8,cs)
);
}
);
width = 448;
},
{
anchors = (
{
name = bottom;
pos = (191,0);
},
{
name = top;
pos = (307,640);
}
);
background = {
shapes = (
{
closed = 1;
nodes = (
(282,-8,o),
(365,40,o),
(387,152,cs),
(429,366,o),
(181,302,o),
(210,451,cs),
(222,514,o),
(255,566,o),
(348,566,cs),
(375,566,o),
(411,559,o),
(438,550,c),
(468,624,l),
(433,638,o),
(387,648,o),
(337,648,cs),
(201,648,o),
(119,574,o),
(96,460,cs),
(49,223,o),
(297,283,o),
(272,161,cs),
(262,114,o),
(229,74,o),
(142,74,cs),
(99,74,o),
(63,84,o),
(33,96,c),
(-1,26,l),
(43,5,o),
(102,-8,o),
(157,-8,cs)
);
}
);
};
layerId = "EBAB10B0-9FDE-44C7-9B16-DD2313400F4E";
shapes = (
{
closed = 1;
nodes = (
(311,-8,o),
(389,62,o),
(389,166,cs),
(389,340,o),
(208,328,o),
(208,462,cs),
(208,526,o),
(248,566,o),
(334,566,cs),
(373,566,o),
(412,560,o),
(444,551,c),
(461,627,l),
(430,638,o),
(383,648,o),
(334,648,cs),
(174,648,o),
(92,564,o),
(92,437,cs),
(92,270,o),
(273,254,o),
(273,155,cs),
(273,103,o),
(239,74,o),
(161,74,cs),
(116,74,o),
(70,82,o),
(27,99,c),
(4,25,l),
(51,2,o),
(109,-8,o),
(161,-8,cs)
);
}
);
width = 448;
}
);
unicode = 83;
}
{
glyphname = T;
layers = (
{
anchors = (
{
name = bottom;
pos = (224,0);
},
{
name = center;
pos = (224,320);
},
{
name = top;
pos = (224,640);
}
);
hints = (
{
horizontal = 1;
options = 4;
origin = (0,1);
target = (0,3);
type = TTStem;
},
{
horizontal = 1;
options = 4;
origin = (0,3);
target = (0,6);
type = TTShift;
},
{
horizontal = 1;
origin = (0,4);
type = TTSnap;
},
{
options = 8;
origin = (0,4);
type = TTSnap;
},
{
options = 4;
origin = (0,4);
target = (0,5);
type = TTStem;
}
);
layerId = "95FB0C11-C828-4064-8966-34220AA4D426";
shapes = (
{
closed = 1;
nodes = (
(404,640,l),
(44,640,l),
(44,576,l),
(188,576,l),
(188,0,l),
(260,0,l),
(260,576,l),
(404,576,l)
);
}
);
width = 448;
},
{
anchors = (
{
name = bottom;
pos = (224,0);
},
{
name = center;
pos = (224,320);
},
{
name = top;
pos = (224,640);
}
);
layerId = "92967D72-867E-4A8B-929F-F44D834DD4C9";
shapes = (
{
closed = 1;
nodes = (
(424,640,l),
(24,640,l),
(24,560,l),
(168,560,l),
(168,0,l),
(280,0,l),
(280,560,l),
(424,560,l)
);
}
);
width = 448;
},
{
anchors = (
{
name = bottom;
pos = (224,0);
},
{
name = center;
pos = (224,320);
},
{
name = top;
pos = (224,640);
}
);
layerId = "7DDCEF54-C770-4FAD-B154-EE8058BAA7E5";
shapes = (
{
closed = 1;
nodes = (
(392,640,l),
(56,640,l),
(56,596,l),
(199,596,l),
(199,0,l),
(249,0,l),
(249,596,l),
(392,596,l)
);
}
);
width = 448;
},
{
anchors = (
{
name = bottom;
pos = (179,0);
},
{
name = center;
pos = (243,320);
},
{
name = top;
pos = (307,640);
}
);
layerId = "C21910D5-47BB-472B-A83D-89B2B42B8F2A";
shapes = (
{
closed = 1;
nodes = (
(475,640,l),
(139,640,l),
(130,596,l),
(273,596,l),
(154,0,l),
(204,0,l),
(323,596,l),
(466,596,l)
);
}
);
width = 448;
},
{
anchors = (
{
name = bottom;
pos = (179,0);
},
{
name = center;
pos = (243,320);
},
{
name = top;
pos = (307,640);
}
);
layerId = "BA106321-29DE-4FD0-898D-B7B08A4D4215";
shapes = (
{
closed = 1;
nodes = (
(487,640,l),
(127,640,l),
(114,576,l),
(258,576,l),
(143,0,l),
(215,0,l),
(330,576,l),
(474,576,l)
);
}
);
width = 448;
},
{
anchors = (
{
name = bottom;
pos = (179,0);
},
{
name = center;
pos = (243,320);
},
{
name = top;
pos = (307,640);
}
);
layerId = "EBAB10B0-9FDE-44C7-9B16-DD2313400F4E";
shapes = (
{
closed = 1;
nodes = (
(507,640,l),
(107,640,l),
(91,560,l),
(235,560,l),
(123,0,l),
(235,0,l),
(347,560,l),
(491,560,l)
);
}
);
width = 448;
}
);
unicode = 84;
}
{
glyphname = V;
layers = (
{
background = {
shapes = (
{
closed = 1;
nodes = (
(256,-3,l),
(340,164,o),
(393,397,o),
(413,640,c),
(338,640,l),
(317,402,o),
(273,201,o),
(213,63,c),
(235,63,l),
(175,201,o),
(131,402,o),
(110,640,c),
(35,640,l),
(55,397,o),
(108,164,o),
(192,-3,c)
);
}
);
};
hints = (
{
horizontal = 1;
options = 4;
origin = (0,11);
target = (0,4);
type = TTShift;
},
{
horizontal = 1;
options = 4;
origin = (0,15);
target = (0,7,0,11);
type = TTShift;
},
{
options = 8;
origin = (0,12);
type = TTSnap;
},
{
options = 8;
origin = (0,3);
type = TTSnap;
},
{
options = 4;
origin = (0,3);
target = (0,4);
type = TTStem;
},
{
options = 4;
origin = (0,12);
target = (0,11);
type = TTStem;
}
);
layerId = "95FB0C11-C828-4064-8966-34220AA4D426";
shapes = (
{
closed = 1;
nodes = (
(256,-3,l),
(340,164,o),
(393,397,o),
(413,640,c),
(338,640,l),
(317,402,o),
(273,201,o),
(213,63,c),
(235,63,l),
(175,201,o),
(131,402,o),
(110,640,c),
(35,640,l),
(55,397,o),
(108,164,o),
(192,-3,c)
);
}
);
width = 448;
},
{
background = {
shapes = (
{
closed = 1;
nodes = (
(45,396,o),
(94,164,o),
(172,-2,c),
(276,-2,l),
(354,164,o),
(403,396,o),
(422,638,c),
(308,643,l),
(290,404,o),
(254,202,o),
(205,64,c),
(243,64,l),
(194,202,o),
(158,404,o),
(140,643,c),
(26,638,l)
);
}
);
};
layerId = "92967D72-867E-4A8B-929F-F44D834DD4C9";
shapes = (
{
closed = 1;
nodes = (
(276,0,l),
(355,166,o),
(404,398,o),
(423,640,c),
(308,640,l),
(290,402,o),
(254,201,o),
(205,63,c),
(243,63,l),
(194,201,o),
(158,402,o),
(140,640,c),
(25,640,l),
(44,398,o),
(93,166,o),
(172,0,c)
);
}
);
width = 448;
},
{
layerId = "7DDCEF54-C770-4FAD-B154-EE8058BAA7E5";
shapes = (
{
closed = 1;
nodes = (
(244,-3,l),
(329,164,o),
(385,397,o),
(407,640,c),
(356,640,l),
(333,397,o),
(283,192,o),
(219,51,c),
(229,51,l),
(165,192,o),
(115,397,o),
(92,640,c),
(41,640,l),
(63,397,o),
(119,164,o),
(204,-3,c)
);
}
);
width = 448;
},
{
layerId = "C21910D5-47BB-472B-A83D-89B2B42B8F2A";
shapes = (
{
closed = 1;
nodes = (
(199,-4,l),
(317,164,o),
(419,397,o),
(490,640,c),
(438,640,l),
(367,398,o),
(276,193,o),
(184,53,c),
(193,49,l),
(158,191,o),
(149,396,o),
(175,640,c),
(125,640,l),
(97,397,o),
(108,163,o),
(161,-4,c)
);
}
);
width = 448;
},
{
layerId = "BA106321-29DE-4FD0-898D-B7B08A4D4215";
shapes = (
{
closed = 1;
nodes = (
(213,-3,l),
(330,164,o),
(429,397,o),
(497,640,c),
(421,640,l),
(352,403,o),
(268,203,o),
(180,66,c),
(201,60,l),
(172,199,o),
(169,401,o),
(193,640,c),
(119,640,l),
(89,397,o),
(97,164,o),
(149,-3,c)
);
}
);
width = 448;
},
{
background = {
shapes = (
{
closed = 1;
nodes = (
(232,-4,l),
(344,162,o),
(438,394,o),
(506,636,c),
(392,644,l),
(326,406,o),
(249,205,o),
(173,67,c),
(209,59,l),
(188,197,o),
(192,398,o),
(222,636,c),
(109,644,l),
(80,402,o),
(84,170,o),
(129,4,c)
);
}
);
};
layerId = "EBAB10B0-9FDE-44C7-9B16-DD2313400F4E";
shapes = (
{
closed = 1;
nodes = (
(235,0,l),
(346,166,o),
(439,398,o),
(507,640,c),
(391,640,l),
(325,404,o),
(249,204,o),
(173,67,c),
(209,59,l),
(188,198,o),
(192,400,o),
(222,640,c),
(108,640,l),
(80,398,o),
(84,166,o),
(130,0,c)
);
}
);
width = 448;
}
);
unicode = 86;
}
{
glyphname = X;
layers = (
{
anchors = (
{
name = bottom;
pos = (224,0);
},
{
name = top;
pos = (224,640);
}
);
background = {
shapes = (
{
closed = 1;
nodes = (
(217,264,l),
(280,182,o),
(303,118,o),
(327,-7,c),
(399,6,l),
(375,133,o),
(344,211,o),
(265,312,c),
(232,337,l),
(165,410,o),
(142,485,o),
(128,643,c),
(56,636,l),
(72,467,o),
(104,376,o),
(190,282,c)
);
},
{
closed = 1;
nodes = (
(258,282,l),
(344,376,o),
(376,467,o),
(392,636,c),
(320,643,l),
(306,485,o),
(283,410,o),
(216,337,c),
(183,312,l),
(104,211,o),
(72,133,o),
(48,6,c),
(120,-7,l),
(144,118,o),
(168,182,o),
(231,264,c)
);
}
);
};
hints = (
{
horizontal = 1;
options = 4;
origin = (0,3);
target = (1,12);
type = TTShift;
},
{
horizontal = 1;
options = 4;
origin = (0,11);
target = (1,4);
type = TTShift;
},
{
options = 8;
origin = (1,11);
type = TTSnap;
},
{
options = 8;
origin = (0,4);
type = TTSnap;
},
{
options = 4;
origin = (1,11);
target = (1,12);
type = TTStem;
},
{
options = 4;
origin = (0,4);
target = (0,3);
type = TTStem;
},
{
options = 4;
origin = (0,4);
target = (1,3);
type = TTShift;
},
{
options = 4;
origin = (1,11);
target = (0,12);
type = TTShift;
},
{
options = 4;
origin = (0,12);
target = (0,11);
type = TTStem;
},
{
options = 4;
origin = (1,3);
target = (1,4);
type = TTStem;
},
{
horizontal = 1;
options = 4;
origin = (0,3);
other1 = (0,3,1,15);
target = (0,11);
type = TTInterpolate;
},
{
horizontal = 1;
options = 4;
origin = (0,3);
other1 = (0,11,1,7);
target = (0,11);
type = TTInterpolate;
}
);
layerId = "95FB0C11-C828-4064-8966-34220AA4D426";
shapes = (
{
closed = 1;
nodes = (
(217,264,l),
(279,184,o),
(302,122,o),
(326,0,c),
(400,0,l),
(376,129,o),
(345,209,o),
(265,312,c),
(230,335,l),
(166,409,o),
(142,484,o),
(128,640,c),
(56,640,l),
(72,469,o),
(104,377,o),
(190,282,c)
);
},
{
closed = 1;
nodes = (
(258,282,l),
(344,377,o),
(376,469,o),
(392,640,c),
(320,640,l),
(306,484,o),
(283,409,o),
(216,337,c),
(183,312,l),
(103,209,o),
(71,129,o),
(47,0,c),
(121,0,l),
(145,122,o),
(169,184,o),
(231,264,c)
);
}
);
width = 448;
},
{
anchors = (
{
name = bottom;
pos = (224,0);
},
{
name = top;
pos = (224,640);
}
);
background = {
shapes = (
{
closed = 1;
nodes = (
(195,264,l),
(253,182,o),
(275,118,o),
(297,-7,c),
(409,6,l),
(387,133,o),
(358,211,o),
(285,312,c),
(254,337,l),
(192,410,o),
(171,485,o),
(158,643,c),
(46,636,l),
(61,467,o),
(90,376,o),
(170,282,c)
);
},
{
closed = 1;
nodes = (
(278,282,l),
(358,376,o),
(387,467,o),
(402,636,c),
(290,643,l),
(277,485,o),
(256,410,o),
(194,337,c),
(163,312,l),
(90,211,o),
(60,133,o),
(38,6,c),
(150,-7,l),
(172,118,o),
(194,182,o),
(253,264,c)
);
}
);
};
layerId = "92967D72-867E-4A8B-929F-F44D834DD4C9";
shapes = (
{
closed = 1;
nodes = (
(195,264,l),
(252,184,o),
(274,122,o),
(296,0,c),
(410,0,l),
(388,129,o),
(359,209,o),
(285,312,c),
(254,337,l),
(192,409,o),
(171,484,o),
(158,640,c),
(46,640,l),
(61,469,o),
(90,377,o),
(170,282,c)
);
},
{
closed = 1;
nodes = (
(278,282,l),
(358,377,o),
(387,469,o),
(402,640,c),
(290,640,l),
(277,484,o),
(256,409,o),
(194,337,c),
(163,312,l),
(89,209,o),
(59,129,o),
(37,0,c),
(151,0,l),
(173,122,o),
(195,184,o),
(253,264,c)
);
}
);
width = 448;
},
{
anchors = (
{
name = bottom;
pos = (224,0);
},
{
name = top;
pos = (224,640);
}
);
background = {
shapes = (
{
closed = 1;
nodes = (
(230,264,l),
(295,184,o),
(319,122,o),
(344,0,c),
(394,0,l),
(369,129,o),
(337,209,o),
(253,312,c),
(216,334,l),
(150,409,o),
(125,484,o),
(110,640,c),
(62,640,l),
(79,469,o),
(112,377,o),
(202,282,c)
);
},
{
closed = 1;
nodes = (
(246,282,l),
(336,377,o),
(369,469,o),
(386,640,c),
(338,640,l),
(323,484,o),
(299,409,o),
(229,337,c),
(195,312,l),
(111,209,o),
(78,129,o),
(53,0,c),
(103,0,l),
(128,122,o),
(153,184,o),
(218,264,c)
);
}
);
};
layerId = "7DDCEF54-C770-4FAD-B154-EE8058BAA7E5";
shapes = (
{
closed = 1;
nodes = (
(210,280,ls),
(290,194,o),
(317,139,o),
(344,0,c),
(394,0,l),
(369,129,o),
(343,205,o),
(252,302,cs),
(236,319,ls),
(154,406,o),
(126,464,o),
(110,640,c),
(62,640,l),
(78,469,o),
(108,389,o),
(197,294,cs)
);
},
{
closed = 1;
nodes = (
(244,282,l),
(335,377,o),
(369,469,o),
(386,640,c),
(338,640,l),
(322,471,o),
(293,390,o),
(214,312,c),
(198,312,l),
(111,209,o),
(79,129,o),
(53,0,c),
(103,0,l),
(130,131,o),
(158,197,o),
(228,282,c)
);
}
);
width = 448;
},
{
anchors = (
{
name = bottom;
pos = (179,0);
},
{
name = top;
pos = (307,640);
}
);
background = {
shapes = (
{
closed = 1;
nodes = (
(223,281,ls),
(285,195,o),
(301,141,o),
(300,2,c),
(348,-2,l),
(349,127,o),
(338,204,o),
(266,301,cs),
(253,318,ls),
(189,405,o),
(173,462,o),
(193,638,c),
(146,642,l),
(128,471,o),
(142,390,o),
(212,295,cs)
);
},
{
closed = 1;
nodes = (
(257,281,l),
(367,376,o),
(418,467,o),
(469,638,c),
(421,642,l),
(372,473,o),
(325,391,o),
(231,313,c),
(215,313,l),
(107,210,o),
(60,131,o),
(8,2,c),
(58,-2,l),
(111,129,o),
(153,196,o),
(240,281,c)
);
}
);
};
layerId = "C21910D5-47BB-472B-A83D-89B2B42B8F2A";
shapes = (
{
closed = 1;
nodes = (
(223,281,ls),
(285,195,o),
(301,140,o),
(300,0,c),
(348,0,l),
(349,128,o),
(338,204,o),
(266,301,cs),
(253,318,ls),
(189,405,o),
(173,463,o),
(193,640,c),
(146,640,l),
(128,470,o),
(142,390,o),
(212,295,cs)
);
},
{
closed = 1;
nodes = (
(257,281,l),
(367,377,o),
(418,468,o),
(469,640,c),
(420,640,l),
(371,472,o),
(325,391,o),
(231,313,c),
(215,313,l),
(106,209,o),
(59,130,o),
(7,0,c),
(59,0,l),
(112,130,o),
(153,197,o),
(240,281,c)
);
}
);
width = 448;
},
{
anchors = (
{
name = bottom;
pos = (179,0);
},
{
name = top;
pos = (307,640);
}
);
background = {
shapes = (
{
closed = 1;
nodes = (
(228,266,l),
(273,186,o),
(283,125,o),
(282,3,c),
(354,-3,l),
(356,126,o),
(340,207,o),
(281,310,c),
(249,333,l),
(201,407,o),
(193,481,o),
(210,637,c),
(140,643,l),
(122,472,o),
(137,379,o),
(204,284,c)
);
},
{
closed = 1;
nodes = (
(272,280,l),
(376,375,o),
(425,466,o),
(475,637,c),
(404,643,l),
(358,487,o),
(319,411,o),
(237,339,c),
(199,314,l),
(99,211,o),
(52,132,o),
(2,3,c),
(76,-3,l),
(125,119,o),
(162,182,o),
(240,262,c)
);
}
);
};
layerId = "BA106321-29DE-4FD0-898D-B7B08A4D4215";
shapes = (
{
closed = 1;
nodes = (
(228,266,l),
(273,185,o),
(283,123,o),
(282,0,c),
(354,0,l),
(356,128,o),
(340,208,o),
(281,310,c),
(249,333,l),
(202,408,o),
(194,482,o),
(211,640,c),
(140,640,l),
(122,470,o),
(137,378,o),
(204,284,c)
);
},
{
closed = 1;
nodes = (
(272,280,l),
(377,376,o),
(426,468,o),
(476,640,c),
(403,640,l),
(357,486,o),
(319,410,o),
(237,339,c),
(199,314,l),
(98,210,o),
(51,130,o),
(1,0,c),
(77,0,l),
(126,121,o),
(162,183,o),
(240,262,c)
);
}
);
width = 448;
},
{
anchors = (
{
name = bottom;
pos = (179,0);
},
{
name = top;
pos = (307,640);
}
);
background = {
shapes = (
{
closed = 1;
nodes = (
(206,268,l),
(247,188,o),
(255,126,o),
(253,4,c),
(364,-4,l),
(368,125,o),
(353,205,o),
(300,308,c),
(273,334,l),
(226,406,o),
(222,480,o),
(240,636,c),
(130,644,l),
(111,473,o),
(123,380,o),
(184,285,c)
);
},
{
closed = 1;
nodes = (
(292,279,l),
(390,374,o),
(435,465,o),
(485,636,c),
(374,644,l),
(330,488,o),
(292,412,o),
(215,340,c),
(178,316,l),
(85,213,o),
(40,133,o),
(-7,4,c),
(106,-4,l),
(152,118,o),
(188,180,o),
(262,260,c)
);
}
);
};
layerId = "EBAB10B0-9FDE-44C7-9B16-DD2313400F4E";
shapes = (
{
closed = 1;
nodes = (
(206,268,l),
(247,187,o),
(255,124,o),
(253,0,c),
(364,0,l),
(368,127,o),
(353,206,o),
(300,308,c),
(273,334,l),
(226,407,o),
(222,482,o),
(240,640,c),
(129,640,l),
(110,471,o),
(122,379,o),
(184,285,c)
);
},
{
closed = 1;
nodes = (
(292,279,l),
(391,375,o),
(436,467,o),
(486,640,c),
(373,640,l),
(329,486,o),
(292,411,o),
(215,340,c),
(178,316,l),
(84,212,o),
(39,131,o),
(-9,0,c),
(107,0,l),
(153,120,o),
(188,181,o),
(262,260,c)
);
}
);
width = 448;
}
);
unicode = 88;
}
{
glyphname = Y;
layers = (
{
anchors = (
{
name = bottom;
pos = (224,0);
},
{
name = top;
pos = (224,640);
}
);
hints = (
{
horizontal = 1;
origin = (1,3);
type = TTSnap;
},
{
horizontal = 1;
options = 4;
origin = (0,4);
target = (2,3);
type = TTShift;
},
{
horizontal = 1;
options = 8;
origin = (1,3);
other1 = (1,2);
target = (0,4);
type = TTInterpolate;
},
{
horizontal = 1;
options = 4;
origin = (1,2);
target = (0,7,2,3);
type = TTShift;
},
{
options = 8;
origin = (2,4);
type = TTSnap;
},
{
options = 8;
origin = (0,3);
type = TTSnap;
},
{
options = 4;
origin = (2,4);
target = (2,3);
type = TTStem;
},
{
options = 4;
origin = (0,3);
target = (0,4);
type = TTStem;
},
{
options = 8;
origin = (1,3);
type = TTSnap;
},
{
options = 4;
origin = (1,3);
target = (1,0);
type = TTStem;
},
{
options = 4;
origin = (1,3);
other1 = (0,7,2,3);
target = (1,0);
type = TTInterpolate;
}
);
layerId = "95FB0C11-C828-4064-8966-34220AA4D426";
shapes = (
{
closed = 1;
nodes = (
(260,202,l),
(342,312,o),
(391,449,o),
(412,640,c),
(340,640,l),
(318,456,o),
(282,348,o),
(192,202,c)
);
},
{
closed = 1;
nodes = (
(260,0,l),
(260,202,l),
(188,202,l),
(188,0,l)
);
},
{
closed = 1;
nodes = (
(256,202,l),
(166,348,o),
(130,456,o),
(108,640,c),
(36,640,l),
(57,449,o),
(106,312,o),
(188,202,c)
);
}
);
width = 448;
},
{
anchors = (
{
name = bottom;
pos = (224,0);
},
{
name = top;
pos = (224,640);
}
);
layerId = "92967D72-867E-4A8B-929F-F44D834DD4C9";
shapes = (
{
closed = 1;
nodes = (
(280,202,l),
(357,312,o),
(402,449,o),
(422,640,c),
(310,640,l),
(301,449,o),
(271,358,o),
(185,202,c)
);
},
{
closed = 1;
nodes = (
(280,0,l),
(280,202,l),
(168,202,l),
(168,0,l)
);
},
{
closed = 1;
nodes = (
(263,202,l),
(177,358,o),
(147,449,o),
(138,640,c),
(26,640,l),
(46,449,o),
(91,312,o),
(168,202,c)
);
}
);
width = 448;
},
{
anchors = (
{
name = bottom;
pos = (224,0);
},
{
name = top;
pos = (224,640);
}
);
layerId = "7DDCEF54-C770-4FAD-B154-EE8058BAA7E5";
shapes = (
{
closed = 1;
nodes = (
(248,202,l),
(333,312,o),
(384,449,o),
(406,640,c),
(358,640,l),
(335,458,o),
(292,335,o),
(205,202,c)
);
},
{
closed = 1;
nodes = (
(248,0,l),
(248,202,l),
(200,202,l),
(200,0,l)
);
},
{
closed = 1;
nodes = (
(243,202,l),
(156,335,o),
(113,458,o),
(90,640,c),
(42,640,l),
(64,449,o),
(115,312,o),
(200,202,c)
);
}
);
width = 448;
},
{
anchors = (
{
name = bottom;
pos = (179,0);
},
{
name = top;
pos = (307,640);
}
);
layerId = "C21910D5-47BB-472B-A83D-89B2B42B8F2A";
shapes = (
{
closed = 1;
nodes = (
(244,202,l),
(351,312,o),
(430,448,o),
(490,640,c),
(440,640,l),
(381,459,o),
(314,336,o),
(200,204,c)
);
},
{
closed = 1;
nodes = (
(203,0,l),
(244,202,l),
(196,202,l),
(155,0,l)
);
},
{
closed = 1;
nodes = (
(237,200,l),
(177,334,o),
(159,457,o),
(173,640,c),
(126,640,l),
(110,449,o),
(134,312,o),
(196,202,c)
);
}
);
width = 448;
},
{
anchors = (
{
name = bottom;
pos = (179,0);
},
{
name = top;
pos = (307,640);
}
);
layerId = "BA106321-29DE-4FD0-898D-B7B08A4D4215";
shapes = (
{
closed = 1;
nodes = (
(256,202,l),
(361,312,o),
(437,449,o),
(496,640,c),
(422,640,l),
(364,457,o),
(305,349,o),
(187,204,c)
);
},
{
closed = 1;
nodes = (
(215,0,l),
(256,202,l),
(184,202,l),
(143,0,l)
);
},
{
closed = 1;
nodes = (
(250,200,l),
(189,347,o),
(176,455,o),
(190,640,c),
(120,640,l),
(104,449,o),
(126,312,o),
(184,202,c)
);
}
);
width = 448;
},
{
anchors = (
{
name = bottom;
pos = (179,0);
},
{
name = top;
pos = (307,640);
}
);
layerId = "EBAB10B0-9FDE-44C7-9B16-DD2313400F4E";
shapes = (
{
closed = 1;
nodes = (
(276,202,l),
(376,312,o),
(447,449,o),
(506,640,c),
(393,640,l),
(346,451,o),
(296,361,o),
(180,206,c)
);
},
{
closed = 1;
nodes = (
(235,0,l),
(276,202,l),
(164,202,l),
(123,0,l)
);
},
{
closed = 1;
nodes = (
(256,198,l),
(204,355,o),
(193,447,o),
(221,640,c),
(110,640,l),
(93,449,o),
(111,312,o),
(164,202,c)
);
}
);
width = 448;
}
);
unicode = 89;
}
{
glyphname = Z;
layers = (
{
anchors = (
{
name = bottom;
pos = (224,0);
},
{
name = center;
pos = (224,320);
},
{
name = top;
pos = (224,640);
}
);
hints = (
{
options = 8;
origin = (1,4);
type = TTSnap;
},
{
options = 8;
origin = (1,0);
type = TTSnap;
},
{
options = 4;
origin = (1,0);
target = (2,2);
type = TTShift;
},
{
options = 4;
origin = (1,4);
target = (2,3);
type = TTShift;
},
{
horizontal = 1;
options = 4;
origin = (2,3);
target = (2,4);
type = TTStem;
},
{
horizontal = 1;
options = 4;
origin = (1,0);
target = (1,1);
type = TTStem;
},
{
horizontal = 1;
options = 4;
origin = (1,1);
other1 = (1,3);
target = (1,0);
type = TTInterpolate;
},
{
horizontal = 1;
options = 4;
origin = (2,3);
other1 = (2,1);
target = (2,4);
type = TTInterpolate;
}
);
layerId = "95FB0C11-C828-4064-8966-34220AA4D426";
shapes = (
{
closed = 1;
nodes = (
(388,588,l),
(310,588,l),
(55,52,l),
(133,52,l)
);
},
{
closed = 1;
nodes = (
(388,0,l),
(388,64,l),
(91,64,l),
(55,52,l),
(55,0,l)
);
},
{
closed = 1;
nodes = (
(352,576,l),
(388,588,l),
(388,640,l),
(67,640,l),
(67,576,l)
);
}
);
width = 448;
},
{
anchors = (
{
name = bottom;
pos = (224,0);
},
{
name = center;
pos = (224,320);
},
{
name = top;
pos = (224,640);
}
);
layerId = "92967D72-867E-4A8B-929F-F44D834DD4C9";
shapes = (
{
closed = 1;
nodes = (
(398,580,l),
(280,580,l),
(45,60,l),
(163,60,l)
);
},
{
closed = 1;
nodes = (
(398,0,l),
(398,80,l),
(91,80,l),
(45,60,l),
(45,0,l)
);
},
{
closed = 1;
nodes = (
(352,560,l),
(398,580,l),
(398,640,l),
(57,640,l),
(57,560,l)
);
}
);
width = 448;
},
{
anchors = (
{
name = bottom;
pos = (224,0);
},
{
name = center;
pos = (224,320);
},
{
name = top;
pos = (224,640);
}
);
layerId = "7DDCEF54-C770-4FAD-B154-EE8058BAA7E5";
shapes = (
{
closed = 1;
nodes = (
(382,603,l),
(329,603,l),
(61,37,l),
(114,37,l)
);
},
{
closed = 1;
nodes = (
(382,0,l),
(382,44,l),
(91,44,l),
(61,37,l),
(61,0,l)
);
},
{
closed = 1;
nodes = (
(352,596,l),
(382,603,l),
(382,640,l),
(73,640,l),
(73,596,l)
);
}
);
width = 448;
},
{
associatedMasterId = "95FB0C11-C828-4064-8966-34220AA4D426";
background = {
shapes = (
{
closed = 1;
nodes = (
(67,576,l),
(352,576,l),
(388,620,l),
(388,640,l),
(67,640,l)
);
},
{
closed = 1;
nodes = (
(55,0,l),
(388,0,l),
(388,64,l),
(91,64,l),
(55,16,l)
);
},
{
closed = 1;
nodes = (
(127,10,l),
(127,114,o),
(183,186,o),
(266,279,cs),
(330,351,o),
(388,438,o),
(388,620,c),
(316,620,l),
(316,477,o),
(281,403,o),
(203,317,cs),
(144,252,o),
(55,155,o),
(55,16,c)
);
}
);
};
layerId = "1BF81CE7-B602-42F2-879C-1688460814A7";
name = "Dec 9 17, 22:03";
shapes = (
{
closed = 1;
nodes = (
(67,576,l),
(352,576,l),
(388,620,l),
(388,640,l),
(67,640,l)
);
},
{
closed = 1;
nodes = (
(55,0,l),
(388,0,l),
(388,64,l),
(91,64,l),
(55,16,l)
);
},
{
closed = 1;
nodes = (
(127,10,l),
(127,114,o),
(183,186,o),
(266,279,cs),
(330,351,o),
(388,438,o),
(388,620,c),
(316,620,l),
(316,477,o),
(281,403,o),
(203,317,cs),
(144,252,o),
(55,155,o),
(55,16,c)
);
}
);
width = 448;
},
{
associatedMasterId = "92967D72-867E-4A8B-929F-F44D834DD4C9";
background = {
shapes = (
{
closed = 1;
nodes = (
(57,560,l),
(352,560,l),
(398,620,l),
(398,640,l),
(57,640,l)
);
},
{
closed = 1;
nodes = (
(45,0,l),
(398,0,l),
(398,80,l),
(91,80,l),
(45,16,l)
);
},
{
closed = 1;
nodes = (
(157,10,l),
(157,121,o),
(210,180,o),
(286,272,cs),
(346,344,o),
(398,434,o),
(398,620,c),
(286,620,l),
(286,475,o),
(253,410,o),
(183,326,cs),
(127,260,o),
(45,159,o),
(45,16,c)
);
}
);
};
layerId = "31FD5FDE-BE78-481D-A20B-01CB5ADE6548";
name = "Dec 9 17, 22:03";
shapes = (
{
closed = 1;
nodes = (
(57,560,l),
(352,560,l),
(398,620,l),
(398,640,l),
(57,640,l)
);
},
{
closed = 1;
nodes = (
(45,0,l),
(398,0,l),
(398,80,l),
(91,80,l),
(45,16,l)
);
},
{
closed = 1;
nodes = (
(157,10,l),
(157,121,o),
(210,180,o),
(286,272,cs),
(346,344,o),
(398,434,o),
(398,620,c),
(286,620,l),
(286,475,o),
(253,410,o),
(183,326,cs),
(127,260,o),
(45,159,o),
(45,16,c)
);
}
);
width = 448;
},
{
associatedMasterId = "7DDCEF54-C770-4FAD-B154-EE8058BAA7E5";
layerId = "BB6D759E-09E5-4837-9458-F3954C9C31E9";
name = "Dec 9 17, 22:03";
shapes = (
{
closed = 1;
nodes = (
(73,586,l),
(352,586,l),
(382,620,l),
(382,640,l),
(73,640,l)
);
},
{
closed = 1;
nodes = (
(61,0,l),
(382,0,l),
(382,54,l),
(91,54,l),
(61,16,l)
);
},
{
closed = 1;
nodes = (
(109,10,l),
(109,110,o),
(167,190,o),
(254,283,cs),
(320,355,o),
(382,440,o),
(382,620,c),
(334,620,l),
(334,478,o),
(298,399,o),
(215,312,cs),
(154,247,o),
(61,153,o),
(61,16,c)
);
}
);
width = 448;
},
{
anchors = (
{
name = bottom;
pos = (179,0);
},
{
name = center;
pos = (243,320);
},
{
name = top;
pos = (307,640);
}
);
layerId = "C21910D5-47BB-472B-A83D-89B2B42B8F2A";
shapes = (
{
closed = 1;
nodes = (
(458,603,l),
(401,603,l),
(23,37,l),
(80,37,l)
);
},
{
closed = 1;
nodes = (
(337,0,l),
(346,44,l),
(55,44,l),
(24,37,l),
(16,0,l)
);
},
{
closed = 1;
nodes = (
(426,596,l),
(458,603,l),
(465,640,l),
(156,640,l),
(147,596,l)
);
}
);
width = 448;
},
{
anchors = (
{
name = bottom;
pos = (179,0);
},
{
name = center;
pos = (243,320);
},
{
name = top;
pos = (307,640);
}
);
layerId = "BA106321-29DE-4FD0-898D-B7B08A4D4215";
shapes = (
{
closed = 1;
nodes = (
(462,588,l),
(379,588,l),
(20,52,l),
(103,52,l)
);
},
{
closed = 1;
nodes = (
(343,0,l),
(356,64,l),
(59,64,l),
(20,52,l),
(10,0,l)
);
},
{
closed = 1;
nodes = (
(423,576,l),
(461,588,l),
(471,640,l),
(150,640,l),
(137,576,l)
);
}
);
width = 448;
},
{
anchors = (
{
name = bottom;
pos = (179,0);
},
{
name = center;
pos = (243,320);
},
{
name = top;
pos = (307,640);
}
);
layerId = "EBAB10B0-9FDE-44C7-9B16-DD2313400F4E";
shapes = (
{
closed = 1;
nodes = (
(470,580,l),
(343,580,l),
(11,60,l),
(138,60,l)
);
},
{
closed = 1;
nodes = (
(353,0,l),
(369,80,l),
(62,80,l),
(12,60,l),
(0,0,l)
);
},
{
closed = 1;
nodes = (
(420,560,l),
(470,580,l),
(481,640,l),
(140,640,l),
(124,560,l)
);
}
);
width = 448;
}
);
unicode = 90;
}
{
glyphname = bracketleft;
layers = (
{
background = {
shapes = (
{
closed = 1;
nodes = (
(340,704,l),
(144,704,l),
(144,-64,l),
(340,-64,l),
(340,0,l),
(216,0,l),
(216,640,l),
(340,640,l)
);
}
);
};
hints = (
{
horizontal = 1;
options = 4;
origin = (0,3);
target = (0,4);
type = TTStem;
},
{
horizontal = 1;
options = 4;
origin = (0,0);
target = (0,7);
type = TTStem;
},
{
origin = (0,2);
type = TTSnap;
},
{
options = 4;
origin = (0,2);
target = (0,5);
type = TTStem;
},
{
origin = (0,3);
type = TTSnap;
},
{
options = 4;
origin = (0,3);
target = (0,0);
type = TTShift;
},
{
horizontal = 1;
origin = (0,3);
type = TTSnap;
},
{
horizontal = 1;
origin = (0,0);
type = TTSnap;
}
);
layerId = "95FB0C11-C828-4064-8966-34220AA4D426";
shapes = (
{
closed = 1;
nodes = (
(340,704,l),
(144,704,l),
(144,-64,l),
(340,-64,l),
(340,0,l),
(216,0,l),
(216,640,l),
(340,640,l)
);
}
);
width = 448;
},
{
background = {
shapes = (
{
closed = 1;
nodes = (
(360,704,l),
(124,704,l),
(124,-64,l),
(360,-64,l),
(360,16,l),
(236,16,l),
(236,624,l),
(360,624,l)
);
}
);
};
layerId = "92967D72-867E-4A8B-929F-F44D834DD4C9";
shapes = (
{
closed = 1;
nodes = (
(360,704,l),
(124,704,l),
(124,-64,l),
(360,-64,l),
(360,16,l),
(236,16,l),
(236,624,l),
(360,624,l)
);
}
);
width = 448;
},
{
layerId = "7DDCEF54-C770-4FAD-B154-EE8058BAA7E5";
shapes = (
{
closed = 1;
nodes = (
(328,704,l),
(156,704,l),
(156,-64,l),
(328,-64,l),
(328,-20,l),
(204,-20,l),
(204,660,l),
(328,660,l)
);
}
);
width = 448;
},
{
layerId = "C21910D5-47BB-472B-A83D-89B2B42B8F2A";
shapes = (
{
closed = 1;
nodes = (
(424,704,l),
(252,704,l),
(98,-64,l),
(270,-64,l),
(279,-20,l),
(155,-20,l),
(291,660,l),
(415,660,l)
);
}
);
width = 448;
},
{
layerId = "BA106321-29DE-4FD0-898D-B7B08A4D4215";
shapes = (
{
closed = 1;
nodes = (
(436,704,l),
(240,704,l),
(86,-64,l),
(282,-64,l),
(295,0,l),
(171,0,l),
(299,640,l),
(423,640,l)
);
}
);
width = 448;
},
{
layerId = "EBAB10B0-9FDE-44C7-9B16-DD2313400F4E";
shapes = (
{
closed = 1;
nodes = (
(456,704,l),
(220,704,l),
(66,-64,l),
(302,-64,l),
(318,16,l),
(194,16,l),
(316,624,l),
(440,624,l)
);
}
);
width = 448;
}
);
unicode = 91;
}
{
glyphname = backslash;
layers = (
{
background = {
shapes = (
{
closed = 1;
nodes = (
(190,710,l),
(119,698,l),
(258,-69,l),
(329,-57,l)
);
}
);
};
hints = (
{
horizontal = 1;
origin = (0,2);
type = TTSnap;
},
{
horizontal = 1;
origin = (0,0);
type = TTSnap;
}
);
layerId = "95FB0C11-C828-4064-8966-34220AA4D426";
shapes = (
{
closed = 1;
nodes = (
(190,710,l),
(119,698,l),
(258,-69,l),
(329,-57,l)
);
}
);
width = 448;
},
{
background = {
shapes = (
{
closed = 1;
nodes = (
(210,710,l),
(99,698,l),
(238,-69,l),
(349,-57,l)
);
}
);
};
layerId = "92967D72-867E-4A8B-929F-F44D834DD4C9";
shapes = (
{
closed = 1;
nodes = (
(210,710,l),
(99,698,l),
(238,-69,l),
(349,-57,l)
);
}
);
width = 448;
},
{
layerId = "7DDCEF54-C770-4FAD-B154-EE8058BAA7E5";
shapes = (
{
closed = 1;
nodes = (
(178,708,l),
(130,700,l),
(270,-67,l),
(318,-59,l)
);
}
);
width = 448;
},
{
background = {
shapes = (
{
closed = 1;
nodes = (
(275,710,l),
(226,698,l),
(212,-69,l),
(261,-57,l)
);
}
);
};
layerId = "C21910D5-47BB-472B-A83D-89B2B42B8F2A";
shapes = (
{
closed = 1;
nodes = (
(274,708,l),
(225,700,l),
(212,-67,l),
(261,-59,l)
);
}
);
width = 448;
},
{
layerId = "BA106321-29DE-4FD0-898D-B7B08A4D4215";
shapes = (
{
closed = 1;
nodes = (
(287,710,l),
(214,698,l),
(200,-69,l),
(272,-57,l)
);
}
);
width = 448;
},
{
layerId = "EBAB10B0-9FDE-44C7-9B16-DD2313400F4E";
shapes = (
{
closed = 1;
nodes = (
(307,710,l),
(194,698,l),
(180,-69,l),
(292,-57,l)
);
}
);
width = 448;
}
);
unicode = 92;
}
{
glyphname = bracketright;
layers = (
{
hints = (
{
horizontal = 1;
options = 4;
origin = (0,0);
target = (0,3);
type = TTStem;
},
{
horizontal = 1;
options = 4;
origin = (0,7);
target = (0,4);
type = TTStem;
},
{
options = 8;
origin = (0,7);
type = TTSnap;
},
{
options = 4;
origin = (0,7);
target = (0,4);
type = TTStem;
},
{
options = 8;
origin = (0,6);
type = TTSnap;
},
{
options = 4;
origin = (0,6);
target = (0,1);
type = TTShift;
},
{
horizontal = 1;
origin = (0,0);
type = TTSnap;
},
{
horizontal = 1;
origin = (0,7);
type = TTSnap;
}
);
layerId = "95FB0C11-C828-4064-8966-34220AA4D426";
shapes = (
{
closed = 1;
nodes = (
(304,704,l),
(108,704,l),
(108,640,l),
(232,640,l),
(232,0,l),
(108,0,l),
(108,-64,l),
(304,-64,l)
);
}
);
width = 448;
},
{
layerId = "92967D72-867E-4A8B-929F-F44D834DD4C9";
shapes = (
{
closed = 1;
nodes = (
(324,704,l),
(88,704,l),
(88,624,l),
(212,624,l),
(212,16,l),
(88,16,l),
(88,-64,l),
(324,-64,l)
);
}
);
width = 448;
},
{
layerId = "7DDCEF54-C770-4FAD-B154-EE8058BAA7E5";
shapes = (
{
closed = 1;
nodes = (
(292,704,l),
(120,704,l),
(120,660,l),
(244,660,l),
(244,-20,l),
(120,-20,l),
(120,-64,l),
(292,-64,l)
);
}
);
width = 448;
},
{
layerId = "C21910D5-47BB-472B-A83D-89B2B42B8F2A";
shapes = (
{
closed = 1;
nodes = (
(388,704,l),
(216,704,l),
(207,660,l),
(331,660,l),
(195,-20,l),
(71,-20,l),
(62,-64,l),
(234,-64,l)
);
}
);
width = 448;
},
{
layerId = "BA106321-29DE-4FD0-898D-B7B08A4D4215";
shapes = (
{
closed = 1;
nodes = (
(400,704,l),
(204,704,l),
(191,640,l),
(315,640,l),
(187,0,l),
(63,0,l),
(50,-64,l),
(246,-64,l)
);
}
);
width = 448;
},
{
layerId = "EBAB10B0-9FDE-44C7-9B16-DD2313400F4E";
shapes = (
{
closed = 1;
nodes = (
(420,704,l),
(184,704,l),
(168,624,l),
(292,624,l),
(170,16,l),
(46,16,l),
(30,-64,l),
(266,-64,l)
);
}
);
width = 448;
}
);
unicode = 93;
}
{
glyphname = asciicircum;
layers = (
{
background = {
shapes = (
{
closed = 1;
nodes = (
(53,206,l),
(121,182,l),
(250,566,l),
(181,566,l)
);
},
{
closed = 1;
nodes = (
(267,566,l),
(198,566,l),
(327,182,l),
(395,206,l)
);
}
);
};
hints = (
{
horizontal = 1;
origin = (0,1);
type = TTSnap;
},
{
horizontal = 1;
options = 4;
origin = (0,1);
target = (1,2);
type = TTShift;
},
{
horizontal = 1;
origin = (0,3);
type = TTSnap;
},
{
horizontal = 1;
options = 4;
origin = (0,1);
other1 = (0,2,1,2);
target = (0,3);
type = TTInterpolate;
}
);
layerId = "95FB0C11-C828-4064-8966-34220AA4D426";
shapes = (
{
closed = 1;
nodes = (
(48,192,l),
(124,192,l),
(250,566,l),
(181,566,l)
);
},
{
closed = 1;
nodes = (
(267,566,l),
(198,566,l),
(324,192,l),
(400,192,l)
);
}
);
width = 448;
},
{
background = {
shapes = (
{
closed = 1;
nodes = (
(44,208,l),
(149,175,l),
(266,566,l),
(171,566,l)
);
},
{
closed = 1;
nodes = (
(277,566,l),
(182,566,l),
(299,175,l),
(404,208,l)
);
}
);
};
layerId = "92967D72-867E-4A8B-929F-F44D834DD4C9";
shapes = (
{
closed = 1;
nodes = (
(38,192,l),
(154,192,l),
(266,566,l),
(171,566,l)
);
},
{
closed = 1;
nodes = (
(277,566,l),
(182,566,l),
(294,192,l),
(410,192,l)
);
}
);
width = 448;
},
{
layerId = "7DDCEF54-C770-4FAD-B154-EE8058BAA7E5";
shapes = (
{
closed = 1;
nodes = (
(54,192,l),
(104,192,l),
(240,566,l),
(191,566,l)
);
},
{
closed = 1;
nodes = (
(257,566,l),
(208,566,l),
(344,192,l),
(394,192,l)
);
}
);
width = 448;
},
{
layerId = "C21910D5-47BB-472B-A83D-89B2B42B8F2A";
shapes = (
{
closed = 1;
nodes = (
(47,192,l),
(98,192,l),
(309,566,l),
(259,566,l)
);
},
{
closed = 1;
nodes = (
(325,566,l),
(277,566,l),
(338,192,l),
(387,192,l)
);
}
);
width = 448;
},
{
layerId = "BA106321-29DE-4FD0-898D-B7B08A4D4215";
shapes = (
{
closed = 1;
nodes = (
(41,192,l),
(118,192,l),
(319,566,l),
(249,566,l)
);
},
{
closed = 1;
nodes = (
(335,566,l),
(267,566,l),
(318,192,l),
(393,192,l)
);
}
);
width = 448;
},
{
layerId = "EBAB10B0-9FDE-44C7-9B16-DD2313400F4E";
shapes = (
{
closed = 1;
nodes = (
(31,192,l),
(148,192,l),
(335,566,l),
(238,566,l)
);
},
{
closed = 1;
nodes = (
(344,566,l),
(251,566,l),
(288,192,l),
(403,192,l)
);
}
);
width = 448;
}
);
unicode = 94;
}
{
glyphname = underscore;
layers = (
{
hints = (
{
horizontal = 1;
options = 4;
origin = (0,1);
target = (0,2);
type = TTStem;
},
{
origin = lsb;
other1 = (0,1);
target = rsb;
type = TTInterpolate;
},
{
origin = lsb;
other1 = (0,0);
target = rsb;
type = TTInterpolate;
}
);
layerId = "95FB0C11-C828-4064-8966-34220AA4D426";
shapes = (
{
closed = 1;
nodes = (
(384,0,l),
(64,0,l),
(64,-64,l),
(384,-64,l)
);
}
);
width = 448;
},
{
layerId = "92967D72-867E-4A8B-929F-F44D834DD4C9";
shapes = (
{
closed = 1;
nodes = (
(384,0,l),
(64,0,l),
(64,-96,l),
(384,-96,l)
);
}
);
width = 448;
},
{
layerId = "7DDCEF54-C770-4FAD-B154-EE8058BAA7E5";
shapes = (
{
closed = 1;
nodes = (
(384,0,l),
(64,0,l),
(64,-44,l),
(384,-44,l)
);
}
);
width = 448;
},
{
layerId = "C21910D5-47BB-472B-A83D-89B2B42B8F2A";
shapes = (
{
closed = 1;
nodes = (
(339,0,l),
(19,0,l),
(10,-44,l),
(330,-44,l)
);
}
);
width = 448;
},
{
layerId = "BA106321-29DE-4FD0-898D-B7B08A4D4215";
shapes = (
{
closed = 1;
nodes = (
(339,0,l),
(19,0,l),
(6,-64,l),
(326,-64,l)
);
}
);
width = 448;
},
{
layerId = "EBAB10B0-9FDE-44C7-9B16-DD2313400F4E";
shapes = (
{
closed = 1;
nodes = (
(339,0,l),
(19,0,l),
(0,-96,l),
(320,-96,l)
);
}
);
width = 448;
}
);
unicode = 95;
}
{
glyphname = a;
layers = (
{
anchors = (
{
name = bottomAttach;
pos = (384,0);
},
{
name = top;
pos = (228,448);
}
);
background = {
shapes = (
{
closed = 1;
nodes = (
(316,64,l),
(324,0,l),
(392,0,l),
(388,64,l),
(388,299,ls),
(388,413,o),
(331,452,o),
(234,452,cs),
(189,452,o),
(141,446,o),
(93,431,c),
(109,369,l),
(151,380,o),
(186,388,o),
(225,388,cs),
(296,388,o),
(316,363,o),
(316,285,cs)
);
},
{
closed = 1;
nodes = (
(349,269,l),
(234,258,ls),
(107,246,o),
(58,192,o),
(58,117,cs),
(58,37,o),
(117,-4,o),
(184,-4,cs),
(252,-4,o),
(306,30,o),
(353,59,c),
(337,111,l),
(289,85,o),
(244,60,o),
(199,60,cs),
(153,60,o),
(134,86,o),
(134,121,cs),
(134,166,o),
(166,190,o),
(250,197,cs),
(349,205,l)
);
}
);
};
hints = (
{
horizontal = 1;
options = 4;
origin = (1,6);
target = (1,13);
type = TTStem;
},
{
horizontal = 1;
options = 4;
origin = (0,7);
target = (0,14);
type = TTStem;
},
{
horizontal = 1;
origin = (0,1);
type = TTSnap;
},
{
horizontal = 1;
options = 8;
origin = (1,6);
other1 = (0,0,1,19);
target = (0,7);
type = TTInterpolate;
},
{
horizontal = 1;
options = 4;
origin = (0,0,1,19);
target = (0,0,1,3);
type = TTStem;
},
{
options = 4;
origin = (1,3);
target = (1,16);
type = TTStem;
},
{
options = 4;
origin = (0,4);
target = (0,17);
type = TTStem;
},
{
options = 4;
origin = (0,17);
target = (0,0,1,19);
type = TTShift;
},
{
options = 4;
origin = (0,0,1,19);
target = (0,1,1,9);
type = TTShift;
},
{
options = 4;
origin = (1,3);
target = (0,10);
type = TTShift;
},
{
options = 8;
origin = (1,3);
type = TTSnap;
},
{
options = 8;
origin = (0,4);
type = TTSnap;
}
);
layerId = "95FB0C11-C828-4064-8966-34220AA4D426";
shapes = (
{
closed = 1;
nodes = (
(308,64,l),
(316,0,l),
(384,0,l),
(380,64,l),
(380,299,ls),
(380,409,o),
(321,453,o),
(221,453,cs),
(164,453,o),
(113,437,o),
(73,419,c),
(94,361,l),
(131,375,o),
(175,388,o),
(216,388,cs),
(283,388,o),
(308,363,o),
(308,285,cs)
);
},
{
closed = 1;
nodes = (
(341,268,l),
(129,268,o),
(50,216,o),
(50,119,cs),
(50,37,o),
(109,-4,o),
(176,-4,cs),
(244,-4,o),
(298,30,o),
(345,59,c),
(329,111,l),
(281,85,o),
(236,60,o),
(191,60,cs),
(145,60,o),
(126,86,o),
(126,123,cs),
(126,178,o),
(178,206,o),
(341,206,c)
);
}
);
width = 448;
},
{
anchors = (
{
name = bottomAttach;
pos = (390,0);
},
{
name = top;
pos = (224,448);
}
);
background = {
shapes = (
{
closed = 1;
nodes = (
(286,85,l),
(305,0,l),
(400,0,l),
(398,64,l),
(398,299,ls),
(398,407,o),
(341,452,o),
(234,452,cs),
(185,452,o),
(128,443,o),
(78,428,c),
(93,358,l),
(132,367,o),
(166,372,o),
(200,372,cs),
(268,372,o),
(286,350,o),
(286,285,cs)
);
},
{
closed = 1;
nodes = (
(349,276,l),
(230,266,ls),
(98,255,o),
(48,204,o),
(48,123,cs),
(48,39,o),
(103,-4,o),
(180,-4,cs),
(256,-4,o),
(309,33,o),
(363,75,c),
(336,130,l),
(281,91,o),
(249,76,o),
(217,76,cs),
(180,76,o),
(164,98,o),
(164,128,cs),
(164,167,o),
(192,194,o),
(264,200,cs),
(349,207,l)
);
}
);
};
layerId = "92967D72-867E-4A8B-929F-F44D834DD4C9";
shapes = (
{
closed = 1;
nodes = (
(276,85,l),
(295,0,l),
(390,0,l),
(388,64,l),
(388,299,ls),
(388,407,o),
(331,454,o),
(220,454,cs),
(151,454,o),
(94,437,o),
(56,423,c),
(74,344,l),
(106,354,o),
(151,366,o),
(196,366,cs),
(256,366,o),
(276,346,o),
(276,285,cs)
);
},
{
closed = 1;
nodes = (
(339,276,l),
(124,276,o),
(38,228,o),
(38,123,cs),
(38,39,o),
(93,-4,o),
(170,-4,cs),
(246,-4,o),
(299,33,o),
(353,75,c),
(326,130,l),
(271,91,o),
(239,76,o),
(207,76,cs),
(170,76,o),
(154,98,o),
(154,128,cs),
(154,176,o),
(198,207,o),
(339,207,c)
);
}
);
width = 448;
},
{
anchors = (
{
name = bottomAttach;
pos = (373,0);
},
{
name = top;
pos = (224,448);
}
);
background = {
shapes = (
{
closed = 1;
nodes = (
(320,71,l),
(327,0,l),
(373,0,l),
(368,64,l),
(368,312,ls),
(368,415,o),
(311,452,o),
(226,452,cs),
(170,452,o),
(114,432,o),
(75,413,c),
(90,376,l),
(134,395,o),
(177,407,o),
(224,407,cs),
(289,407,o),
(320,382,o),
(320,298,cs)
);
},
{
closed = 1;
nodes = (
(335,258,l),
(228,249,ls),
(101,238,o),
(50,180,o),
(50,113,cs),
(50,35,o),
(108,-4,o),
(172,-4,cs),
(236,-4,o),
(283,30,o),
(338,71,c),
(324,107,l),
(268,65,o),
(227,41,o),
(174,41,cs),
(128,41,o),
(102,70,o),
(102,115,cs),
(102,168,o),
(145,200,o),
(234,207,cs),
(335,215,l)
);
}
);
};
layerId = "7DDCEF54-C770-4FAD-B154-EE8058BAA7E5";
shapes = (
{
closed = 1;
nodes = (
(320,71,l),
(327,0,l),
(373,0,l),
(368,64,l),
(368,312,ls),
(368,415,o),
(311,452,o),
(226,452,cs),
(166,452,o),
(108,433,o),
(70,417,c),
(82,379,l),
(128,395,o),
(173,407,o),
(222,407,cs),
(291,407,o),
(320,382,o),
(320,298,cs)
);
},
{
closed = 1;
nodes = (
(335,258,l),
(138,258,o),
(50,204,o),
(50,113,cs),
(50,35,o),
(108,-4,o),
(172,-4,cs),
(236,-4,o),
(283,30,o),
(338,71,c),
(324,107,l),
(268,65,o),
(227,41,o),
(174,41,cs),
(128,41,o),
(102,70,o),
(102,115,cs),
(102,180,o),
(165,217,o),
(335,217,c)
);
}
);
width = 448;
},
{
anchors = (
{
name = bottomAttach;
pos = (328,0);
},
{
name = top;
pos = (269,448);
}
);
background = {
shapes = (
{
closed = 1;
nodes = (
(290,71,l),
(282,0,l),
(328,0,l),
(336,64,l),
(385,310,ls),
(406,413,o),
(355,452,o),
(268,452,cs),
(210,452,o),
(148,434,o),
(107,418,c),
(115,378,l),
(164,394,o),
(211,407,o),
(262,407,cs),
(329,407,o),
(352,384,o),
(335,300,cs)
);
},
{
closed = 1;
nodes = (
(340,258,l),
(143,258,o),
(46,206,o),
(29,117,cs),
(13,37,o),
(64,-4,o),
(130,-4,cs),
(192,-4,o),
(245,29,o),
(309,70,c),
(299,108,l),
(235,66,o),
(189,41,o),
(134,41,cs),
(90,41,o),
(71,68,o),
(79,111,cs),
(93,178,o),
(165,217,o),
(335,217,c)
);
}
);
};
layerId = "C21910D5-47BB-472B-A83D-89B2B42B8F2A";
shapes = (
{
closed = 1;
nodes = (
(291,77,l),
(283,0,l),
(328,0,l),
(336,64,l),
(385,310,ls),
(406,413,o),
(355,452,o),
(268,452,cs),
(210,452,o),
(148,434,o),
(107,418,c),
(115,378,l),
(164,394,o),
(211,407,o),
(262,407,cs),
(329,407,o),
(352,384,o),
(335,300,cs)
);
},
{
closed = 1;
nodes = (
(335,257,l),
(138,257,o),
(26,201,o),
(26,91,cs),
(26,38,o),
(63,-4,o),
(134,-4,cs),
(206,-4,o),
(258,30,o),
(330,118,c),
(305,139,l),
(235,59,o),
(192,41,o),
(139,41,cs),
(95,41,o),
(77,63,o),
(77,93,cs),
(77,173,o),
(163,218,o),
(335,218,c)
);
}
);
width = 448;
},
{
anchors = (
{
name = bottomAttach;
pos = (339,0);
},
{
name = top;
pos = (269,448);
}
);
background = {
shapes = (
{
closed = 1;
nodes = (
(276,64,l),
(272,0,l),
(339,0,l),
(348,64,l),
(394,296,ls),
(416,406,o),
(364,453,o),
(262,453,cs),
(207,453,o),
(154,438,o),
(110,420,c),
(124,360,l),
(163,374,o),
(210,388,o),
(254,388,cs),
(318,388,o),
(336,365,o),
(321,288,cs)
);
},
{
closed = 1;
nodes = (
(329,268,l),
(143,268,o),
(27,217,o),
(27,100,cs),
(27,42,o),
(59,-4,o),
(140,-4,cs),
(210,-4,o),
(267,34,o),
(328,96,c),
(296,133,l),
(245,81,o),
(204,60,o),
(158,60,cs),
(118,60,o),
(103,77,o),
(103,108,cs),
(103,169,o),
(174,206,o),
(329,206,c)
);
}
);
};
layerId = "BA106321-29DE-4FD0-898D-B7B08A4D4215";
shapes = (
{
closed = 1;
nodes = (
(276,64,l),
(272,0,l),
(339,0,l),
(348,64,l),
(394,296,ls),
(416,406,o),
(364,453,o),
(262,453,cs),
(207,453,o),
(154,438,o),
(110,420,c),
(124,360,l),
(163,374,o),
(210,388,o),
(254,388,cs),
(318,388,o),
(336,365,o),
(321,288,cs)
);
},
{
closed = 1;
nodes = (
(329,267,l),
(143,267,o),
(27,215,o),
(27,101,cs),
(27,44,o),
(59,-4,o),
(138,-4,cs),
(221,-4,o),
(274,45,o),
(332,116,c),
(295,148,l),
(244,91,o),
(212,60,o),
(156,60,cs),
(118,60,o),
(103,77,o),
(103,108,cs),
(103,169,o),
(174,207,o),
(329,207,c)
);
}
);
width = 448;
},
{
anchors = (
{
name = bottomAttach;
pos = (345,0);
},
{
name = top;
pos = (269,448);
}
);
background = {
shapes = (
{
closed = 1;
nodes = (
(249,85,l),
(251,0,l),
(345,0,l),
(356,64,l),
(402,295,ls),
(424,403,o),
(374,454,o),
(260,454,cs),
(194,454,o),
(134,439,o),
(93,425,c),
(101,343,l),
(135,353,o),
(183,366,o),
(231,366,cs),
(288,366,o),
(301,350,o),
(289,289,cs)
);
},
{
closed = 1;
nodes = (
(346,276,l),
(131,276,o),
(40,232,o),
(20,132,cs),
(2,43,o),
(51,-4,o),
(131,-4,cs),
(204,-4,o),
(263,30,o),
(325,72,c),
(304,133,l),
(242,94,o),
(206,76,o),
(171,76,cs),
(137,76,o),
(128,94,o),
(133,119,cs),
(144,172,o),
(198,207,o),
(339,207,c)
);
}
);
};
layerId = "EBAB10B0-9FDE-44C7-9B16-DD2313400F4E";
shapes = (
{
closed = 1;
nodes = (
(249,85,l),
(251,0,l),
(345,0,l),
(356,64,l),
(402,295,ls),
(424,403,o),
(374,454,o),
(260,454,cs),
(194,454,o),
(134,439,o),
(93,425,c),
(101,343,l),
(135,353,o),
(183,366,o),
(231,366,cs),
(288,366,o),
(301,350,o),
(289,289,cs)
);
},
{
closed = 1;
nodes = (
(290,276,l),
(128,276,o),
(15,223,o),
(15,104,cs),
(15,40,o),
(56,-4,o),
(133,-4,cs),
(212,-4,o),
(262,42,o),
(315,121,c),
(271,156,l),
(235,102,o),
(205,76,o),
(169,76,cs),
(144,76,o),
(130,89,o),
(130,118,cs),
(130,170,o),
(183,206,o),
(290,206,c)
);
}
);
width = 448;
}
);
unicode = 97;
}
{
color = 7;
glyphname = b;
layers = (
{
anchors = (
{
name = bottom;
pos = (224,0);
},
{
name = top;
pos = (240,448);
}
);
hints = (
{
horizontal = 1;
origin = (0,4);
type = TTSnap;
},
{
horizontal = 1;
origin = (0,6);
type = TTSnap;
},
{
options = 4;
origin = (0,4);
target = (0,3);
type = TTStem;
},
{
options = 8;
origin = (0,4);
type = TTSnap;
},
{
options = 4;
origin = (0,3);
target = (0,0);
type = TTShift;
}
);
layerId = "95FB0C11-C828-4064-8966-34220AA4D426";
shapes = (
{
closed = 1;
nodes = (
(119,0,l),
(128,65,l),
(132,81,l),
(132,640,l),
(60,640,l),
(60,64,l),
(58,0,l)
);
},
{
ref = _part.bowl;
}
);
width = 448;
},
{
anchors = (
{
name = bottom;
pos = (224,0);
},
{
name = top;
pos = (256,448);
}
);
layerId = "92967D72-867E-4A8B-929F-F44D834DD4C9";
shapes = (
{
closed = 1;
nodes = (
(136,0,l),
(152,92,l),
(162,92,l),
(162,640,l),
(50,640,l),
(50,65,l),
(48,0,l)
);
},
{
ref = _part.bowl;
}
);
width = 448;
},
{
anchors = (
{
name = bottom;
pos = (224,0);
},
{
name = top;
pos = (224,448);
}
);
layerId = "7DDCEF54-C770-4FAD-B154-EE8058BAA7E5";
shapes = (
{
closed = 1;
nodes = (
(109,0,l),
(114,49,l),
(114,74,l),
(114,640,l),
(66,640,l),
(66,63,l),
(64,0,l)
);
},
{
ref = _part.bowl;
}
);
width = 448;
},
{
anchors = (
{
name = bottom;
pos = (179,0);
},
{
name = top;
pos = (268,448);
}
);
layerId = "C21910D5-47BB-472B-A83D-89B2B42B8F2A";
shapes = (
{
closed = 1;
nodes = (
(64,0,l),
(79,49,l),
(84,74,l),
(197,640,l),
(149,640,l),
(34,63,l),
(19,0,l)
);
},
{
ref = _part.bowl;
}
);
width = 448;
},
{
anchors = (
{
name = bottom;
pos = (179,0);
},
{
name = top;
pos = (285,448);
}
);
layerId = "BA106321-29DE-4FD0-898D-B7B08A4D4215";
shapes = (
{
closed = 1;
nodes = (
(75,0,l),
(97,65,l),
(104,81,l),
(215,640,l),
(143,640,l),
(28,64,l),
(13,0,l)
);
},
{
ref = _part.bowl;
}
);
width = 448;
},
{
anchors = (
{
name = bottom;
pos = (179,0);
},
{
name = top;
pos = (301,448);
}
);
layerId = "EBAB10B0-9FDE-44C7-9B16-DD2313400F4E";
shapes = (
{
closed = 1;
nodes = (
(92,0,l),
(126,92,l),
(136,92,l),
(245,640,l),
(133,640,l),
(18,65,l),
(3,0,l)
);
},
{
ref = _part.bowl;
}
);
width = 448;
}
);
unicode = 98;
}
{
glyphname = c;
layers = (
{
anchors = (
{
name = bottom;
pos = (202,0);
},
{
name = top;
pos = (240,448);
}
);
hints = (
{
horizontal = 1;
options = 4;
origin = (0,3);
target = (0,22);
type = TTStem;
},
{
horizontal = 1;
options = 4;
origin = (0,9);
target = (0,16);
type = TTStem;
},
{
options = 4;
origin = (0,0);
target = (0,12);
type = TTShift;
},
{
options = 8;
origin = (0,0);
type = TTSnap;
},
{
options = 8;
origin = (0,6);
type = TTSnap;
},
{
options = 4;
origin = (0,6);
target = (0,19);
type = TTStem;
}
);
layerId = "95FB0C11-C828-4064-8966-34220AA4D426";
shapes = (
{
closed = 1;
nodes = (
(358,436,l),
(317,450,o),
(276,455,o),
(238,455,cs),
(94,455,o),
(50,352,o),
(50,224,cs),
(50,96,o),
(94,-7,o),
(238,-7,cs),
(276,-7,o),
(317,-2,o),
(358,12,c),
(345,72,l),
(309,62,o),
(278,57,o),
(242,57,cs),
(155,57,o),
(126,99,o),
(126,224,cs),
(126,349,o),
(155,391,o),
(242,391,cs),
(278,391,o),
(309,386,o),
(345,376,c)
);
}
);
width = 448;
},
{
anchors = (
{
name = bottom;
pos = (202,0);
},
{
name = top;
pos = (240,448);
}
);
layerId = "92967D72-867E-4A8B-929F-F44D834DD4C9";
shapes = (
{
closed = 1;
nodes = (
(378,431,l),
(334,449,o),
(290,455,o),
(249,455,cs),
(93,455,o),
(50,352,o),
(50,224,cs),
(50,96,o),
(93,-7,o),
(249,-7,cs),
(290,-7,o),
(334,-1,o),
(378,17,c),
(361,91,l),
(332,83,o),
(301,77,o),
(271,77,cs),
(192,77,o),
(166,114,o),
(166,224,cs),
(166,334,o),
(192,371,o),
(271,371,cs),
(304,371,o),
(337,365,o),
(361,357,c)
);
}
);
width = 448;
},
{
anchors = (
{
name = bottom;
pos = (202,0);
},
{
name = top;
pos = (240,448);
}
);
layerId = "7DDCEF54-C770-4FAD-B154-EE8058BAA7E5";
shapes = (
{
closed = 1;
nodes = (
(349,437,l),
(313,449,o),
(268,455,o),
(229,455,cs),
(95,455,o),
(50,352,o),
(50,224,cs),
(50,96,o),
(95,-7,o),
(228,-7,cs),
(270,-7,o),
(310,1,o),
(349,13,c),
(340,53,l),
(300,41,o),
(264,36,o),
(234,36,cs),
(140,36,o),
(102,99,o),
(102,224,cs),
(102,348,o),
(134,413,o),
(233,413,cs),
(264,413,o),
(297,409,o),
(340,397,c)
);
}
);
width = 448;
},
{
anchors = (
{
name = bottom;
pos = (157,0);
},
{
name = top;
pos = (285,448);
}
);
layerId = "C21910D5-47BB-472B-A83D-89B2B42B8F2A";
shapes = (
{
closed = 1;
nodes = (
(390,436,l),
(356,448,o),
(312,455,o),
(272,455,cs),
(139,455,o),
(76,354,o),
(51,228,cs),
(25,98,o),
(51,-7,o),
(185,-7,cs),
(226,-7,o),
(267,0,o),
(308,12,c),
(304,54,l),
(262,42,o),
(225,36,o),
(193,36,cs),
(101,36,o),
(77,97,o),
(101,220,cs),
(126,346,o),
(174,413,o),
(274,413,cs),
(304,413,o),
(336,410,o),
(376,398,c)
);
}
);
width = 448;
},
{
anchors = (
{
name = bottom;
pos = (157,0);
},
{
name = top;
pos = (285,448);
}
);
layerId = "BA106321-29DE-4FD0-898D-B7B08A4D4215";
shapes = (
{
closed = 1;
nodes = (
(398,435,l),
(360,449,o),
(320,455,o),
(279,455,cs),
(138,455,o),
(76,355,o),
(51,230,cs),
(25,99,o),
(50,-7,o),
(197,-7,cs),
(232,-7,o),
(274,-3,o),
(318,11,c),
(312,73,l),
(274,63,o),
(242,57,o),
(204,57,cs),
(119,57,o),
(100,96,o),
(125,218,cs),
(150,346,o),
(191,391,o),
(280,391,cs),
(314,391,o),
(344,387,o),
(378,377,c)
);
}
);
width = 448;
},
{
anchors = (
{
name = bottom;
pos = (157,0);
},
{
name = top;
pos = (285,448);
}
);
layerId = "EBAB10B0-9FDE-44C7-9B16-DD2313400F4E";
shapes = (
{
closed = 1;
nodes = (
(417,429,l),
(376,447,o),
(333,455,o),
(289,455,cs),
(136,455,o),
(76,356,o),
(52,233,cs),
(25,100,o),
(50,-7,o),
(209,-7,cs),
(247,-7,o),
(292,-3,o),
(339,15,c),
(331,92,l),
(301,84,o),
(268,77,o),
(235,77,cs),
(159,77,o),
(143,110,o),
(164,215,cs),
(187,330,o),
(225,371,o),
(307,371,cs),
(337,371,o),
(368,366,o),
(391,358,c)
);
}
);
width = 448;
}
);
unicode = 99;
}
{
glyphname = e;
layers = (
{
anchors = (
{
name = bottom;
pos = (224,0);
},
{
name = bottomAttach;
pos = (331,0);
},
{
name = top;
pos = (224,448);
}
);
hints = (
{
horizontal = 1;
options = 4;
origin = (0,2);
target = (0,9);
type = TTStem;
},
{
horizontal = 1;
options = 4;
origin = (0,25);
target = (0,15);
type = TTStem;
},
{
horizontal = 1;
origin = (0,2);
other1 = (0,12,0,22);
target = (0,25);
type = TTInterpolate;
},
{
horizontal = 1;
options = 4;
origin = (0,12,0,22);
target = (0,15,0,20);
type = TTStem;
},
{
options = 4;
origin = (0,28);
target = (0,15,0,20);
type = TTStem;
},
{
options = 4;
origin = (0,22);
target = (0,18,0,20);
type = TTStem;
},
{
options = 4;
origin = (0,22);
target = (0,5);
type = TTShift;
},
{
options = 4;
origin = (0,15,0,20);
target = (0,12,0,22);
type = TTShift;
},
{
options = 8;
origin = (0,28);
type = TTSnap;
},
{
options = 8;
origin = (0,22);
type = TTSnap;
}
);
layerId = "95FB0C11-C828-4064-8966-34220AA4D426";
shapes = (
{
closed = 1;
nodes = (
(50,93,o),
(95,-13,o),
(242,-13,cs),
(285,-13,o),
(330,-4,o),
(375,16,c),
(361,74,l),
(323,61,o),
(286,51,o),
(246,51,cs),
(156,51,o),
(126,95,o),
(126,224,cs),
(126,351,o),
(155,397,o),
(224,397,cs),
(294,397,o),
(326,343,o),
(320,224,c),
(360,263,l),
(92,263,l),
(92,201,l),
(395,201,l),
(407,360,o),
(346,461,o),
(224,461,cs),
(95,461,o),
(50,355,o),
(50,224,cs)
);
}
);
width = 448;
},
{
anchors = (
{
name = bottom;
pos = (224,0);
},
{
name = bottomAttach;
pos = (331,0);
},
{
name = top;
pos = (224,448);
}
);
layerId = "92967D72-867E-4A8B-929F-F44D834DD4C9";
shapes = (
{
closed = 1;
nodes = (
(40,93,o),
(87,-13,o),
(242,-13,cs),
(293,-13,o),
(343,1,o),
(389,20,c),
(371,92,l),
(333,79,o),
(291,67,o),
(258,67,cs),
(183,67,o),
(156,107,o),
(156,224,cs),
(156,339,o),
(176,381,o),
(224,381,cs),
(272,381,o),
(298,331,o),
(290,224,c),
(330,266,l),
(102,266,l),
(102,188,l),
(403,188,l),
(423,341,o),
(364,461,o),
(224,461,cs),
(87,461,o),
(40,355,o),
(40,224,cs)
);
}
);
width = 448;
},
{
anchors = (
{
name = bottom;
pos = (224,0);
},
{
name = bottomAttach;
pos = (341,0);
},
{
name = top;
pos = (224,448);
}
);
layerId = "7DDCEF54-C770-4FAD-B154-EE8058BAA7E5";
shapes = (
{
closed = 1;
nodes = (
(56,93,o),
(100,-13,o),
(242,-13,cs),
(289,-13,o),
(333,-5,o),
(372,10,c),
(363,47,l),
(325,36,o),
(286,29,o),
(251,29,cs),
(140,29,o),
(108,103,o),
(108,224,cs),
(108,356,o),
(142,417,o),
(224,417,cs),
(307,417,o),
(344,346,o),
(338,224,c),
(378,257,l),
(86,257,l),
(86,213,l),
(390,213,l),
(397,372,o),
(335,461,o),
(224,461,cs),
(100,461,o),
(56,355,o),
(56,224,cs)
);
}
);
width = 448;
},
{
anchors = (
{
name = bottom;
pos = (179,0);
},
{
name = bottomAttach;
pos = (296,0);
},
{
name = top;
pos = (269,448);
}
);
layerId = "C21910D5-47BB-472B-A83D-89B2B42B8F2A";
shapes = (
{
closed = 1;
nodes = (
(30,95,o),
(54,-13,o),
(198,-13,cs),
(243,-13,o),
(289,-6,o),
(331,9,c),
(326,48,l),
(286,37,o),
(245,29,o),
(209,29,cs),
(99,29,o),
(83,101,o),
(107,220,cs),
(134,354,o),
(182,417,o),
(266,417,cs),
(347,417,o),
(369,348,o),
(338,226,c),
(385,257,l),
(93,257,l),
(84,213,l),
(387,213,l),
(426,371,o),
(381,461,o),
(268,461,cs),
(146,461,o),
(83,357,o),
(57,228,cs)
);
}
);
width = 448;
},
{
anchors = (
{
name = bottom;
pos = (179,0);
},
{
name = bottomAttach;
pos = (286,0);
},
{
name = top;
pos = (269,448);
}
);
layerId = "BA106321-29DE-4FD0-898D-B7B08A4D4215";
shapes = (
{
closed = 1;
nodes = (
(24,96,o),
(50,-13,o),
(200,-13,cs),
(240,-13,o),
(286,-5,o),
(335,15,c),
(328,75,l),
(288,62,o),
(249,51,o),
(206,51,cs),
(119,51,o),
(100,92,o),
(125,218,cs),
(151,348,o),
(192,397,o),
(264,397,cs),
(331,397,o),
(350,346,o),
(320,227,c),
(369,263,l),
(100,263,l),
(87,201,l),
(390,198,l),
(434,357,o),
(391,461,o),
(266,461,cs),
(140,461,o),
(77,358,o),
(51,230,cs)
);
}
);
width = 448;
},
{
anchors = (
{
name = bottom;
pos = (179,0);
},
{
name = bottomAttach;
pos = (286,0);
},
{
name = top;
pos = (269,448);
}
);
layerId = "EBAB10B0-9FDE-44C7-9B16-DD2313400F4E";
shapes = (
{
closed = 1;
nodes = (
(15,97,o),
(43,-13,o),
(201,-13,cs),
(249,-13,o),
(301,-1,o),
(351,18,c),
(341,93,l),
(301,80,o),
(256,67,o),
(220,67,cs),
(148,67,o),
(132,103,o),
(154,215,cs),
(178,335,o),
(211,381,o),
(262,381,cs),
(307,381,o),
(320,335,o),
(291,228,c),
(339,266,l),
(110,266,l),
(95,188,l),
(395,184,l),
(446,337,o),
(408,461,o),
(265,461,cs),
(131,461,o),
(67,359,o),
(42,233,cs)
);
}
);
width = 448;
}
);
unicode = 101;
}
{
glyphname = f;
layers = (
{
anchors = (
{
name = bottom;
pos = (170,0);
},
{
name = top;
pos = (270,640);
}
);
background = {
shapes = (
{
closed = 1;
nodes = (
(124,0,l),
(196,0,l),
(196,384,l),
(340,384,l),
(340,448,l),
(196,448,l),
(196,509,ls),
(196,549,o),
(211,584,o),
(264,584,cs),
(294,584,o),
(324,580,o),
(357,575,c),
(368,638,l),
(330,645,o),
(294,648,o),
(260,648,cs),
(182,648,o),
(124,605,o),
(124,504,cs),
(124,448,l),
(49,448,l),
(49,386,l),
(124,383,l)
);
}
);
};
hints = (
{
horizontal = 1;
options = 4;
origin = (0,16);
target = (0,9);
type = TTStem;
},
{
horizontal = 1;
options = 4;
origin = (0,5);
target = (0,2);
type = TTStem;
},
{
horizontal = 1;
origin = (0,1);
type = TTSnap;
},
{
horizontal = 1;
options = 4;
origin = (0,5);
target = (0,20);
type = TTShift;
},
{
horizontal = 1;
options = 4;
origin = (0,2);
target = (0,23);
type = TTShift;
},
{
options = 4;
origin = (0,2);
target = (0,23);
type = TTStem;
},
{
options = 4;
origin = (0,2);
target = (0,5);
type = TTShift;
},
{
options = 4;
origin = (0,23);
target = (0,20);
type = TTShift;
},
{
origin = (0,23);
stem = -1;
target = (0,22);
type = TTStem;
},
{
origin = (0,13);
type = TTSnap;
},
{
options = 4;
origin = (0,13);
target = (0,3);
type = TTShift;
},
{
options = 8;
origin = (0,2);
type = TTSnap;
}
);
layerId = "95FB0C11-C828-4064-8966-34220AA4D426";
shapes = (
{
closed = 1;
nodes = (
(134,0,l),
(206,0,l),
(206,384,l),
(350,384,l),
(350,448,l),
(206,448,l),
(206,509,ls),
(206,549,o),
(221,584,o),
(274,584,cs),
(304,584,o),
(334,580,o),
(367,575,c),
(378,638,l),
(340,645,o),
(304,648,o),
(270,648,cs),
(192,648,o),
(134,605,o),
(134,504,cs),
(134,448,l),
(59,448,l),
(59,386,l),
(134,383,l)
);
}
);
width = 448;
},
{
anchors = (
{
name = bottom;
pos = (190,0);
},
{
name = top;
pos = (288,640);
}
);
background = {
shapes = (
{
closed = 1;
nodes = (
(124,0,l),
(236,0,l),
(236,364,l),
(360,364,l),
(360,448,l),
(236,448,l),
(236,506,ls),
(236,540,o),
(251,568,o),
(306,568,cs),
(333,568,o),
(361,565,o),
(385,561,c),
(397,633,l),
(365,641,o),
(313,648,o),
(278,648,cs),
(187,648,o),
(124,605,o),
(124,504,cs),
(124,448,l),
(49,448,l),
(49,366,l),
(124,363,l)
);
}
);
};
layerId = "92967D72-867E-4A8B-929F-F44D834DD4C9";
shapes = (
{
closed = 1;
nodes = (
(134,0,l),
(246,0,l),
(246,364,l),
(370,364,l),
(370,448,l),
(246,448,l),
(246,506,ls),
(246,540,o),
(261,568,o),
(316,568,cs),
(343,568,o),
(371,565,o),
(395,561,c),
(407,633,l),
(375,641,o),
(323,648,o),
(288,648,cs),
(197,648,o),
(134,605,o),
(134,504,cs),
(134,448,l),
(59,448,l),
(59,366,l),
(134,363,l)
);
}
);
width = 448;
},
{
anchors = (
{
name = bottom;
pos = (158,0);
},
{
name = top;
pos = (259,640);
}
);
background = {
shapes = (
{
closed = 1;
nodes = (
(172,-192,l),
(172,-132,o),
(172,-72,o),
(172,-12,c),
(172,511,ls),
(172,559,o),
(192,604,o),
(258,604,cs),
(285,604,o),
(319,600,o),
(350,593,c),
(359,635,l),
(328,642,o),
(293,648,o),
(254,648,cs),
(179,648,o),
(124,605,o),
(124,504,cs),
(124,-12.004,l),
(124,-72.002,o),
(124,-132.001,o),
(124,-192,c)
);
}
);
};
layerId = "7DDCEF54-C770-4FAD-B154-EE8058BAA7E5";
shapes = (
{
closed = 1;
nodes = (
(134,0,l),
(182,0,l),
(182,406,l),
(338,406,l),
(338,448,l),
(182,448,l),
(182,511,ls),
(182,559,o),
(202,604,o),
(268,604,cs),
(295,604,o),
(329,600,o),
(360,593,c),
(369,635,l),
(338,642,o),
(303,648,o),
(259,648,cs),
(189,648,o),
(134,605,o),
(134,504,cs),
(134,448,l),
(59,448,l),
(59,408,l),
(134,405,l)
);
}
);
width = 448;
},
{
anchors = (
{
name = bottom;
pos = (113,0);
},
{
name = top;
pos = (340,640);
}
);
layerId = "C21910D5-47BB-472B-A83D-89B2B42B8F2A";
shapes = (
{
closed = 1;
nodes = (
(89,0,l),
(137,0,l),
(218,406,l),
(374,406,l),
(383,448,l),
(227,448,l),
(239,509,ls),
(248,557,o),
(280,604,o),
(347,604,cs),
(373,604,o),
(406,600,o),
(436,593,c),
(450,635,l),
(420,642,o),
(386,648,o),
(340,648,cs),
(272,648,o),
(209,606,o),
(190,506,cs),
(179,448,l),
(104,448,l),
(96,408,l),
(170,405,l)
);
}
);
width = 448;
},
{
anchors = (
{
name = bottom;
pos = (125,0);
},
{
name = top;
pos = (350,640);
}
);
layerId = "BA106321-29DE-4FD0-898D-B7B08A4D4215";
shapes = (
{
closed = 1;
nodes = (
(89,0,l),
(161,0,l),
(238,384,l),
(382,384,l),
(395,448,l),
(251,448,l),
(262,506,ls),
(270,546,o),
(296,584,o),
(351,584,cs),
(379,584,o),
(408,580,o),
(440,575,c),
(459,637,l),
(422,644,o),
(386,648,o),
(350,648,cs),
(274,648,o),
(212,608,o),
(191,507,cs),
(179,448,l),
(104,448,l),
(91,386,l),
(166,383,l)
);
}
);
width = 448;
},
{
anchors = (
{
name = bottom;
pos = (157,0);
},
{
name = top;
pos = (366,640);
}
);
layerId = "EBAB10B0-9FDE-44C7-9B16-DD2313400F4E";
shapes = (
{
closed = 1;
nodes = (
(101,0,l),
(212,0,l),
(277,364,l),
(398,364,l),
(415,448,l),
(292,448,l),
(300,496,ls),
(307,536,o),
(333,568,o),
(393,568,cs),
(415,568,o),
(442,566,o),
(466,562,c),
(486,632,l),
(455,640,o),
(405,648,o),
(366,648,cs),
(274,648,o),
(210,609,o),
(190,502,cs),
(180,448,l),
(104,448,l),
(87,366,l),
(165,363,l)
);
}
);
width = 448;
}
);
unicode = 102;
}
{
glyphname = g;
layers = (
{
anchors = (
{
name = bottom;
pos = (224,-192);
},
{
name = top;
pos = (224,448);
}
);
background = {
shapes = (
{
angle = 180;
pos = (448,448);
ref = _part.bowl;
}
);
};
hints = (
{
horizontal = 1;
origin = (0,4);
type = TTSnap;
},
{
horizontal = 1;
options = 4;
origin = (1,25);
target = (1,6);
type = TTStem;
},
{
horizontal = 1;
options = 4;
origin = (0,18);
target = (0,11);
type = TTStem;
},
{
options = 4;
origin = (1,22);
target = (0,15);
type = TTShift;
},
{
options = 8;
origin = (0,3);
type = TTSnap;
},
{
horizontal = 1;
origin = (1,25);
stem = -1;
type = TTSnap;
},
{
horizontal = 1;
options = 4;
origin = (1,19);
target = (1,12);
type = TTStem;
},
{
options = 8;
origin = (1,22);
type = TTSnap;
},
{
options = 4;
origin = (1,22);
target = (1,9);
type = TTStem;
},
{
options = 4;
origin = (0,3);
target = (0,8,1,15);
type = TTStem;
},
{
options = 4;
origin = (0,8,1,15);
target = (0,6,1,19);
type = TTShift;
},
{
options = 4;
origin = (0,8,1,15);
target = (0,8,1,2);
type = TTShift;
}
);
layerId = "95FB0C11-C828-4064-8966-34220AA4D426";
shapes = (
{
closed = 1;
nodes = (
(319,-196,o),
(388,-154,o),
(388,-36,cs),
(388,384,l),
(390,448,l),
(329,448,l),
(320,383,l),
(316,367,l),
(316,-49,ls),
(316,-105,o),
(298,-132,o),
(222,-132,cs),
(189,-132,o),
(151,-131,o),
(112,-123,c),
(102,-181,l),
(142,-191,o),
(183,-196,o),
(223,-196,cs)
);
},
{
closed = 1;
nodes = (
(302,-8,o),
(349,44,o),
(365,132,c),
(336,145,l),
(319,79,o),
(276,56,o),
(221,56,cs),
(151,56,o),
(124,97,o),
(124,224,cs),
(124,353,o),
(151,392,o),
(221,392,cs),
(277,392,o),
(320,370,o),
(336,302,c),
(366,315,l),
(350,405,o),
(303,456,o),
(213,456,cs),
(97,456,o),
(46,355,o),
(46,224,cs),
(46,93,o),
(97,-8,o),
(212,-8,cs)
);
}
);
width = 448;
},
{
anchors = (
{
name = bottom;
pos = (224,-192);
},
{
name = top;
pos = (224,448);
}
);
background = {
shapes = (
{
angle = 180;
pos = (448,448);
ref = _part.bowl;
}
);
};
layerId = "92967D72-867E-4A8B-929F-F44D834DD4C9";
shapes = (
{
closed = 1;
nodes = (
(324,-196,o),
(397,-154,o),
(397,-36,cs),
(397,384,l),
(399,448,l),
(311,448,l),
(295,356,l),
(285,356,l),
(285,-49,ls),
(285,-94,o),
(269,-116,o),
(199,-116,cs),
(171,-116,o),
(128,-111,o),
(89,-105,c),
(78,-179,l),
(123,-189,o),
(179,-196,o),
(219,-196,cs)
);
},
{
closed = 1;
nodes = (
(254,-8,o),
(310,23,o),
(356,137,c),
(309,156,l),
(287,104,o),
(254,72,o),
(216,72,cs),
(174,72,o),
(152,107,o),
(152,224,cs),
(152,341,o),
(174,376,o),
(216,376,cs),
(254,376,o),
(287,344,o),
(309,292,c),
(367,317,l),
(321,431,o),
(260,456,o),
(199,456,cs),
(106,456,o),
(34,397,o),
(34,224,cs),
(34,51,o),
(108,-8,o),
(192,-8,cs)
);
}
);
width = 448;
},
{
anchors = (
{
name = bottom;
pos = (224,-192);
},
{
name = top;
pos = (224,448);
}
);
background = {
shapes = (
{
angle = 180;
pos = (448,448);
ref = _part.bowl;
}
);
};
layerId = "7DDCEF54-C770-4FAD-B154-EE8058BAA7E5";
shapes = (
{
closed = 1;
nodes = (
(323,-196,o),
(381,-151,o),
(381,-49,cs),
(381,384,l),
(383,448,l),
(340,448,l),
(335,399,l),
(336,374,l),
(336,-46,ls),
(336,-123,o),
(306,-154,o),
(220,-154,cs),
(189,-154,o),
(153,-149,o),
(120,-142,c),
(116,-182,l),
(153,-192,o),
(185,-196,o),
(225,-196,cs)
);
},
{
closed = 1;
nodes = (
(286,-8,o),
(323,19,o),
(363,58,c),
(342,83,l),
(308,53,o),
(272,34,o),
(229,34,cs),
(141,34,o),
(107,101,o),
(107,224,cs),
(107,347,o),
(141,414,o),
(229,414,cs),
(272,414,o),
(308,395,o),
(342,365,c),
(363,390,l),
(323,429,o),
(286,456,o),
(229,456,cs),
(87,456,o),
(53,330,o),
(53,224,cs),
(53,118,o),
(87,-8,o),
(229,-8,cs)
);
}
);
width = 448;
},
{
anchors = (
{
name = bottom;
pos = (141,-192);
},
{
name = top;
pos = (269,448);
}
);
background = {
shapes = (
{
angle = 180;
pos = (448,448);
ref = _part.bowl;
}
);
};
layerId = "C21910D5-47BB-472B-A83D-89B2B42B8F2A";
shapes = (
{
closed = 1;
nodes = (
(241,-196,o),
(306,-153,o),
(326,-51,cs),
(413,384,l),
(428,448,l),
(385,448,l),
(370,399,l),
(366,374,l),
(282,-44,ls),
(267,-121,o),
(229,-154,o),
(141,-154,cs),
(112,-154,o),
(77,-149,o),
(45,-142,c),
(36,-182,l),
(72,-192,o),
(103,-196,o),
(144,-196,cs)
);
},
{
closed = 1;
nodes = (
(237,-8,o),
(281,18,o),
(330,57,c),
(311,84,l),
(272,54,o),
(230,34,o),
(185,34,cs),
(127,34,o),
(99,76,o),
(99,159,cs),
(99,267,o),
(151,414,o),
(271,414,cs),
(312,414,o),
(344,396,o),
(371,366,c),
(394,389,l),
(361,428,o),
(331,456,o),
(270,456,cs),
(117,456,o),
(45,294,o),
(45,159,cs),
(45,60,o),
(84,-8,o),
(180,-8,cs)
);
}
);
width = 448;
},
{
anchors = (
{
name = bottom;
pos = (141,-192);
},
{
name = top;
pos = (269,448);
}
);
background = {
shapes = (
{
angle = 180;
pos = (448,448);
ref = _part.bowl;
}
);
};
layerId = "BA106321-29DE-4FD0-898D-B7B08A4D4215";
shapes = (
{
closed = 1;
nodes = (
(238,-196,o),
(311,-157,o),
(335,-39,cs),
(420,384,l),
(435,448,l),
(373,448,l),
(351,383,l),
(344,367,l),
(262,-46,ls),
(251,-102,o),
(224,-132,o),
(146,-132,cs),
(115,-132,o),
(77,-132,o),
(40,-124,c),
(23,-180,l),
(62,-190,o),
(102,-196,o),
(144,-196,cs)
);
},
{
closed = 1;
nodes = (
(258,-8,o),
(313,40,o),
(348,130,c),
(320,149,l),
(289,81,o),
(241,56,o),
(191,56,cs),
(139,56,o),
(114,84,o),
(114,157,cs),
(114,264,o),
(155,394,o),
(264,394,cs),
(313,394,o),
(349,372,o),
(353,306,c),
(383,313,l),
(384,401,o),
(346,456,o),
(254,456,cs),
(110,456,o),
(39,296,o),
(39,157,cs),
(39,57,o),
(82,-8,o),
(178,-8,cs)
);
}
);
width = 448;
},
{
anchors = (
{
name = bottom;
pos = (141,-192);
},
{
name = top;
pos = (269,448);
}
);
background = {
shapes = (
{
angle = 180;
pos = (448,448);
ref = _part.bowl;
}
);
};
layerId = "EBAB10B0-9FDE-44C7-9B16-DD2313400F4E";
shapes = (
{
closed = 1;
nodes = (
(243,-196,o),
(320,-158,o),
(344,-40,cs),
(429,384,l),
(444,448,l),
(355,448,l),
(321,356,l),
(311,356,l),
(231,-45,ls),
(222,-90,o),
(198,-116,o),
(125,-116,cs),
(100,-116,o),
(58,-112,o),
(20,-106,c),
(0,-178,l),
(44,-188,o),
(98,-196,o),
(141,-196,cs)
);
},
{
closed = 1;
nodes = (
(212,-8,o),
(272,19,o),
(341,133,c),
(297,160,l),
(265,108,o),
(222,74,o),
(185,74,cs),
(155,74,o),
(138,94,o),
(138,143,cs),
(138,200,o),
(171,376,o),
(256,376,cs),
(290,376,o),
(315,348,o),
(327,296,c),
(386,313,l),
(362,427,o),
(305,456,o),
(244,456,cs),
(98,456,o),
(26,274,o),
(26,144,cs),
(26,49,o),
(69,-8,o),
(157,-8,cs)
);
}
);
width = 448;
},
{
anchors = (
{
name = bottom;
pos = (224,-192);
},
{
name = top;
pos = (224,448);
}
);
associatedMasterId = "95FB0C11-C828-4064-8966-34220AA4D426";
attr = {
coordinates = (
72,
0,
-64
);
};
background = {
shapes = (
{
closed = 1;
nodes = (
(387,384,l),
(389,448,l),
(329,448,l),
(320,383,l),
(317,367,l),
(317,-49,ls),
(317,-105,o),
(298,-132,o),
(222,-132,cs),
(189,-132,o),
(151,-131,o),
(112,-123,c),
(102,-181,l),
(142,-191,o),
(183,-196,o),
(223,-196,cs),
(319,-196,o),
(387,-154,o),
(387,-36,cs)
);
},
{
closed = 1;
nodes = (
(371,224,cs),
(371,371,o),
(328,456,o),
(214,456,cs),
(99,456,o),
(49,355,o),
(49,224,cs),
(49,93,o),
(99,-8,o),
(213,-8,cs),
(328,-8,o),
(371,82,o)
);
},
{
closed = 1;
nodes = (
(342,224,cs),
(342,97,o),
(294,56,o),
(222,56,cs),
(153,56,o),
(127,97,o),
(127,224,cs),
(127,353,o),
(153,392,o),
(222,392,cs),
(294,392,o),
(342,353,o)
);
}
);
};
layerId = "0C4DA497-234A-4933-A06A-0B2437F8261E";
name = "7. Apr. 21, 16:12";
shapes = (
{
closed = 1;
nodes = (
(319,-68,o),
(388,-26,o),
(388,92,cs),
(388,384,l),
(390,448,l),
(329,448,l),
(320,383,l),
(316,367,l),
(316,79,ls),
(316,23,o),
(298,-4,o),
(222,-4,cs),
(189,-4,o),
(151,-3,o),
(112,5,c),
(102,-53,l),
(142,-63,o),
(183,-68,o),
(223,-68,cs)
);
},
{
closed = 1;
nodes = (
(302,88,o),
(349,140,o),
(365,228,c),
(336,241,l),
(319,175,o),
(270,152,o),
(221,152,cs),
(161,152,o),
(124,187,o),
(124,272,cs),
(124,361,o),
(157,392,o),
(221,392,cs),
(271,392,o),
(320,370,o),
(336,302,c),
(366,315,l),
(350,405,o),
(303,456,o),
(213,456,cs),
(103,456,o),
(46,374,o),
(46,272,cs),
(46,172,o),
(101,88,o),
(212,88,cs)
);
}
);
width = 448;
},
{
anchors = (
{
name = bottom;
pos = (141,-192);
},
{
name = top;
pos = (269,448);
}
);
associatedMasterId = "BA106321-29DE-4FD0-898D-B7B08A4D4215";
attr = {
coordinates = (
72,
100,
-64
);
};
background = {
shapes = (
{
closed = 1;
nodes = (
(263,-68,o),
(337,-29,o),
(361,89,cs),
(420,384,l),
(435,448,l),
(373,448,l),
(351,383,l),
(344,367,l),
(288,82,ls),
(276,26,o),
(250,-4,o),
(171,-4,cs),
(141,-4,o),
(103,-4,o),
(66,4,c),
(49,-52,l),
(87,-62,o),
(127,-68,o),
(170,-68,cs)
);
},
{
closed = 1;
nodes = (
(276,88,o),
(331,137,o),
(366,225,c),
(339,244,l),
(308,178,o),
(253,152,o),
(202,152,cs),
(143,152,o),
(116,184,o),
(132,266,cs),
(151,358,o),
(193,392,o),
(260,392,cs),
(308,392,o),
(350,373,o),
(353,305,c),
(383,312,l),
(385,402,o),
(347,456,o),
(254,456,cs),
(147,456,o),
(77,377,o),
(57,278,cs),
(36,175,o),
(75,88,o),
(190,88,cs)
);
}
);
};
layerId = "2FC22154-4411-4A42-8A86-21C966DDCE08";
name = "17. Mai 21, 10:32";
shapes = (
{
closed = 1;
nodes = (
(263,-68,o),
(337,-29,o),
(361,89,cs),
(420,384,l),
(435,448,l),
(373,448,l),
(351,383,l),
(344,367,l),
(288,82,ls),
(277,26,o),
(250,-4,o),
(171,-4,cs),
(141,-4,o),
(103,-4,o),
(66,4,c),
(49,-52,l),
(87,-62,o),
(127,-68,o),
(170,-68,cs)
);
},
{
closed = 1;
nodes = (
(277,88,o),
(331,136,o),
(366,225,c),
(338,244,l),
(307,177,o),
(260,152,o),
(210,152,cs),
(154,152,o),
(127,175,o),
(127,232,cs),
(127,304,o),
(164,392,o),
(264,392,cs),
(313,392,o),
(349,370,o),
(353,305,c),
(383,312,l),
(384,401,o),
(346,456,o),
(254,456,cs),
(119,456,o),
(52,336,o),
(52,232,cs),
(52,145,o),
(97,88,o),
(197,88,cs)
);
}
);
width = 448;
}
);
unicode = 103;
}
{
glyphname = h;
layers = (
{
anchors = (
{
name = bottom;
pos = (224,0);
},
{
name = top;
pos = (224,640);
}
);
hints = (
{
horizontal = 1;
origin = (0,0);
type = TTSnap;
},
{
horizontal = 1;
origin = (1,15);
type = TTSnap;
},
{
horizontal = 1;
origin = (0,1);
type = TTSnap;
},
{
horizontal = 1;
options = 4;
origin = (1,4);
target = (1,11);
type = TTStem;
},
{
options = 4;
origin = (1,1);
target = (1,14);
type = TTStem;
},
{
options = 4;
origin = (0,3);
target = (0,0);
type = TTStem;
},
{
options = 4;
origin = (0,0);
target = (0,1,1,7);
type = TTShift;
},
{
options = 8;
origin = (0,3);
type = TTSnap;
},
{
options = 8;
origin = (1,1);
type = TTSnap;
}
);
layerId = "95FB0C11-C828-4064-8966-34220AA4D426";
shapes = (
{
closed = 1;
nodes = (
(132,0,l),
(132,640,l),
(60,640,l),
(60,0,l)
);
},
{
closed = 1;
nodes = (
(388,0,l),
(388,297,ls),
(388,419,o),
(327,452,o),
(261,452,cs),
(186,452,o),
(115,399,o),
(81,345,c),
(117,314,l),
(152,354,o),
(199,388,o),
(247,388,cs),
(300,388,o),
(316,358,o),
(316,289,cs),
(316,0,l)
);
}
);
width = 448;
},
{
anchors = (
{
name = bottom;
pos = (224,0);
},
{
name = top;
pos = (224,640);
}
);
layerId = "92967D72-867E-4A8B-929F-F44D834DD4C9";
shapes = (
{
closed = 1;
nodes = (
(162,0,l),
(162,640,l),
(50,640,l),
(50,0,l)
);
},
{
closed = 1;
nodes = (
(398,0,l),
(398,297,ls),
(398,419,o),
(346,452,o),
(270,452,cs),
(191,452,o),
(125,410,o),
(81,345,c),
(125,307,l),
(161,351,o),
(202,372,o),
(235,372,cs),
(278,372,o),
(286,343,o),
(286,289,cs),
(286,0,l)
);
}
);
width = 448;
},
{
anchors = (
{
name = bottom;
pos = (224,0);
},
{
name = top;
pos = (224,640);
}
);
layerId = "7DDCEF54-C770-4FAD-B154-EE8058BAA7E5";
shapes = (
{
closed = 1;
nodes = (
(114,0,l),
(114,640,l),
(66,640,l),
(66,0,l)
);
},
{
closed = 1;
nodes = (
(382,0,l),
(382,309,ls),
(382,422,o),
(323,452,o),
(261,452,cs),
(188,452,o),
(120,394,o),
(83,345,c),
(103,328,l),
(150,373,o),
(197,408,o),
(252,408,cs),
(311,408,o),
(334,379,o),
(334,305,cs),
(334,0,l)
);
}
);
width = 448;
},
{
anchors = (
{
name = bottom;
pos = (179,0);
},
{
name = top;
pos = (307,640);
}
);
layerId = "C21910D5-47BB-472B-A83D-89B2B42B8F2A";
shapes = (
{
closed = 1;
nodes = (
(69,0,l),
(197,640,l),
(149,640,l),
(21,0,l)
);
},
{
closed = 1;
nodes = (
(337,0,l),
(399,307,ls),
(422,420,o),
(367,452,o),
(303,452,cs),
(232,452,o),
(153,396,o),
(106,347,c),
(125,327,l),
(181,372,o),
(236,408,o),
(292,408,cs),
(350,408,o),
(366,381,o),
(351,307,cs),
(289,0,l)
);
}
);
width = 448;
},
{
anchors = (
{
name = bottom;
pos = (307,0);
},
{
name = top;
pos = (307,640);
}
);
layerId = "BA106321-29DE-4FD0-898D-B7B08A4D4215";
shapes = (
{
closed = 1;
nodes = (
(87,0,l),
(215,640,l),
(143,640,l),
(15,0,l)
);
},
{
closed = 1;
nodes = (
(343,0,l),
(402,294,ls),
(426,416,o),
(370,452,o),
(302,452,cs),
(229,452,o),
(149,401,o),
(104,347,c),
(137,312,l),
(179,352,o),
(234,388,o),
(285,388,cs),
(335,388,o),
(344,361,o),
(330,292,cs),
(271,0,l)
);
}
);
width = 448;
},
{
anchors = (
{
name = bottom;
pos = (179,0);
},
{
name = top;
pos = (307,640);
}
);
layerId = "EBAB10B0-9FDE-44C7-9B16-DD2313400F4E";
shapes = (
{
closed = 1;
nodes = (
(117,0,l),
(245,640,l),
(133,640,l),
(5,0,l)
);
},
{
closed = 1;
nodes = (
(353,0,l),
(412,293,ls),
(437,415,o),
(388,452,o),
(309,452,cs),
(233,452,o),
(161,414,o),
(104,349,c),
(144,304,l),
(188,348,o),
(235,372,o),
(271,372,cs),
(311,372,o),
(311,347,o),
(300,293,cs),
(241,0,l)
);
}
);
width = 448;
}
);
unicode = 104;
}
{
glyphname = k;
layers = (
{
anchors = (
{
name = bottom;
pos = (224,0);
},
{
name = top;
pos = (96,640);
}
);
background = {
shapes = (
{
closed = 1;
nodes = (
(229,238,o),
(245,252,o),
(245,270,cs),
(245,288,o),
(229,302,o),
(209,302,cs),
(189,302,o),
(173,288,o),
(173,270,cs),
(173,252,o),
(189,238,o),
(209,238,cs)
);
},
{
closed = 1;
nodes = (
(353,384,o),
(369,398,o),
(369,416,cs),
(369,434,o),
(353,448,o),
(333,448,cs),
(313,448,o),
(297,434,o),
(297,416,cs),
(297,398,o),
(313,384,o),
(333,384,cs)
);
},
{
closed = 1;
nodes = (
(366,0,o),
(382,14,o),
(382,32,cs),
(382,50,o),
(366,64,o),
(346,64,cs),
(326,64,o),
(310,50,o),
(310,32,cs),
(310,14,o),
(326,0,o),
(346,0,cs)
);
},
{
closed = 1;
nodes = (
(229,172,o),
(245,186,o),
(245,204,cs),
(245,222,o),
(229,236,o),
(209,236,cs),
(189,236,o),
(173,222,o),
(173,204,cs),
(173,186,o),
(189,172,o),
(209,172,c)
);
}
);
};
hints = (
{
options = 8;
origin = (0,3);
type = TTSnap;
},
{
options = 4;
origin = (0,3);
target = (0,4);
type = TTStem;
},
{
options = 8;
origin = (1,2);
type = TTSnap;
},
{
options = 4;
origin = (1,2);
target = (1,1);
type = TTStem;
},
{
options = 4;
origin = (1,2);
target = (1,5);
type = TTShift;
},
{
options = 4;
origin = (1,5);
target = (1,6);
type = TTStem;
},
{
horizontal = 1;
options = 4;
origin = (0,3);
target = (1,1);
type = TTShift;
},
{
horizontal = 1;
origin = (0,2);
type = TTSnap;
},
{
horizontal = 1;
origin = (0,5);
type = TTSnap;
},
{
horizontal = 1;
options = 4;
origin = (0,5);
target = (0,0);
type = TTStem;
},
{
horizontal = 1;
origin = (1,6);
type = TTSnap;
},
{
horizontal = 1;
options = 4;
origin = (0,5);
other1 = (1,3,1,5);
target = (0,0);
type = TTInterpolate;
}
);
layerId = "95FB0C11-C828-4064-8966-34220AA4D426";
shapes = (
{
closed = 1;
nodes = (
(132,272,l),
(132,640,l),
(60,640,l),
(60,0,l),
(132,0,l),
(132,208,l),
(218,208,l),
(218,272,l)
);
},
{
closed = 1;
nodes = (
(138,238,l),
(324,0,l),
(420,0,l),
(214,253,l),
(214,226,l),
(408,448,l),
(313,448,l)
);
}
);
width = 448;
},
{
anchors = (
{
name = bottom;
pos = (224,0);
},
{
name = top;
pos = (106,640);
}
);
background = {
shapes = (
{
closed = 1;
nodes = (
(50,0,l),
(162,0,l),
(162,640,l),
(50,640,l)
);
},
{
closed = 1;
nodes = (
(130,231,l),
(317,-9,l),
(419,33,l),
(236,253,l),
(236,207,l),
(414,417,l),
(308,459,l)
);
},
{
closed = 1;
nodes = (
(108,192,l),
(218,192,l),
(218,272,l),
(108,272,l)
);
}
);
};
layerId = "92967D72-867E-4A8B-929F-F44D834DD4C9";
shapes = (
{
closed = 1;
nodes = (
(162,277,l),
(162,640,l),
(50,640,l),
(50,0,l),
(162,0,l),
(162,196,l),
(218,196,l),
(218,277,l)
);
},
{
closed = 1;
nodes = (
(134,238,l),
(308,0,l),
(443,0,l),
(242,261,l),
(242,217,l),
(435,448,l),
(300,448,l)
);
}
);
width = 448;
},
{
anchors = (
{
name = bottom;
pos = (224,0);
},
{
name = top;
pos = (90,640);
}
);
background = {
shapes = (
{
closed = 1;
nodes = (
(365,0,o),
(376,10,o),
(376,22,cs),
(376,34,o),
(365,44,o),
(352,44,cs),
(339,44,o),
(328,34,o),
(328,22,cs),
(328,10,o),
(339,0,o),
(352,0,cs)
);
},
{
closed = 1;
nodes = (
(210,187,o),
(221,197,o),
(221,209,cs),
(221,221,o),
(210,231,o),
(197,231,cs),
(184,231,o),
(173,221,o),
(173,209,cs),
(173,197,o),
(184,187,o),
(197,187,cs)
);
},
{
closed = 1;
nodes = (
(210,245,o),
(221,255,o),
(221,267,cs),
(221,279,o),
(210,289,o),
(197,289,cs),
(184,289,o),
(173,279,o),
(173,267,cs),
(173,255,o),
(184,245,o),
(197,245,cs)
);
},
{
closed = 1;
nodes = (
(350,404,o),
(361,414,o),
(361,426,cs),
(361,438,o),
(350,448,o),
(337,448,cs),
(324,448,o),
(313,438,o),
(313,426,cs),
(313,414,o),
(324,404,o),
(337,404,cs)
);
}
);
};
layerId = "7DDCEF54-C770-4FAD-B154-EE8058BAA7E5";
shapes = (
{
closed = 1;
nodes = (
(114,264,l),
(114,640,l),
(66,640,l),
(66,0,l),
(114,0,l),
(114,220,l),
(188,220,l),
(188,264,l)
);
},
{
closed = 1;
nodes = (
(143,239,l),
(337,0,l),
(401,0,l),
(195,248,l),
(195,232,l),
(388,448,l),
(325,448,l)
);
}
);
width = 448;
},
{
associatedMasterId = "95FB0C11-C828-4064-8966-34220AA4D426";
hints = (
{
horizontal = 1;
place = (640, 0);
type = TTSnap;
},
{
horizontal = 1;
place = (0, 0);
type = TTSnap;
},
{
horizontal = 1;
place = (0, 0);
type = TTSnap;
},
{
horizontal = 1;
place = (448, 0);
type = TTSnap;
},
{
horizontal = 1;
options = 4;
place = (208, 0);
type = TTStem;
},
{
horizontal = 1;
options = 4;
other1 = (1,3,1,5);
place = (272, 150);
type = TTInterpolate;
}
);
layerId = "3553EEC9-06BC-472D-85F7-1F3C946216CD";
name = "Dec 9 17, 21:48";
shapes = (
{
closed = 1;
nodes = (
(60,0,l),
(132,0,l),
(132,640,l),
(60,640,l)
);
},
{
closed = 1;
nodes = (
(156,231,l),
(348,-9,l),
(408,33,l),
(231,243,l),
(231,217,l),
(400,417,l),
(339,459,l)
);
},
{
closed = 1;
nodes = (
(108,200,l),
(218,200,l),
(218,264,l),
(108,264,l)
);
}
);
width = 448;
},
{
anchors = (
{
name = bottom;
pos = (179,0);
},
{
name = top;
pos = (173,640);
}
);
layerId = "C21910D5-47BB-472B-A83D-89B2B42B8F2A";
shapes = (
{
closed = 1;
nodes = (
(122,264,l),
(197,640,l),
(149,640,l),
(21,0,l),
(69,0,l),
(113,220,l),
(187,220,l),
(196,264,l)
);
},
{
closed = 1;
nodes = (
(146,239,l),
(293,0,l),
(356,0,l),
(199,248,l),
(197,232,l),
(433,448,l),
(369,448,l)
);
}
);
width = 448;
},
{
anchors = (
{
name = bottom;
pos = (179,0);
},
{
name = top;
pos = (179,640);
}
);
layerId = "BA106321-29DE-4FD0-898D-B7B08A4D4215";
shapes = (
{
closed = 1;
nodes = (
(142,272,l),
(215,640,l),
(143,640,l),
(15,0,l),
(87,0,l),
(129,208,l),
(215,208,l),
(228,272,l)
);
},
{
closed = 1;
nodes = (
(141,238,l),
(280,0,l),
(374,0,l),
(219,253,l),
(215,226,l),
(454,448,l),
(357,448,l)
);
}
);
width = 448;
},
{
anchors = (
{
name = bottom;
pos = (179,0);
},
{
name = top;
pos = (189,640);
}
);
layerId = "EBAB10B0-9FDE-44C7-9B16-DD2313400F4E";
shapes = (
{
closed = 1;
nodes = (
(173,277,l),
(245,640,l),
(133,640,l),
(5,0,l),
(117,0,l),
(156,196,l),
(212,196,l),
(229,277,l)
);
},
{
closed = 1;
nodes = (
(137,238,l),
(264,0,l),
(397,0,l),
(248,261,l),
(242,217,l),
(481,448,l),
(344,448,l)
);
}
);
width = 448;
}
);
unicode = 107;
}
